<?xml version="1.0" encoding="UTF-8" standalone="no"?>
<svg
   width="115"
   height="160"
   viewBox="0 0 115 160"
   version="1.1"
   xml:space="preserve"
   style="clip-rule:evenodd;fill-rule:evenodd;stroke-linejoin:round;stroke-miterlimit:2"
   id="svg15"
   sodipodi:docname="planter-box.svg"
   inkscape:version="1.3.2 (091e20e, 2023-11-25, custom)"
   xmlns:inkscape="http://www.inkscape.org/namespaces/inkscape"
   xmlns:sodipodi="http://sodipodi.sourceforge.net/DTD/sodipodi-0.dtd"
   xmlns="http://www.w3.org/2000/svg"
   xmlns:svg="http://www.w3.org/2000/svg"><defs
   id="defs15"><pattern
     id="EMFhbasepattern"
     patternUnits="userSpaceOnUse"
     width="6"
     height="6"
     x="0"
     y="0" /><pattern
     id="EMFhbasepattern-6"
     patternUnits="userSpaceOnUse"
     width="6"
     height="6"
     x="0"
     y="0" /></defs><sodipodi:namedview
   id="namedview15"
   pagecolor="#ffffff"
   bordercolor="#000000"
   borderopacity="0.25"
   inkscape:showpageshadow="2"
   inkscape:pageopacity="0.0"
   inkscape:pagecheckerboard="0"
   inkscape:deskcolor="#d1d1d1"
   inkscape:zoom="3.4052685"
   inkscape:cx="19.675394"
   inkscape:cy="75.911783"
   inkscape:window-width="1920"
   inkscape:window-height="1009"
   inkscape:window-x="-8"
   inkscape:window-y="-8"
   inkscape:window-maximized="1"
   inkscape:current-layer="svg15" />
    <g
   id="planter-box"
   transform="matrix(1.06164,0,0,1.06164,6.3518767,-60.103969)">
        <g
   id="flowers"
   transform="matrix(0.934115,0,0,0.934115,0.953426,-10.3874)">
            <g
   transform="translate(-143.17,48.9927)"
   id="g1">
                <path
   d="m 192.54,56.694 h 2.303 l 0.422,14.623 -4.453,0.69 z"
   style="fill:#679a45;fill-rule:nonzero"
   id="path1" />
            </g>
            <g
   transform="translate(-143.17,48.9927)"
   id="g2">
                <path
   d="m 175.807,36.662 2.381,-0.233 0.095,30.344 -4.456,1.05 z"
   style="fill:#679a45;fill-rule:nonzero"
   id="path2" />
            </g>
            <g
   transform="translate(-143.17,48.9927)"
   id="g3">
                <path
   d="m 206.598,40.436 2.383,-0.253 -0.003,26.824 -4.46,1.165 z"
   style="fill:#679a45;fill-rule:nonzero"
   id="path3" />
            </g>
            <g
   transform="translate(-143.17,48.9927)"
   id="g4">
                <path
   d="m 201.594,41.07 -3.127,-9.402 18.691,-0.036 -3.043,9.479 z"
   style="fill:#ae2025;fill-rule:nonzero"
   id="path4" />
            </g>
            <g
   transform="translate(-143.17,48.9927)"
   id="g5">
                <path
   d="m 170.594,36.573 -3.127,-9.402 18.691,-0.036 -3.043,9.479 z"
   style="fill:#ae2025;fill-rule:nonzero"
   id="path5" />
            </g>
            <g
   transform="translate(-143.17,48.9927)"
   id="g6">
                <path
   d="m 187.344,56.82 -3.127,-9.402 18.691,-0.036 -3.043,9.479 z"
   style="fill:#ae2025;fill-rule:nonzero"
   id="path6" />
            </g>
            <g
   transform="translate(-143.17,48.9927)"
   id="g7">
                <path
   d="m 207.324,48.118 -11.852,-5.456 -3.207,1.495 1.637,-4.758 12.418,5.421"
   style="fill:#679a45;fill-rule:nonzero"
   id="path7" />
            </g>
            <g
   transform="translate(-143.17,48.9927)"
   id="g8">
                <path
   d="m 205.372,59.502 10.627,-11.778 8.474,5.146 -7.683,-1.683 -8.424,8.757 z"
   style="fill:#679a45;fill-rule:nonzero"
   id="path8" />
            </g>
            <g
   transform="translate(-143.17,48.9927)"
   id="g9">
                <path
   d="m 176.187,46.971 7.994,-3.68 3.207,1.495 -1.637,-4.757 -9.968,4.228"
   style="fill:#679a45;fill-rule:nonzero"
   id="path9" />
            </g>
            <g
   transform="translate(-143.17,48.9927)"
   id="g10">
                <path
   d="m 177.709,62.08 -5.156,-20.623 -5.956,-0.297 3.258,2.995 4.589,21.21 z"
   style="fill:#679a45;fill-rule:nonzero"
   id="path10" />
            </g>
        </g>
        <g
   id="grass"
   transform="matrix(0.934115,0,0,0.934115,3.16247,-8.98627)">
            <g
   transform="translate(-6.1702,52.6016)"
   id="g11">
                <path
   d="m 10.346,70.398 -0.349,-8.456 5.704,-1.363 3.142,2.182 1.165,-3.274 3.609,0.819 1.164,-3.274 6.723,2.663 1.397,0.273 13.298,-2.936 c 0,0 8.029,6.417 8.612,6.69 0.582,0.273 19.788,-3.273 19.788,-3.273 l 3.841,-3.417 8.728,4.235 9.314,1.909 1.861,6.405 z"
   style="fill:#679a45;fill-rule:nonzero"
   id="path11" />
            </g>
            <g
   transform="translate(-6.1702,52.6016)"
   id="g12">
                <path
   d="m 13.199,68.354 3.726,-5.864 6.139,5.932 z"
   style="fill:#35813f;fill-rule:nonzero"
   id="path12" />
            </g>
            <g
   transform="translate(-6.1702,52.6016)"
   id="g13">
                <path
   d="m 30.542,68.354 2.647,-3.273 h 1.747 l 4.628,-2.661 1.133,3.069 12.048,-1.023 4.801,3.683 z"
   style="fill:#35813f;fill-rule:nonzero"
   id="path13" />
            </g>
            <g
   transform="translate(-6.1702,52.6016)"
   id="g14">
                <path
   d="m 69.42,67.943 0.697,-1.908 5.005,-0.82 1.457,-2.045 11.87,4.978 z"
   style="fill:#35813f;fill-rule:nonzero"
   id="path14" />
            </g>
        </g>
        
    </g>
<g
   id="g77"
   transform="matrix(0.54462795,0,0,0.54462795,132.71967,52.174291)"><path
     style="fill:none;fill-opacity:1"
     d="m -241.32212,195.40987 c 0,-0.73528 0.94656,-0.91276 4.86803,-0.91276 h 4.86803 v -2.12976 -2.12976 h -4.86803 -4.86803 V 89.530189 -11.177209 h 1.2361 c 0.67986,0 1.41962,-0.479197 1.6439,-1.064882 0.22429,-0.585685 1.01471,-1.959921 1.75649,-3.053858 l 1.34869,-1.988977 -1.83939,-3.566504 c -3.16479,-6.13639 -2.35994,-11.639784 2.43404,-16.643573 3.0879,-3.223042 5.54066,-3.171774 8.73151,0.182508 1.28938,1.35542 2.77691,3.477577 3.30563,4.715906 1.35382,3.170861 0.81323,8.347855 -1.27171,12.178578 -1.71877,3.157947 -1.60709,4.36191 0.57238,6.170711 0.52029,0.4318 0.94598,1.280172 0.94598,1.885269 0,0.677642 0.52583,1.174858 1.36913,1.294626 1.24403,0.17668 1.38558,0.569771 1.54906,4.3018495 l 0.17993,4.1074014 h 81.51172 81.511723 v -4.2595274 c 0,-3.8757945 0.111359,-4.2595275 1.236106,-4.2595275 0.679858,0 1.412724,-0.479197 1.62859,-1.064882 0.215866,-0.585685 1.054529,-1.946004 1.863696,-3.022931 l 1.471211,-1.958049 -1.882793,-3.767804 c -3.191558,-6.386873 -2.183715,-12.607616 2.743496,-16.933764 3.117472,-2.737177 5.554915,-2.549867 8.444865,0.648963 1.242835,1.375669 2.643832,3.420575 3.113327,4.544235 1.610494,3.854455 0.881827,9.458592 -1.714599,13.186886 -1.297682,1.863385 -1.069139,3.380869 0.758249,5.034633 0.660811,0.598025 1.201473,1.592532 1.201473,2.210016 0,0.791874 0.448267,1.122697 1.52126,1.122697 h 1.52126 V 89.530189 190.23759 h -5.172283 -5.172283 v 2.12976 2.12976 h 5.172283 c 4.191916,0 5.172283,0.17301 5.172283,0.91276 0,0.77753 -1.622677,0.91276 -10.95307,0.91276 -9.330393,0 -10.953071,-0.13523 -10.953071,-0.91276 0,-0.73528 0.946562,-0.91276 4.868032,-0.91276 h 4.868031 v -2.12976 -2.12976 h -4.868031 -4.868032 v -12.47433 -12.47433 h -81.539523 -81.53952 v 12.47433 12.47433 h -5.17229 -5.17228 v 2.12976 2.12976 h 5.17228 c 4.19192,0 5.17229,0.17301 5.17229,0.91276 0,0.77753 -1.62268,0.91276 -10.95307,0.91276 -9.3304,0 -10.95307,-0.13523 -10.95307,-0.91276 z m 16.27748,-0.14882 c -2.92843,-0.11155 -7.7204,-0.11155 -10.64882,0 -2.92843,0.11155 -0.53244,0.20281 5.32441,0.20281 5.85685,0 8.25283,-0.0913 5.32441,-0.20281 z m 184.985183,0 c -2.928425,-0.11155 -7.720393,-0.11155 -10.648818,0 -2.928425,0.11155 -0.532441,0.20281 5.324409,0.20281 5.85685,0 8.252834,-0.0913 5.324409,-0.20281 z m -190.487733,-3.95149 c -0.14555,-0.75692 -0.27016,-0.28092 -0.27691,1.05779 -0.007,1.33871 0.11233,1.95801 0.26463,1.37623 0.15231,-0.58178 0.15783,-1.67709 0.0123,-2.43402 z m 184.985191,0 c -0.14555,-0.75692 -0.270163,-0.28092 -0.276917,1.05779 -0.0068,1.33871 0.112333,1.95801 0.264637,1.37623 0.152304,-0.58178 0.15783,-1.67709 0.01228,-2.43402 z m -174.607211,-24.6515 0.15954,-22.66677 h -3.96269 -3.96268 v 1.8041 c 0,1.96773 -1.66147,3.32219 -3.30269,2.69239 -0.81945,-0.31445 -0.95683,-1.8895 -0.95683,-10.96998 0,-9.25492 0.12655,-10.65138 0.99546,-10.98481 1.69977,-0.65226 2.94771,0.68516 3.14692,3.37256 l 0.18712,2.52416 h 3.92029 3.92028 V 81.315386 30.201057 h -3.91672 -3.91672 l -0.19068,1.916271 c -0.21082,2.118727 -1.6168,3.351979 -3.15049,2.763448 -0.86933,-0.333593 -0.99546,-1.736139 -0.99546,-11.06901 0,-9.332871 0.12613,-10.735416 0.99546,-11.06901 1.78121,-0.683514 2.94882,0.681551 3.14528,3.677168 l 0.18546,2.828063 h 13.96225 13.96225 V 11.033184 2.8183811 h -9.73606 -9.73606 l -0.13549,16.2399469 c -0.0479,5.737993 -0.22803,-4.326445 -0.45638,-14.7186871 l -0.32089,-14.6040939 -10.19244,-0.166839 -10.19244,-0.166839 V 89.530189 189.65851 l 10.19244,-0.16684 10.19244,-0.16684 z M -35.343552,89.530189 V -10.264453 H -45.383866 -55.424181 L -55.74507,4.3396409 C -55.973415,14.731883 -56.155014,25.299345 -56.201448,19.56134 L -56.336937,2.8183811 h -9.43181 -9.43181 v 8.2148029 8.214803 h 13.659537 13.659538 l 0.183926,-3.194646 c 0.178653,-3.103064 0.236258,-3.194645 2.009438,-3.194645 h 1.825512 l 0.165981,10.755541 c 0.160747,10.416282 0.126237,10.768156 -1.094082,11.15547 -1.703931,0.540806 -3.027175,-0.690848 -3.027175,-2.817646 0,-1.749412 -0.0036,-1.751004 -3.955275,-1.751004 h -3.955276 v 51.114329 51.114324 h 3.921935 3.921935 l 0.185466,-2.89039 c 0.177399,-2.76466 0.264875,-2.89039 2.010979,-2.89039 h 1.825512 l 0.166125,10.41056 c 0.136093,8.52853 0.0056,10.54378 -0.721733,11.14743 -1.423763,1.18161 -3.399668,-0.21998 -3.399668,-2.41153 v -1.8041 h -3.955275 -3.955276 v 22.83361 22.83361 l 10.192441,-0.16684 10.19244,-0.16684 z M -199.94386,154.33586 v -10.34457 h -9.73606 -9.73606 v 10.34457 10.34456 h 9.73606 9.73606 z m 20.68914,0 v -10.34457 h -10.04032 -10.04031 v 10.34457 10.34456 h 10.04031 10.04032 z m 20.68913,0 v -10.34457 h -10.04032 -10.04031 v 10.34457 10.34456 h 10.04031 10.04032 z m 20.68913,0 v -10.34457 h -10.04031 -10.04032 v 10.34457 10.34456 h 10.04032 10.04031 z m 20.68913,0 v -10.34457 h -10.04031 -10.04032 v 10.34457 10.34456 h 10.04032 10.04031 z m 20.689136,0 v -10.34457 h -10.040316 -10.04031 v 10.34457 10.34456 h 10.04031 10.040316 z m 20.689133,0 V 143.99129 H -85.849376 -95.88969 v 10.34457 10.34456 h 10.040314 10.040315 z m 19.472124,0 v -10.34457 h -9.43181 -9.43181 v 10.34457 10.34456 h 9.43181 9.43181 z m -173.271483,-7.09655 c -0.41835,-0.1688 -1.10292,-0.1688 -1.52126,0 -0.41835,0.16881 -0.0761,0.30692 0.76063,0.30692 0.83669,0 1.17897,-0.13811 0.76063,-0.30692 z m 184.668255,0.0354 c -0.202201,-0.2022 -0.727036,-0.22381 -1.1663,-0.048 -0.485423,0.19426 -0.341234,0.33844 0.367638,0.36764 0.641465,0.0264 1.000862,-0.11739 0.798662,-0.3196 z M -228.54354,145.2083 c 0,-0.89248 -0.40567,-1.21701 -1.52126,-1.21701 -1.11559,0 -1.52126,0.32453 -1.52126,1.21701 0,0.89247 0.40567,1.217 1.52126,1.217 1.11559,0 1.52126,-0.32453 1.52126,-1.217 z m 184.376682,0 c 0,-0.89248 -0.40567,-1.21701 -1.52126,-1.21701 -1.115591,0 -1.52126,0.32453 -1.52126,1.21701 0,0.89247 0.405669,1.217 1.52126,1.217 1.11559,0 1.52126,-0.32453 1.52126,-1.217 z m 0,-6.9978 v -5.17228 h -93.709602 -93.7096 v 5.17228 5.17228 h 93.7096 93.709602 z m -184.376682,-7.6063 c 0,-1.54154 -0.23664,-1.82551 -1.52126,-1.82551 -1.28462,0 -1.52126,0.28397 -1.52126,1.82551 0,1.54155 0.23664,1.82551 1.52126,1.82551 1.28462,0 1.52126,-0.28396 1.52126,-1.82551 z m 28.59968,-49.288814 V 30.201057 h -9.73606 -9.73606 v 51.114329 51.114324 h 9.73606 9.73606 z m 20.68914,0 V 30.201057 h -10.04032 -10.04031 v 51.114329 51.114324 h 10.04031 10.04032 z m 20.68913,0 V 30.201057 h -10.04032 -10.04031 v 51.114329 51.114324 h 10.04031 10.04032 z m 20.68913,0 V 30.201057 h -10.04031 -10.04032 v 51.114329 51.114324 h 10.04032 10.04031 z m 20.68913,0 V 30.201057 h -10.04031 -10.04032 v 51.114329 51.114324 h 10.04032 10.04031 z m 20.689136,0 V 30.201057 h -10.040316 -10.04031 v 51.114329 51.114324 h 10.04031 10.040316 z m 20.689133,0 V 30.201057 H -85.849376 -95.88969 v 51.114329 51.114324 h 10.040314 10.040315 z m 19.472124,0 V 30.201057 h -9.43181 -9.43181 v 51.114329 51.114324 h 9.43181 9.43181 z m 12.170079,49.288814 c 0,-1.54154 -0.236641,-1.82551 -1.52126,-1.82551 -1.28462,0 -1.52126,0.28397 -1.52126,1.82551 0,1.54155 0.23664,1.82551 1.52126,1.82551 1.284619,0 1.52126,-0.28396 1.52126,-1.82551 z m -185.471992,-3.16422 c -0.56793,-0.56793 -0.89247,-0.56793 -1.46041,0 -0.56793,0.56794 -0.40567,0.73021 0.73021,0.73021 1.13587,0 1.29814,-0.16227 0.7302,-0.73021 z m 185.16774,0.1217 c -0.206842,-0.33467 -0.754496,-0.6085 -1.217008,-0.6085 -0.462513,0 -1.010166,0.27383 -1.217008,0.6085 -0.214138,0.34649 0.309904,0.60851 1.217008,0.60851 0.907104,0 1.431146,-0.26202 1.217008,-0.60851 z M -229.4563,33.852081 c 0.20971,-0.339318 -0.24548,-0.604382 -1.02897,-0.599186 -1.13038,0.0075 -1.22661,0.124628 -0.49229,0.599186 1.13227,0.731725 1.06903,0.731725 1.52126,0 z m 184.516135,-0.367638 c -0.202201,-0.202201 -0.727036,-0.223819 -1.1663,-0.04804 -0.485423,0.194251 -0.341234,0.338439 0.367638,0.367638 0.641465,0.02642 1.000862,-0.117397 0.798662,-0.319598 z M -228.54354,31.418065 c 0,-0.892472 -0.40567,-1.217008 -1.52126,-1.217008 -1.11559,0 -1.52126,0.324536 -1.52126,1.217008 0,0.892472 0.40567,1.217008 1.52126,1.217008 1.11559,0 1.52126,-0.324536 1.52126,-1.217008 z m 184.376682,0 c 0,-0.892472 -0.40567,-1.217008 -1.52126,-1.217008 -1.115591,0 -1.52126,0.324536 -1.52126,1.217008 0,0.892472 0.405669,1.217008 1.52126,1.217008 1.11559,0 1.52126,-0.324536 1.52126,-1.217008 z m 0,-6.693543 v -4.868031 h -93.709602 -93.7096 v 4.868031 4.868031 h 93.7096 93.709602 z M -228.54354,17.118223 c 0,-1.866079 -0.18835,-2.129764 -1.52126,-2.129764 -1.33291,0 -1.52126,0.263685 -1.52126,2.129764 0,1.866079 0.18835,2.129764 1.52126,2.129764 1.33291,0 1.52126,-0.263685 1.52126,-2.129764 z m 49.28882,-6.085039 V 2.8183811 h -10.04032 -10.04031 v 8.2148029 8.214803 h 10.04031 10.04032 z m 20.68913,0 V 2.8183811 h -10.04032 -10.04031 v 8.2148029 8.214803 h 10.04031 10.04032 z m 20.68913,0 V 2.8183811 h -10.04031 -10.04032 v 8.2148029 8.214803 h 10.04032 10.04031 z m 20.68913,0 V 2.8183811 h -10.04031 -10.04032 v 8.2148029 8.214803 h 10.04032 10.04031 z m 20.689136,0 V 2.8183811 h -10.040316 -10.04031 v 8.2148029 8.214803 h 10.04031 10.040316 z m 20.689133,0 V 2.8183811 H -85.849376 -95.88969 v 8.2148029 8.214803 h 10.040314 10.040315 z m 31.642203,6.085039 c 0,-1.866079 -0.188347,-2.129764 -1.52126,-2.129764 -1.332914,0 -1.52126,0.263685 -1.52126,2.129764 0,1.866079 0.188346,2.129764 1.52126,2.129764 1.332913,0 1.52126,-0.263685 1.52126,-2.129764 z M -229.63885,13.649751 c -0.56793,-0.567937 -0.89247,-0.567937 -1.46041,0 -0.56793,0.567937 -0.40567,0.730204 0.73021,0.730204 1.13587,0 1.29814,-0.162267 0.7302,-0.730204 z m 185.16774,0.121701 c -0.206842,-0.334678 -0.770656,-0.608504 -1.25292,-0.608504 -0.482264,0 -0.876844,0.273826 -0.876844,0.608504 0,0.334677 0.563814,0.608503 1.25292,0.608503 0.689106,0 1.083685,-0.273826 0.876844,-0.608503 z M -56.336937,0.08011352 V -2.0496502 h -81.539523 -81.53952 V 0.08011352 2.2098772 h 81.53952 81.539523 z M -223.37126,-11.785713 c 0.24282,-0.392882 -2.23683,-0.608504 -6.99779,-0.608504 -4.76096,0 -7.24061,0.215622 -6.9978,0.608504 0.21344,0.345351 3.2397,0.608504 6.9978,0.608504 3.75809,0 6.78435,-0.263153 6.99779,-0.608504 z m 184.985189,0 c 0.242814,-0.392882 -2.236833,-0.608504 -6.997795,-0.608504 -4.760962,0 -7.24061,0.215622 -6.997795,0.608504 0.213438,0.345351 3.239702,0.608504 6.997795,0.608504 3.758092,0 6.784356,-0.263153 6.997795,-0.608504 z m -186.462279,-2.820329 c -1.61495,-2.053074 -1.58397,-2.922699 0.23163,-6.501244 2.99574,-5.904621 2.4784,-10.466605 -1.75491,-15.474961 -3.27075,-3.869575 -8.41106,-1.881788 -10.96438,4.239983 -0.51898,1.24429 -0.94359,3.180755 -0.94359,4.303255 0,2.535792 1.62019,7.414828 2.78262,8.379558 1.22349,1.015409 1.07903,2.82628 -0.39004,4.88941 l -1.25845,1.76732 h 6.77915 6.77914 z m 184.985184,0 c -1.631316,-2.073883 -1.589355,-3.171767 0.244502,-6.397243 3.019547,-5.310924 2.588139,-10.530408 -1.240029,-15.002761 -1.859087,-2.171926 -2.533468,-2.553839 -4.509554,-2.553839 -1.898306,0 -2.66944,0.393933 -4.213409,2.152417 -4.134614,4.709065 -4.703806,9.108858 -1.894957,14.647815 2.166652,4.272568 2.202145,4.704182 0.574776,6.989612 l -1.258443,1.76732 h 6.779143 6.779144 z"
     id="path16"
     sodipodi:nodetypes="sscccccccssscssssssssscccsssscsssssssscccccccssssscccccccccccccccsssssssscsscscsssscssccccssssscccccccssssscccccccssccccccccccccsscccccccsscsssscccccsscscsccccccccccccccccccccccccccccccccccccccccccccccccccccccccccccccccccccccccccccccccssssssssssssssssssscccccccccsssssccccccccccccccccccccccccccccccccccccccccccccccccccccccccccccccccccccccccsssssssssssssssssssssssssssssssscccccccccsssssccccccccccccccccccccccccccccccccccccccccccccccccccccccsssssssssssssscccccccccssssssssssssssssscccsssssssscccs" /><path
     style="fill:#537953;fill-opacity:1;stroke-width:0.604615;stroke-linejoin:round"
     d="m -236.45723,-13.235521 c 0,-0.13083 0.44908,-0.974427 0.99795,-1.874661 1.32246,-2.16903 1.27393,-2.718164 -0.55329,-6.261075 -2.64133,-5.121441 -2.45788,-9.383706 0.58468,-13.583828 0.85621,-1.181975 2.3328,-2.449658 3.34687,-2.873363 1.62496,-0.678951 1.98297,-0.677971 3.42435,0.0094 1.82978,0.872561 4.24966,4.145678 5.18421,7.012127 0.82562,2.532349 0.41198,5.268816 -1.46216,9.672972 -0.83843,1.970283 -1.52442,3.788231 -1.52442,4.039884 0,0.251653 0.55562,1.2763 1.23471,2.276994 l 1.23471,1.819445 h -6.23381 c -3.42859,0 -6.2338,-0.107043 -6.2338,-0.237872 z"
     id="path18" /><path
     style="fill:#537953;fill-opacity:1;stroke-width:0.604615;stroke-linejoin:round"
     d="m -51.490687,-13.293731 c 0,-0.162845 0.449919,-0.868061 0.999819,-1.567146 1.343169,-1.707562 1.268895,-2.605176 -0.560459,-6.773191 -2.608744,-5.943785 -2.447487,-8.793837 0.751607,-13.283915 2.906007,-4.078719 5.959878,-4.492034 8.852036,-1.198048 3.919809,4.464416 4.406355,8.636735 1.704872,14.619919 -0.962326,2.131338 -1.749683,4.096654 -1.749683,4.367367 0,0.270714 0.555618,1.310957 1.234708,2.311651 l 1.234708,1.819445 h -6.233804 c -3.428592,0 -6.233804,-0.133237 -6.233804,-0.296082 z"
     id="path19" /><path
     style="fill:#537953;fill-opacity:1;stroke-width:0.604615;stroke-linejoin:round"
     d="m -231.45814,24.745524 v -4.749141 h 93.4831 93.483087 v 4.749141 4.749141 h -93.483087 -93.4831 z"
     id="path20" /><path
     style="fill:#537953;fill-opacity:1;stroke-width:0.604615;stroke-linejoin:round"
     d="m -231.45814,138.225 v -4.74914 h 93.4831 93.483087 v 4.74914 4.74914 h -93.483087 -93.4831 z"
     id="path21" /><path
     style="fill:#537953;fill-opacity:1;stroke-width:0.0657122;stroke-linejoin:round"
     d="m -232.35228,-11.224564 c -3.2252,-0.120736 -5.0494,-0.355023 -4.95713,-0.636658 0.10579,-0.32289 2.44728,-0.487292 6.94027,-0.487292 3.87513,0 5.99197,0.110758 6.70588,0.350868 0.78006,0.262357 -0.38932,0.532864 -3.01129,0.696585 -0.9164,0.05722 -4.79622,0.109496 -5.67773,0.0765 z"
     id="path22" /><path
     style="fill:#537953;fill-opacity:1;stroke-width:0.105683;stroke-linejoin:round"
     d="m -48.103343,-11.271493 c -4.58501,-0.192038 -5.603782,-0.706938 -1.914529,-0.967626 0.931308,-0.06581 2.872972,-0.08513 5.602078,-0.05576 3.954953,0.04257 5.200594,0.114378 5.77258,0.332767 0.220268,0.0841 0.22706,0.100228 0.08587,0.203941 -0.517709,0.380301 -5.735059,0.646292 -9.546002,0.486674 z"
     id="path23" /><path
     style="fill:#537953;fill-opacity:1;stroke-width:0.0882215;stroke-linejoin:round"
     d="M -55.655928,45.002868 V 30.26497 l 3.483055,0.02154 c 3.064767,0.01895 3.515222,0.03614 3.750919,0.143096 0.438611,0.199044 0.514653,0.388989 0.573899,1.433539 0.02886,0.50874 0.09267,1.072509 0.141803,1.252819 0.3055,1.12107 1.063576,1.770452 2.080062,1.781818 0.665208,0.0074 1.163622,-0.141566 1.457905,-0.435849 0.465525,-0.465525 0.547131,-1.299338 0.545754,-5.576285 -7.69e-4,-2.38883 -0.177238,-15.571834 -0.214641,-16.034626 -10e-4,-0.01293 -0.684567,-0.01293 -1.518937,0 -1.321487,0.02049 -1.543233,0.0407 -1.720266,0.156842 -0.421799,0.276713 -0.512259,0.727616 -0.662652,3.303044 -0.063,1.078799 -0.132979,2.166608 -0.155517,2.417351 l -0.04098,0.455897 h -4.042561 -4.042561 l 9e-4,-0.382953 c 4.96e-4,-0.210625 0.06441,-3.238694 0.142027,-6.729043 0.07762,-3.4903485 0.209773,-9.6941973 0.293676,-13.7863304 0.0839,-4.0921331 0.170502,-7.6782203 0.192443,-7.9690827 l 0.03989,-0.5288409 h 9.987042 9.987043 v 34.976432 34.976431 h -10.139153 -10.139154 z"
     id="path24" /><path
     style="fill:#537953;fill-opacity:1;stroke-width:0.0882215;stroke-linejoin:round"
     d="m -46.670025,19.036396 c -0.408734,-0.249198 -0.479159,-0.528117 -0.478386,-1.894662 7.59e-4,-1.341246 0.07189,-1.671245 0.415181,-1.926037 0.180351,-0.133859 0.307657,-0.152854 1.024418,-0.152854 1.361615,0 1.46855,0.151377 1.46855,2.078891 0,1.873835 -0.121516,2.042658 -1.469895,2.042147 -0.591858,-2.25e-4 -0.760946,-0.02621 -0.959868,-0.147485 z"
     id="path25" /><path
     style="fill:#537953;fill-opacity:1;stroke-width:0.0882215;stroke-linejoin:round"
     d="m -45.899773,14.266805 c -0.679696,-0.18286 -0.830212,-0.575844 -0.346437,-0.904512 0.214076,-0.145439 0.316931,-0.167306 0.636942,-0.135413 0.455712,0.04542 0.944023,0.301854 1.081676,0.568046 0.08856,0.171252 0.08433,0.206307 -0.03829,0.317274 -0.140006,0.126704 -0.576142,0.256805 -0.841477,0.251016 -0.08024,-0.0018 -0.301824,-0.04514 -0.492414,-0.09641 z"
     id="path26" /><path
     style="fill:#537953;fill-opacity:1;stroke-width:0.0882215;stroke-linejoin:round"
     d="m -46.355625,32.542665 c -0.587361,-0.154208 -0.798109,-0.462136 -0.794248,-1.160494 0.0045,-0.820769 0.384636,-1.1113 1.45074,-1.108883 1.094822,0.0025 1.495496,0.307948 1.495229,1.139934 -1.43e-4,0.44515 -0.18567,0.819201 -0.494858,0.997702 -0.265282,0.153155 -1.270782,0.233104 -1.656863,0.131741 z"
     id="path27" /><path
     style="fill:#537953;fill-opacity:1;stroke-width:0.0280877;stroke-linejoin:round"
     d="m -46.074088,33.764427 c -0.184184,-0.02792 -0.308054,-0.08325 -0.298413,-0.133309 0.01797,-0.09331 0.311931,-0.221496 0.637784,-0.278115 0.17352,-0.03015 0.245846,-0.03229 0.390024,-0.01152 0.203238,0.02928 0.370825,0.107266 0.425287,0.197907 0.03511,0.05843 0.03483,0.06583 -0.0042,0.108929 -0.08404,0.09286 -0.234152,0.124283 -0.629353,0.131751 -0.204367,0.0039 -0.438883,-0.0032 -0.521148,-0.01565 z"
     id="path28" /><path
     style="fill:#537953;fill-opacity:1;stroke-width:0.0280877;stroke-linejoin:round"
     d="m -230.66654,19.204564 c -0.53088,-0.08233 -0.74797,-0.316886 -0.85012,-0.918482 -0.0431,-0.253738 -0.0663,-1.152065 -0.044,-1.699141 0.0442,-1.081885 0.19658,-1.39044 0.75588,-1.530939 0.20901,-0.05251 1.21806,-0.06001 1.43762,-0.0107 0.44931,0.100925 0.64405,0.32213 0.7454,0.846686 0.0496,0.25653 0.0729,1.73146 0.034,2.14568 -0.0689,0.733137 -0.23797,1.002933 -0.71144,1.135512 -0.16147,0.04521 -1.13421,0.06754 -1.36735,0.03138 z"
     id="path29" /><path
     style="fill:#537953;fill-opacity:1;stroke-width:0.0280877;stroke-linejoin:round"
     d="m -230.84182,14.354251 c -0.62676,-0.05632 -0.70346,-0.199633 -0.32668,-0.610393 0.39379,-0.429315 0.7062,-0.573743 1.00064,-0.462601 0.24009,0.09063 0.69157,0.507368 0.80218,0.740453 0.0749,0.157847 -0.0194,0.252619 -0.30408,0.305502 -0.17794,0.03306 -0.91569,0.05008 -1.17206,0.02704 z"
     id="path30" /><path
     style="fill:#537953;fill-opacity:1;stroke-width:0.0280877;stroke-linejoin:round"
     d="m -230.47627,32.605504 c -0.57004,-0.06562 -0.88649,-0.264819 -1.01882,-0.641331 -0.0601,-0.170874 -0.088,-0.494663 -0.0645,-0.745953 0.0429,-0.456678 0.18595,-0.688783 0.52142,-0.845769 0.25153,-0.117704 0.43226,-0.144605 0.9743,-0.14502 0.42789,-3.27e-4 0.513,0.006 0.69404,0.05137 0.47123,0.118162 0.69773,0.340108 0.78147,0.765762 0.0443,0.225223 0.019,0.751755 -0.0439,0.913452 -0.13929,0.358076 -0.35018,0.518382 -0.80573,0.612479 -0.21694,0.04481 -0.78641,0.06401 -1.03833,0.03501 z"
     id="path31" /><path
     style="fill:#537953;fill-opacity:1;stroke-width:0.0280877;stroke-linejoin:round"
     d="m -230.11027,34.35511 c -0.24968,-0.104078 -1.11756,-0.672234 -1.24876,-0.817494 -0.15515,-0.171776 -0.0643,-0.221554 0.47631,-0.260897 0.69093,-0.05029 1.21948,0.04837 1.39841,0.261016 0.0929,0.110438 0.0798,0.201385 -0.0624,0.433379 -0.23666,0.385913 -0.35898,0.469263 -0.56352,0.383996 z"
     id="path32" /><path
     style="fill:#537953;fill-opacity:1;stroke-width:0.0280877;stroke-linejoin:round"
     d="m -230.38007,146.39988 c -0.68224,-0.0491 -1.01851,-0.27145 -1.14795,-0.75897 -0.0481,-0.18133 -0.0481,-0.69052 8e-5,-0.87198 0.14638,-0.55134 0.54792,-0.75969 1.46411,-0.75969 0.92198,0 1.33196,0.21616 1.46284,0.77127 0.0397,0.16834 0.0464,0.62534 0.0119,0.80729 -0.0856,0.45118 -0.39537,0.71236 -0.93307,0.78662 -0.25734,0.0355 -0.58348,0.0452 -0.85795,0.0255 z"
     id="path33" /><path
     style="fill:#537953;fill-opacity:1;stroke-width:0.0280877;stroke-linejoin:round"
     d="m -230.8465,147.51562 c -0.55129,-0.0636 -0.57986,-0.19622 -0.0703,-0.32653 0.46778,-0.11964 1.20738,-0.0524 1.41586,0.1287 0.058,0.0504 0.0607,0.0593 0.0283,0.0923 -0.0638,0.065 -0.34001,0.10637 -0.77695,0.1165 -0.22991,0.005 -0.4985,4e-4 -0.59688,-0.0109 z"
     id="path34" /><path
     style="fill:#537953;fill-opacity:1;stroke-width:0.0280877;stroke-linejoin:round"
     d="m -230.54372,132.398 c -0.6276,-0.0799 -0.86298,-0.28807 -0.97219,-0.85997 -0.0732,-0.38307 -0.0671,-1.51594 0.0101,-1.91232 0.0958,-0.49105 0.32039,-0.7068 0.82762,-0.79488 0.28408,-0.0493 1.13592,-0.0352 1.36401,0.0226 0.40226,0.10193 0.59511,0.31869 0.69423,0.78031 0.0604,0.28108 0.0612,1.65633 10e-4,1.93723 -0.0443,0.20718 -0.14103,0.42982 -0.23517,0.54113 -0.0811,0.0959 -0.3059,0.20606 -0.51319,0.25154 -0.19138,0.042 -0.94406,0.064 -1.1766,0.0344 z"
     id="path35" /><path
     style="fill:#537953;fill-opacity:1;stroke-width:0.0280877;stroke-linejoin:round"
     d="m -230.7257,128.14355 c -0.75534,-0.0347 -0.8469,-0.1775 -0.40982,-0.63925 0.41232,-0.43558 0.70519,-0.5553 1.01063,-0.41312 0.16132,0.0751 0.38475,0.25375 0.55944,0.4473 0.26588,0.29459 0.29539,0.43439 0.10909,0.5168 -0.19547,0.0865 -0.63817,0.11725 -1.26934,0.0883 z"
     id="path36" /><path
     style="fill:#537953;fill-opacity:1;stroke-width:0.207463;stroke-linejoin:round"
     d="m -46.224182,132.27357 c -0.69439,-0.14605 -0.978187,-0.74541 -0.895962,-1.89223 0.08703,-1.21386 0.540231,-1.63273 1.633261,-1.50953 0.935985,0.1055 1.076963,0.24966 1.185456,1.21221 0.131296,1.16485 -0.06557,1.95811 -0.518172,2.088 -0.681161,0.19547 -0.887197,0.21037 -1.404583,0.10155 z"
     id="path37" /><path
     style="fill:#537953;fill-opacity:1;stroke-width:0.0277208;stroke-linejoin:round"
     d="m -46.138329,146.39212 c -0.759163,-0.0981 -1.053533,-0.43141 -1.053533,-1.19276 0,-0.67351 0.240077,-1.0004 0.835791,-1.13803 0.254729,-0.0588 1.085904,-0.0601 1.338675,-0.002 0.592276,0.13603 0.827744,0.45682 0.828477,1.12867 5.18e-4,0.47539 -0.07553,0.7061 -0.301824,0.9156 -0.141864,0.13134 -0.283724,0.19775 -0.547418,0.25625 -0.17686,0.0392 -0.885735,0.0601 -1.100168,0.0324 z"
     id="path38" /><path
     style="fill:#537953;fill-opacity:1;stroke-width:0.0277208;stroke-linejoin:round"
     d="m -46.053041,147.55727 c -0.355789,-0.0458 -0.409176,-0.13815 -0.154049,-0.26656 0.440009,-0.22145 1.053099,-0.22112 1.256954,6.9e-4 0.102998,0.11207 0.01932,0.2028 -0.237006,0.25696 -0.175861,0.0372 -0.611468,0.0417 -0.865899,0.009 z"
     id="path39" /><path
     style="fill:#537953;fill-opacity:1;stroke-width:0.0277208;stroke-linejoin:round"
     d="m -45.874747,128.1541 c -0.237472,-0.0119 -0.496562,-0.0551 -0.682286,-0.11381 -0.214775,-0.0678 -0.383503,-0.20747 -0.383503,-0.31735 0,-0.17143 0.237473,-0.41435 0.561545,-0.57442 0.257647,-0.12727 0.452251,-0.17715 0.687605,-0.17626 0.453619,0.002 0.93878,0.2333 1.183235,0.56481 0.167982,0.22781 0.01319,0.42421 -0.424742,0.53891 -0.218666,0.0573 -0.64789,0.0929 -0.941854,0.0781 z"
     id="path40" /><path
     style="fill:#537953;fill-opacity:1;stroke-width:0.0829709;stroke-linejoin:round"
     d="M -55.704989,85.958561 V 59.752519 h 10.153126 10.153126 V 85.958561 112.1646 h -10.153126 -10.153126 z"
     id="path41" /><path
     style="fill:#537953;fill-opacity:1;stroke-width:0.210203;stroke-linejoin:round"
     d="m -55.616285,166.86199 v -22.78105 h 3.798784 3.798785 l 0.09347,1.36372 c 0.10153,1.4813 0.397024,2.23458 1.090593,2.78014 1.01991,0.80226 2.452984,0.52836 2.885749,-0.55155 0.277124,-0.69153 0.412685,-10.40029 0.234215,-16.77427 l -0.123339,-4.40502 -1.559573,0.06 c -2.227884,0.0857 -2.146547,-0.0565 -2.4949,4.36156 l -0.106204,1.34696 h -3.808791 -3.808791 v -9.99355 -9.99355 h 10.080451 10.080452 v 38.47653 38.47654 l -6.908585,0.1069 c -3.799722,0.0588 -8.335926,0.15207 -10.080452,0.20729 l -3.171866,0.1004 z"
     id="path42" /><path
     style="fill:#537953;fill-opacity:1;stroke-width:0.137361;stroke-linejoin:round"
     d="m -240.66159,37.245819 v -47.8205 l 3.09487,0.06759 c 3.91709,0.08554 15.42377,0.285507 16.42921,0.285507 h 0.7584 l 0.25739,11.9535782 c 0.14157,6.5744681 0.2881,13.1929458 0.32561,14.7077278 l 0.0682,2.75415 h -4.03936 -4.03936 l -0.0706,-1.107338 c -0.18034,-2.827696 -0.34615,-3.666067 -0.918,-4.641871 -0.35225,-0.601064 -1.12009,-1.007679 -1.73774,-0.920224 -1.06066,0.150184 -1.26503,0.409921 -1.49585,1.901146 -0.18974,1.225788 -0.28594,13.618067 -0.1293,16.655876 0.1479,2.868239 0.3003,3.49893 0.92312,3.820195 0.54356,0.280379 1.33442,0.20307 1.92574,-0.188249 0.85979,-0.56898 1.22148,-1.511036 1.43453,-3.736316 l 0.0734,-0.766619 h 3.84826 3.84826 V 57.638394 85.06632 h -10.27838 -10.27837 z"
     id="path43" /><path
     style="fill:#537953;fill-opacity:1;stroke-width:0.137361;stroke-linejoin:round"
     d="M -240.66159,74.049721 V -1.5900247 h 10.22159 10.22158 v 0.97162673 c 0,1.33620655 0.31512,15.56613797 0.39661,17.90991597 l 0.0661,1.902351 h -3.97414 -3.97414 l -0.0566,-0.369113 c -0.0311,-0.203012 -0.0883,-0.880192 -0.12694,-1.504844 -0.22665,-3.658481 -1.06634,-5.040875 -2.9116,-4.793374 -0.57169,0.07668 -0.92782,0.402644 -1.1156,1.021113 -0.24147,0.795307 -0.33187,3.663433 -0.33547,10.643439 -0.003,6.437443 0.0787,8.764516 0.34659,9.828238 0.18129,0.719972 0.63104,1.074788 1.36234,1.074788 1.52071,0 2.33449,-1.036226 2.60734,-3.320056 0.0692,-0.578881 0.14784,-1.167505 0.17485,-1.308051 l 0.0491,-0.25554 h 3.80254 3.80254 v 51.107936 51.107935 h -3.85089 -3.85089 l -0.0735,-1.10734 c -0.0987,-1.48544 -0.27274,-2.68107 -0.47322,-3.25042 -0.42134,-1.19656 -1.30568,-1.8664 -2.28653,-1.73197 -1.18024,0.16178 -1.34311,0.58953 -1.5187,3.98863 -0.15232,2.94877 -0.0582,15.15076 0.127,16.46401 0.21765,1.54329 0.51515,1.87806 1.669,1.87806 0.64192,0 1.14037,-0.21307 1.61963,-0.69233 0.6201,-0.6201 0.81285,-1.20117 0.8851,-2.66831 l 0.0638,-1.29586 h 3.84461 3.84462 v 2.83933 2.83933 h -10.27838 -10.27837 z"
     id="path44" /><path
     style="fill:#537953;fill-opacity:1;stroke-width:0.137361;stroke-linejoin:round"
     d="M -240.66159,74.049721 V -1.5900247 h 10.22159 10.22158 v 0.91484013 c 0,1.29675259 0.31722,15.55761457 0.39839,17.90991657 l 0.0676,1.959137 h -3.97576 -3.97576 l -0.0576,-0.369113 c -0.0317,-0.203012 -0.0897,-0.880192 -0.12886,-1.504844 -0.20823,-3.31888 -0.87903,-4.67878 -2.36884,-4.802327 -0.67847,-0.05626 -1.22393,0.159673 -1.44715,0.572901 -0.4304,0.796745 -0.45911,1.31511 -0.51734,9.340219 -0.0707,9.745123 0.0422,11.700227 0.71222,12.329666 0.32695,0.30715 1.2068,0.419163 1.78739,0.227552 0.57643,-0.190239 1.27616,-0.998578 1.49634,-1.728585 0.1007,-0.333875 0.23507,-1.041463 0.29861,-1.572418 0.0635,-0.530954 0.13886,-1.080365 0.1674,-1.220911 l 0.0519,-0.25554 h 3.80254 3.80254 v 51.107936 51.107935 h -3.79956 -3.79955 l -0.0569,-0.36911 c -0.0313,-0.20301 -0.0887,-0.80353 -0.12762,-1.33449 -0.17188,-2.34459 -0.53497,-3.41099 -1.38114,-4.05639 -0.35878,-0.27365 -0.51759,-0.31617 -1.18084,-0.31617 -1.26836,0 -1.48543,0.36748 -1.69238,2.86515 -0.1374,1.65816 -0.14012,13.87651 -0.004,16.27193 0.11119,1.95134 0.23282,2.51178 0.63165,2.91062 0.22809,0.22809 0.38236,0.26943 1.00542,0.26943 0.88352,0 1.15943,-0.0943 1.72248,-0.58865 0.62258,-0.54663 0.84083,-1.14056 0.96337,-2.62174 0.0581,-0.70166 0.10639,-1.31408 0.1074,-1.36093 10e-4,-0.0469 1.71397,-0.0852 3.80655,-0.0852 h 3.80471 v 2.83933 2.83933 h -10.27838 -10.27837 z"
     id="path45" /><path
     style="fill:#537953;fill-opacity:1;stroke-width:0.137361;stroke-linejoin:round"
     d="m -240.66159,169.63993 v -19.95046 h 10.29603 10.29603 l -0.0741,6.67242 c -0.0408,3.66983 -0.10778,12.58 -0.14894,19.80038 l -0.0748,13.12795 -5.12148,0.0752 c -2.81681,0.0413 -7.383,0.10888 -10.14709,0.15009 l -5.02561,0.0749 z"
     id="path46" /><path
     style="fill:#537953;fill-opacity:1;stroke-width:0.594045;stroke-linejoin:round"
     d="m -219.06198,0 v -1.9646814 h 81.2887 81.288689 V 0 1.9646814 h -81.288689 -81.2887 z"
     id="path47" /><path
     style="fill:#b3733e;fill-opacity:1;stroke-width:0.594045;stroke-linejoin:round"
     d="M -219.06198,11.051333 V 2.9470221 h 9.33224 9.33224 v 8.1043109 8.104311 h -9.33224 -9.33224 z"
     id="path48" /><path
     style="fill:#b3733e;fill-opacity:1;stroke-width:0.594045;stroke-linejoin:round"
     d="M -219.06198,11.051333 V 2.9470221 h 9.33224 9.33224 v 8.1043109 8.104311 h -9.33224 -9.33224 z"
     id="path49" /><path
     style="fill:#b3733e;fill-opacity:1;stroke-width:0.594045;stroke-linejoin:round"
     d="M -219.06198,81.288694 V 30.452562 h 9.33224 9.33224 v 50.836132 50.836136 h -9.33224 -9.33224 z"
     id="path50" /><path
     style="fill:#b3733e;fill-opacity:1;stroke-width:0.594045;stroke-linejoin:round"
     d="m -219.06198,154.47308 v -10.069 h 9.33224 9.33224 v 10.069 10.06899 h -9.33224 -9.33224 z"
     id="path51" /><path
     style="fill:#c18e58;fill-opacity:1;stroke-width:0.594045;stroke-linejoin:round"
     d="M -198.92399,11.051333 V 2.9470221 h 9.8234 9.82341 v 8.1043109 8.104311 h -9.82341 -9.8234 z"
     id="path52" /><path
     style="fill:#c18e58;fill-opacity:1;stroke-width:0.594045;stroke-linejoin:round"
     d="M -198.92399,81.288694 V 30.452562 h 9.8234 9.82341 v 50.836132 50.836136 h -9.82341 -9.8234 z"
     id="path53" /><path
     style="fill:#c18e58;fill-opacity:1;stroke-width:0.594045;stroke-linejoin:round"
     d="m -198.92399,154.47308 v -10.069 h 9.8234 9.82341 v 10.069 10.06899 h -9.82341 -9.8234 z"
     id="path54" /><path
     style="fill:#bf8c57;fill-opacity:1;stroke-width:0.594045;stroke-linejoin:round"
     d="M -178.29484,11.051333 V 2.9470221 h 9.82341 9.82341 v 8.1043109 8.104311 h -9.82341 -9.82341 z"
     id="path55" /><path
     style="fill:#bf8c57;fill-opacity:1;stroke-width:0.594045;stroke-linejoin:round"
     d="M -178.29484,81.288694 V 30.452562 h 9.82341 9.82341 v 50.836132 50.836136 h -9.82341 -9.82341 z"
     id="path56" /><path
     style="fill:#bf8c57;fill-opacity:1;stroke-width:0.594045;stroke-linejoin:round"
     d="m -178.29484,154.47308 v -10.069 h 9.82341 9.82341 v 10.069 10.06899 h -9.82341 -9.82341 z"
     id="path57" /><path
     style="fill:#bf8a5b;fill-opacity:1;stroke-width:0.594045;stroke-linejoin:round"
     d="M -157.66568,11.051333 V 2.9470221 h 9.8234 9.82341 v 8.1043109 8.104311 h -9.82341 -9.8234 z"
     id="path58" /><path
     style="fill:#bf8a5b;fill-opacity:1;stroke-width:0.594045;stroke-linejoin:round"
     d="M -157.66568,11.051333 V 2.9470221 h 9.8234 9.82341 v 8.1043109 8.104311 h -9.82341 -9.8234 z"
     id="path59" /><path
     style="fill:#bf8a5b;fill-opacity:1;stroke-width:0.594045;stroke-linejoin:round"
     d="M -157.66568,81.288694 V 30.452562 h 9.8234 9.82341 v 50.836132 50.836136 h -9.82341 -9.8234 z"
     id="path60" /><path
     style="fill:#bf8a5b;fill-opacity:1;stroke-width:0.594045;stroke-linejoin:round"
     d="m -157.66568,154.47308 v -10.069 h 9.8234 9.82341 v 10.069 10.06899 h -9.82341 -9.8234 z"
     id="path61" /><path
     style="fill:#a86f41;fill-opacity:1;stroke-width:0.594045;stroke-linejoin:round"
     d="M -137.03653,11.051333 V 2.9470221 h 9.82341 9.82341 v 8.1043109 8.104311 h -9.82341 -9.82341 z"
     id="path62" /><path
     style="fill:#a86f41;fill-opacity:1;stroke-width:0.594045;stroke-linejoin:round"
     d="M -137.03653,81.288694 V 30.452562 h 9.82341 9.82341 v 50.836132 50.836136 h -9.82341 -9.82341 z"
     id="path63" /><path
     style="fill:#a86f41;fill-opacity:1;stroke-width:0.594045;stroke-linejoin:round"
     d="m -137.03653,154.47308 v -10.069 h 9.82341 9.82341 v 10.069 10.06899 h -9.82341 -9.82341 z"
     id="path64" /><path
     style="fill:#9f6130;fill-opacity:1;stroke-width:0.594045;stroke-linejoin:round"
     d="M -116.40737,11.051333 V 2.9470221 h 9.8234 9.82341 v 8.1043109 8.104311 h -9.82341 -9.8234 z"
     id="path65" /><path
     style="fill:#9f6130;fill-opacity:1;stroke-width:0.594045;stroke-linejoin:round"
     d="M -116.40737,81.288694 V 30.452562 h 9.8234 9.82341 v 50.836132 50.836136 h -9.82341 -9.8234 z"
     id="path66" /><path
     style="fill:#9f6130;fill-opacity:1;stroke-width:0.594045;stroke-linejoin:round"
     d="m -116.40737,154.47308 v -10.069 h 9.8234 9.82341 v 10.069 10.06899 h -9.82341 -9.8234 z"
     id="path67" /><path
     style="fill:#b37e4f;fill-opacity:1;stroke-width:0.594045;stroke-linejoin:round"
     d="M -95.778219,11.051333 V 2.9470221 h 9.823407 9.823407 v 8.1043109 8.104311 h -9.823407 -9.823407 z"
     id="path68" /><path
     style="fill:#b37e4f;fill-opacity:1;stroke-width:0.594045;stroke-linejoin:round"
     d="M -95.778219,81.288694 V 30.452562 h 9.823407 9.823407 v 50.836132 50.836136 h -9.823407 -9.823407 z"
     id="path69" /><path
     style="fill:#b37e4f;fill-opacity:1;stroke-width:0.594045;stroke-linejoin:round"
     d="m -95.778219,154.47308 v -10.069 h 9.823407 9.823407 v 10.069 10.06899 h -9.823407 -9.823407 z"
     id="path70" /><path
     style="fill:#b37f50;fill-opacity:1;stroke-width:0.594045;stroke-linejoin:round"
     d="M -75.149064,11.051333 V 2.9470221 h 9.332237 9.332236 v 8.1043109 8.104311 h -9.332236 -9.332237 z"
     id="path71" /><path
     style="fill:#b37f50;fill-opacity:1;stroke-width:0.594045;stroke-linejoin:round"
     d="M -75.149064,81.288694 V 30.452562 h 9.332237 9.332236 v 50.836132 50.836136 h -9.332236 -9.332237 z"
     id="path72" /><path
     style="fill:#b37f50;fill-opacity:1;stroke-width:0.594045;stroke-linejoin:round"
     d="m -75.149064,154.47308 v -10.069 h 9.332237 9.332236 v 10.069 10.06899 h -9.332236 -9.332237 z"
     id="path73" /><path
     style="fill:#000000;fill-opacity:1;stroke-width:0.0254909;stroke-linejoin:round"
     d="m -230.69953,193.90858 c -0.0807,-0.15433 -0.11607,-0.73432 -0.10227,-1.67926 0.0108,-0.74135 0.027,-0.98208 0.0787,-1.17432 0.10711,-0.39779 0.29817,0.84866 0.26536,1.73126 -0.0185,0.4966 -0.0824,0.92614 -0.16491,1.10715 -0.028,0.0614 -0.0504,0.0658 -0.0769,0.0152 z"
     id="path74" /><path
     style="fill:#000000;fill-opacity:1;stroke-width:0.0254909;stroke-linejoin:round"
     d="m -233.28465,195.44051 c -2.0067,-0.0141 -3.34311,-0.0445 -3.54085,-0.0805 -0.0808,-0.0147 -0.0781,-0.016 0.0632,-0.0298 1.8569,-0.1823 10.79481,-0.18236 12.78287,-9e-5 0.15261,0.014 0.15499,0.015 0.0691,0.0303 -0.20638,0.0368 -1.48387,0.063 -3.9682,0.0815 -1.4548,0.0108 -2.78261,0.0183 -2.9507,0.0167 -0.16808,-0.002 -1.27302,-0.01 -2.4554,-0.0181 z"
     id="path75" /><path
     style="fill:#000000;fill-opacity:1;stroke-width:0.0254909;stroke-linejoin:round"
     d="m -45.722717,193.88091 c -0.06846,-0.16463 -0.08694,-0.4735 -0.08694,-1.45295 0,-0.66894 0.0081,-1.01432 0.02694,-1.14195 0.02987,-0.20292 0.06195,-0.31232 0.09157,-0.31232 0.07951,0 0.1942,0.69322 0.219677,1.32781 0.02665,0.66381 -0.07188,1.49358 -0.192556,1.62156 -0.02451,0.026 -0.03283,0.02 -0.05868,-0.0421 z"
     id="path76" /><path
     style="fill:#000000;fill-opacity:1;stroke-width:0.0254909;stroke-linejoin:round"
     d="m -48.296678,195.44051 c -2.006693,-0.0141 -3.343102,-0.0445 -3.540843,-0.0805 -0.08079,-0.0147 -0.07814,-0.016 0.06323,-0.0298 1.856901,-0.1823 10.794812,-0.18236 12.782865,-9e-5 0.152609,0.014 0.154996,0.015 0.06905,0.0303 -0.206376,0.0368 -1.483874,0.063 -3.968195,0.0815 -1.454801,0.0108 -2.782618,0.0183 -2.950702,0.0167 -0.168085,-0.002 -1.273018,-0.01 -2.455406,-0.0181 z"
     id="path77" /></g></svg>
