<?xml version="1.0" encoding="UTF-8" standalone="no"?>
<svg
   width="125.09619"
   height="179.03673"
   viewBox="0 0 125.09619 179.03673"
   version="1.1"
   xml:space="preserve"
   style="clip-rule:evenodd;fill-rule:evenodd;stroke-linejoin:round;stroke-miterlimit:2"
   id="svg31"
   sodipodi:docname="biker-pes-inbound.svg"
   inkscape:version="1.3.2 (091e20ef0f, 2023-11-25, custom)"
   xmlns:inkscape="http://www.inkscape.org/namespaces/inkscape"
   xmlns:sodipodi="http://sodipodi.sourceforge.net/DTD/sodipodi-0.dtd"
   xmlns="http://www.w3.org/2000/svg"
   xmlns:svg="http://www.w3.org/2000/svg"><defs
   id="defs31" /><sodipodi:namedview
   id="namedview31"
   pagecolor="#ffffff"
   bordercolor="#666666"
   borderopacity="1.0"
   inkscape:showpageshadow="2"
   inkscape:pageopacity="0.0"
   inkscape:pagecheckerboard="0"
   inkscape:deskcolor="#d1d1d1"
   inkscape:zoom="2.95"
   inkscape:cx="35.254237"
   inkscape:cy="88.813559"
   inkscape:window-width="1920"
   inkscape:window-height="1080"
   inkscape:window-x="1920"
   inkscape:window-y="0"
   inkscape:window-maximized="1"
   inkscape:current-layer="svg31" />
    
<g
   id="g37"
   transform="matrix(3.7795276,0,0,3.7795276,-379.20265,-182.66672)"><path
     style="clip-rule:evenodd;fill:#03adb0;fill-opacity:1;fill-rule:evenodd;stroke:#cead80;stroke-width:1.265;stroke-linecap:butt;stroke-linejoin:miter;stroke-miterlimit:2;stroke-dasharray:none;stroke-opacity:1"
     d="M 105.92608,87.353589 112.48543,51.96235"
     id="path28-5" /><g
     id="g36"><g
       id="g34"
       transform="matrix(1.0062464,0.14881343,0,0.93269459,-0.79285369,-14.241879)"><path
         id="path25-4"
         style="clip-rule:evenodd;fill:#03adb0;fill-opacity:1;fill-rule:evenodd;stroke:none;stroke-width:0.373459px;stroke-linecap:butt;stroke-linejoin:miter;stroke-miterlimit:2;stroke-opacity:1"
         d="m 130.42051,54.230798 2.8639,0.711585 -0.76739,3.456636 -4.67362,12.923243 -2.71973,-0.609782 2.6603,0.576192 -8.6286,-19.842989 z"
         sodipodi:nodetypes="cccccccc" /><path
         id="path32"
         style="clip-rule:evenodd;fill:#ffffff;fill-rule:evenodd;stroke-width:0.0154407;stroke-linejoin:round;stroke-miterlimit:2"
         class="st22"
         d="m 120.87893,53.975 -0.0692,0.0026 c -0.0463,0.0011 -0.0911,0.0036 -0.13746,0.0047 l -0.0682,0.0026 c -0.0232,0.0013 -0.045,7.17e-4 -0.0682,0.0036 -0.0844,0.0078 -0.16687,0.01551 -0.24857,0.02325 l 0.10335,0.238745 c 0.13936,-0.0074 0.27979,-0.01175 0.42117,-0.01034 l 0.0667,5.17e-4 0.0646,0.01137 c 0.0448,0.002 0.0891,0.01349 0.13539,0.0155 0.0232,2.32e-4 0.0451,0.0034 0.0667,0.0052 l 0.0646,0.0052 c 0.0432,0.0035 0.0865,0.0073 0.13125,0.0124 0.0447,0.0051 0.0881,0.0099 0.13281,0.01499 l 0.0661,0.0083 0.0661,0.0098 0.13126,0.0217 c 0.0432,0.0082 0.0876,0.01614 0.13074,0.02429 0.0879,0.01632 0.17417,0.03745 0.26045,0.05684 0.0431,0.0097 0.0865,0.02236 0.12816,0.03359 0.0431,0.01124 0.086,0.02237 0.12764,0.03514 0.0416,0.01277 0.0846,0.02548 0.12609,0.03979 l 0.0631,0.01912 0.0615,0.02274 c 0.0416,0.01431 0.083,0.02859 0.12299,0.04289 0.0415,0.01586 0.082,0.0317 0.12196,0.04754 0.0815,0.03016 0.15982,0.066 0.23978,0.09922 0.04,0.01584 0.0784,0.03637 0.11679,0.05374 0.0384,0.01891 0.0784,0.03483 0.11678,0.05374 0.1521,0.07719 0.30269,0.152914 0.4439,0.237712 0.14435,0.0802 0.28099,0.169539 0.41445,0.257348 0.0337,0.02196 0.0659,0.04524 0.0982,0.06718 0.0322,0.02194 0.0644,0.04575 0.0966,0.0677 0.0306,0.02347 0.0628,0.0468 0.0935,0.06873 0.0307,0.02347 0.0629,0.04528 0.092,0.06873 0.24057,0.186161 0.45636,0.378668 0.64595,0.567407 0.18804,0.188724 0.35263,0.3724 0.4899,0.542086 0.0351,0.04204 0.0672,0.08407 0.0992,0.12454 0.0152,0.02023 0.0323,0.03868 0.0476,0.05891 0.0152,0.02023 0.0287,0.03921 0.0424,0.05943 0.029,0.03735 0.0563,0.07429 0.0822,0.110071 0.0243,0.03576 0.049,0.07018 0.0718,0.102836 0.0457,0.06377 0.0839,0.124392 0.11885,0.1757 0.0167,0.02642 0.0333,0.04956 0.047,0.07131 0.0137,0.02175 0.0271,0.04235 0.0377,0.06098 0.0456,0.07149 0.0703,0.110071 0.0703,0.110071 l 0.031,-0.01499 c 0,0 -0.0154,-0.04341 -0.047,-0.124023 -0.008,-0.02015 -0.0162,-0.04341 -0.0253,-0.06821 -0.0106,-0.02481 -0.021,-0.05114 -0.0346,-0.08062 -0.0257,-0.05739 -0.0516,-0.123934 -0.0894,-0.196887 -0.0182,-0.03724 -0.0361,-0.07437 -0.0558,-0.114722 -0.0212,-0.04036 -0.0423,-0.08108 -0.0651,-0.12454 -0.0121,-0.02174 -0.0246,-0.04337 -0.0367,-0.06511 -0.0121,-0.02174 -0.0256,-0.04491 -0.0393,-0.06666 -0.0273,-0.04505 -0.0549,-0.09343 -0.0853,-0.141593 -0.12005,-0.192678 -0.26745,-0.401088 -0.44751,-0.615984 -0.0229,-0.02648 -0.0442,-0.05412 -0.0687,-0.08062 -0.0244,-0.02649 -0.0473,-0.05309 -0.0718,-0.08113 -0.0473,-0.05452 -0.0995,-0.107683 -0.15297,-0.162264 -0.0519,-0.05456 -0.10826,-0.107653 -0.16484,-0.162264 -0.0138,-0.01404 -0.0292,-0.02627 -0.0429,-0.04031 -0.0153,-0.01251 -0.0291,-0.02676 -0.0444,-0.03927 -0.0291,-0.02654 -0.0598,-0.05302 -0.0904,-0.07958 -0.24339,-0.212441 -0.51926,-0.413136 -0.82321,-0.592212 -0.0384,-0.022 -0.0769,-0.04362 -0.11523,-0.06563 -0.0399,-0.02047 -0.0784,-0.04257 -0.11834,-0.06304 -0.02,-0.01101 -0.0399,-0.02051 -0.06,-0.03152 -0.02,-0.0095 -0.04,-0.01895 -0.0615,-0.02997 -0.04,-0.01893 -0.0814,-0.03946 -0.12299,-0.0584 -0.0415,-0.01894 -0.083,-0.03635 -0.12454,-0.05529 -0.0415,-0.0174 -0.083,-0.03632 -0.12609,-0.05219 -0.0862,-0.03175 -0.17066,-0.0664 -0.25839,-0.09508 -0.0431,-0.01433 -0.0876,-0.03063 -0.13074,-0.04496 -0.0446,-0.0128 -0.0892,-0.027 -0.13229,-0.03979 l -0.0661,-0.02067 -0.0677,-0.01757 c -0.0447,-0.01126 -0.0913,-0.0244 -0.13591,-0.03566 -0.0447,-0.01126 -0.0907,-0.02077 -0.13694,-0.03204 -0.0462,-0.0097 -0.0907,-0.02075 -0.13694,-0.02894 -0.0925,-0.01791 -0.18344,-0.03581 -0.27596,-0.04909 -0.0463,-0.0066 -0.0928,-0.01506 -0.13901,-0.0217 l -0.13849,-0.01654 -0.0698,-0.0088 -0.0692,-0.0052 c -0.0463,-0.0036 -0.0928,-0.0073 -0.13901,-0.0124 -0.0463,-0.0036 -0.0938,-0.0036 -0.14004,-0.0072 l -0.0713,-0.0041 c -0.0231,-0.0018 -0.0461,-0.0019 -0.0693,-0.0021 -0.0448,-4.48e-4 -0.0895,-0.0011 -0.13591,0 z m 1.61747,3.603398 c -0.0754,0.0027 -0.15409,0.01491 -0.22841,0.03462 -0.12826,0.03453 -0.2483,0.08337 -0.3545,0.146244 l 0.0486,0.112655 c 0.0759,-0.04762 0.16403,-0.08946 0.26614,-0.118856 0.31745,-0.08947 0.37432,0.12111 0.23926,0.346749 -0.13173,0.216168 -0.13672,0.260989 0.0579,0.192236 h 5.1e-4 c 0.19488,-0.06287 0.29574,-0.142357 0.34624,-0.40876 0.0464,-0.233476 -0.14949,-0.312978 -0.37569,-0.304891 z m -0.30282,0.826823 0.23099,0.532784 c 0.0231,0.02689 0.035,0.0566 0.0388,0.08837 l 0.11627,0.267684 c 0.0627,-0.07343 0.11044,-0.152359 0.13746,-0.235644 0.0925,-0.292463 0.0743,-0.620053 -0.51057,-0.652157 -0.005,-2.25e-4 -0.008,-7.71e-4 -0.0129,-10e-4 z m 3.70881,0.0021 c -0.0466,3.87e-4 -0.10037,0.01489 -0.16226,0.04651 -0.42838,0.219616 -0.77695,0.941764 -0.81752,2.063957 -0.004,0.11268 -0.005,0.216346 -0.002,0.310575 -0.13579,0.452621 -0.38135,0.789652 -0.60616,0.88005 -0.26671,0.111598 -0.37052,-0.310655 -0.34314,-1.040763 0.0348,-1.009526 0.21625,-1.54541 0.45372,-1.666565 0.28404,-0.145396 0.27547,0.550878 -0.0202,1.235067 -0.0807,0.19221 -0.17175,0.338287 -0.25942,0.457853 -0.0783,0.107307 -0.0738,0.27068 0.0357,0.131258 0.17828,-0.225205 0.39291,-0.543781 0.55449,-0.951363 0.20596,-0.521406 0.22072,-1.355175 -0.2744,-1.102259 -0.42838,0.219615 -0.77695,0.940215 -0.81752,2.062407 -0.007,0.197585 -0.004,0.364243 0.009,0.506429 -0.002,0.0062 -0.003,0.01401 -0.006,0.0217 -0.017,0.07383 -0.0454,0.143658 -0.078,0.211357 l 0.0465,0.108003 c 0.0243,-0.04319 0.0472,-0.08737 0.0667,-0.133842 0.0926,0.473437 0.3285,0.528231 0.58136,0.411862 0.23897,-0.116508 0.50299,-0.433484 0.67282,-0.893486 0.0678,0.627604 0.3264,0.709295 0.60565,0.579293 0.18931,-0.0923 0.39536,-0.312934 0.55604,-0.629419 0.0816,0.328176 0.3498,0.374006 0.64389,0.304374 0.39167,-0.09954 0.85405,-0.463802 0.97978,-0.992187 0.0339,-0.144811 -0.067,-0.128925 -0.0946,-10e-4 -0.0985,0.426745 -0.48795,0.76739 -0.82063,0.835091 -0.30176,0.06492 -0.40393,-0.208054 -0.3514,-0.67386 0.0698,-0.644758 0.28923,-0.982261 0.55863,-1.053683 0.32204,-0.08634 0.29127,0.358204 -0.0605,0.790133 -0.0954,0.11949 -0.20274,0.211119 -0.30385,0.28577 -0.0902,0.0655 -0.0913,0.172008 0.0362,0.08527 0.20678,-0.139992 0.4576,-0.338334 0.65009,-0.594279 0.24572,-0.32799 0.28813,-0.860389 -0.27233,-0.711585 -0.48616,0.129475 -0.89696,0.580889 -0.97824,1.296562 -0.0102,0.09409 -0.0142,0.177506 -0.0103,0.251664 -0.13566,0.285854 -0.31522,0.489755 -0.48111,0.556038 -0.26671,0.111598 -0.37052,-0.311178 -0.34313,-1.04283 0.0348,-1.011071 0.21623,-1.546451 0.45372,-1.669149 0.28402,-0.145396 0.27546,0.550885 -0.0202,1.236617 -0.0807,0.192211 -0.17173,0.337777 -0.25941,0.458887 -0.0783,0.107307 -0.0739,0.271198 0.0357,0.131775 0.17829,-0.225204 0.39343,-0.544297 0.55501,-0.95188 0.18023,-0.45758 0.21344,-1.153027 -0.11266,-1.150317 z m -2.63705,1.891874 c -0.052,-9.55e-4 -0.11235,0.0072 -0.18241,0.02584 -0.0166,0.0044 -0.0322,0.01241 -0.0486,0.01757 l 0.0512,0.117822 c 0.15956,-0.01517 0.20665,0.129982 0.14624,0.336931 l 0.11059,0.254764 c 0.004,-0.0054 0.009,-0.01007 0.0129,-0.0155 0.215,-0.28699 0.27408,-0.730739 -0.0899,-0.737422 z m 3.44527,1.687752 c -0.009,-0.0032 -0.0186,0.0017 -0.0217,0.01085 0,0 -0.0193,0.05395 -0.0527,0.152446 -0.008,0.02463 -0.0173,0.05243 -0.0284,0.0832 -0.0111,0.02923 -0.0255,0.06281 -0.0382,0.09819 -0.0142,0.03537 -0.0286,0.0737 -0.0444,0.113688 -0.0159,0.03999 -0.0364,0.08305 -0.0553,0.127641 -0.0775,0.179891 -0.18264,0.391939 -0.31781,0.628385 -0.13669,0.234888 -0.30621,0.490966 -0.51573,0.751376 -0.2015,0.250428 -0.43929,0.50348 -0.7121,0.745174 l 0.0698,0.16123 c 0.003,-0.0033 0.007,-0.006 0.0108,-0.0093 0.28528,-0.268915 0.5293,-0.547282 0.73277,-0.820105 0.20347,-0.272822 0.36653,-0.540214 0.49558,-0.782898 0.12906,-0.244227 0.22734,-0.462396 0.29714,-0.648539 0.0174,-0.04615 0.0348,-0.0892 0.0506,-0.130741 0.0143,-0.04155 0.0271,-0.07985 0.0398,-0.116789 0.0127,-0.03693 0.0235,-0.06948 0.0346,-0.100252 0.01,-0.03079 0.0178,-0.06013 0.0258,-0.08475 0.0304,-0.101611 0.0465,-0.15503 0.0465,-0.15503 -0.003,-0.01084 -0.009,-0.0206 -0.0171,-0.02377 z" /></g></g><g
     id="g35"><path
       style="clip-rule:evenodd;fill:#039597;fill-opacity:1;fill-rule:evenodd;stroke:none;stroke-width:0.373459px;stroke-linecap:butt;stroke-linejoin:miter;stroke-miterlimit:2;stroke-opacity:1"
       d="m 112.21118,49.833829 -3.19827,17.389375 18.77101,4.065403 -8.61488,-19.854187 z"
       id="path36"
       sodipodi:nodetypes="ccccc" /><path
       id="path33"
       style="clip-rule:evenodd;fill:#ffffff;fill-rule:evenodd;stroke-width:0.0154407;stroke-linejoin:round;stroke-miterlimit:2"
       class="st22"
       d="m 120.28723,54.01169 c -0.007,6.29e-4 -0.0135,0.0014 -0.0201,0.0021 -0.17781,0.02293 -0.35429,0.04731 -0.52297,0.08423 -0.0418,0.0088 -0.0848,0.01647 -0.12661,0.02532 -0.0418,0.01039 -0.0838,0.02062 -0.12557,0.03101 -0.082,0.0208 -0.16541,0.03863 -0.24443,0.06563 -0.0805,0.0239 -0.15973,0.04583 -0.23719,0.07131 -0.0775,0.02702 -0.15299,0.05408 -0.22738,0.08113 -0.0372,0.01198 -0.0744,0.02883 -0.11007,0.04237 -0.0357,0.01508 -0.0729,0.02987 -0.10852,0.04341 -0.0357,0.01509 -0.0718,0.02883 -0.10594,0.04393 -0.0341,0.01665 -0.0682,0.03194 -0.10232,0.04857 -0.0341,0.0151 -0.0666,0.03141 -0.10077,0.04651 -0.0326,0.01512 -0.0666,0.03036 -0.0977,0.04858 -0.0636,0.03333 -0.12602,0.06688 -0.18656,0.0987 -0.0155,0.0076 -0.031,0.0167 -0.045,0.02429 -0.0155,0.0091 -0.0294,0.01672 -0.0434,0.02584 -0.0295,0.01669 -0.0574,0.03497 -0.0853,0.05168 -0.028,0.01671 -0.0557,0.03342 -0.0837,0.05013 -0.014,0.0076 -0.0285,0.01671 -0.0424,0.02429 -0.014,0.0091 -0.0263,0.0167 -0.0388,0.02584 -0.0529,0.03499 -0.10425,0.06833 -0.15399,0.101802 -0.0249,0.01674 -0.0495,0.03183 -0.0729,0.04858 -0.0233,0.01675 -0.0465,0.03336 -0.0682,0.05013 -0.0451,0.03352 -0.0888,0.06566 -0.13074,0.09612 -0.0218,0.01522 -0.0423,0.03023 -0.061,0.04703 -0.0202,0.01524 -0.0387,0.03073 -0.0574,0.04599 -0.0747,0.06102 -0.1449,0.116053 -0.20412,0.171049 -0.0592,0.05345 -0.11347,0.100885 -0.1602,0.14211 -0.0437,0.0428 -0.0815,0.08053 -0.11265,0.109554 -0.0608,0.05961 -0.0935,0.09198 -0.0935,0.09198 l 0.0248,0.02481 c -0.002,0.0062 0.0323,-0.02412 0.0961,-0.08062 h 5.1e-4 c 0.0327,-0.02901 0.0716,-0.06263 0.11679,-0.10542 0.0483,-0.03812 0.10259,-0.08402 0.16485,-0.132808 0.0607,-0.05035 0.13255,-0.102292 0.21032,-0.158647 0.0187,-0.01371 0.0387,-0.02869 0.0589,-0.04237 0.0202,-0.01524 0.0402,-0.03076 0.062,-0.04444 0.0435,-0.0289 0.0873,-0.05796 0.13385,-0.08837 0.0233,-0.01521 0.0469,-0.03028 0.0703,-0.04703 0.0233,-0.01521 0.0495,-0.02873 0.0744,-0.04393 0.0497,-0.03038 0.10273,-0.0606 0.15555,-0.0925 0.0124,-0.0076 0.0263,-0.01517 0.0403,-0.02429 0.014,-0.0076 0.0279,-0.01516 0.0419,-0.02274 0.028,-0.01516 0.0558,-0.03032 0.0853,-0.04547 0.028,-0.01516 0.0573,-0.03033 0.0868,-0.04548 0.014,-0.0076 0.0294,-0.01515 0.0434,-0.02274 0.0155,-0.0076 0.0315,-0.01361 0.0455,-0.02119 0.0605,-0.02873 0.12396,-0.0576 0.18758,-0.08785 0.031,-0.01513 0.0651,-0.0288 0.0977,-0.04237 0.0326,-0.01357 0.0667,-0.02676 0.10077,-0.04031 0.0341,-0.01355 0.0682,-0.02727 0.10232,-0.04237 0.0341,-0.01201 0.0697,-0.02572 0.10542,-0.03772 0.0356,-0.012 0.0713,-0.02522 0.10697,-0.03721 0.0356,-0.012 0.0714,-0.02728 0.10852,-0.03617 0.0743,-0.02242 0.14839,-0.04478 0.22428,-0.06718 0.0759,-0.02086 0.15514,-0.0386 0.23409,-0.05788 0.079,-0.02083 0.15932,-0.0355 0.23978,-0.05168 0.0402,-0.0073 0.0802,-0.01801 0.12196,-0.02532 0.0417,-0.0058 0.0838,-0.01593 0.12402,-0.0217 0.19836,-0.02934 0.40161,-0.04841 0.60771,-0.05943 z m -3.05976,2.276864 c -0.2455,-0.0025 -0.52894,0.04435 -0.84181,0.140043 -1.1694,0.355804 -1.71238,1.100931 -1.93115,1.514119 -0.23764,0.446969 -0.3229,0.92632 -0.22117,1.253154 0.0584,0.185882 0.1686,0.281062 0.32918,0.28267 0.0911,9.11e-4 0.19936,-0.02729 0.32039,-0.0863 0.15673,-0.07718 0.22076,-0.127848 0.22428,-0.171049 0.004,-0.04474 -0.059,-0.09901 -0.1602,-0.172599 -0.27288,-0.197294 -0.38759,-0.478357 -0.33021,-0.81132 0.11306,-0.650499 0.86435,-1.370219 1.67276,-1.606103 0.19359,-0.05674 0.37168,-0.08426 0.52917,-0.08268 0.25322,0.0025 0.44538,0.07888 0.57361,0.22686 0.14654,0.16978 0.19952,0.423451 0.15451,0.754993 -0.0804,0.630752 -0.5726,1.221963 -1.02888,1.452107 l 0.0274,-0.302307 c 0.0703,-0.853211 0.14453,-1.13979 -0.10904,-0.952396 -0.30035,0.233247 -0.29304,0.549623 -0.33176,1.177705 l -0.16226,1.862419 c -0.0756,0.922645 -0.30162,1.445057 -0.70229,1.518254 -0.26765,0.05137 -0.37489,-0.329571 -0.0269,-0.848011 0.16461,-0.24696 0.18809,-0.284983 -0.03,-0.248563 -0.21496,0.03182 -0.38047,0.229349 -0.46664,0.507979 -0.15184,0.514226 0.0752,0.838976 0.47749,0.753442 0.59582,-0.131465 1.09946,-0.808715 1.18288,-1.891874 l 0.13074,-1.457792 c 0.24041,-0.105685 0.55408,-0.28664 0.84697,-0.54467 0.31314,-0.276356 0.70211,-0.733901 0.77773,-1.346171 0.0305,-0.273009 -0.026,-0.49323 -0.16794,-0.652156 -0.15421,-0.174488 -0.40959,-0.266475 -0.73691,-0.269751 z m 3.70468,1.466577 c -0.0167,0.0015 -0.0342,0.0045 -0.0522,0.0093 -0.1378,0.03722 -0.27031,0.171845 -0.28732,0.329179 -0.0232,0.157271 0.0916,0.226367 0.22944,0.190686 0.14245,-0.03872 0.27031,-0.171916 0.29352,-0.330729 0.0149,-0.137667 -0.0664,-0.208708 -0.18345,-0.198438 z m 0.98134,0.0041 c -0.18225,0.107906 -0.32258,0.25755 -0.38499,0.450102 -0.0926,0.298639 0.0625,0.561178 0.48989,0.594796 0.23016,0.01934 0.35006,0.06846 0.40618,0.133842 l -0.23099,-0.532784 c -0.30723,-0.01785 -0.45957,-0.122011 -0.43822,-0.278536 0.0139,-0.09774 0.0938,-0.183943 0.2067,-0.254765 z m -2.34559,0.278536 c -0.0872,-0.003 -0.24403,0.0619 -0.29508,0.147278 -0.10686,0.185773 -0.14155,0.426673 0.0165,0.522449 0.006,0.0032 0.007,0.04755 0.009,0.05529 0.003,0.01856 0.006,0.03727 0.007,0.05736 0.004,0.0371 0.009,0.07558 0.0109,0.114205 0.005,0.08035 0.008,0.162623 0.004,0.242879 -0.008,0.216097 -0.0323,0.439669 -0.0946,0.647506 -0.0352,0.120092 -0.0924,0.275351 -0.21498,0.334347 -0.0248,0.0121 -0.0507,0.01786 -0.0785,0.01912 -0.1421,0.0032 -0.22169,-0.221505 -0.22738,-0.578259 0.0301,-0.07536 0.0571,-0.155081 0.0796,-0.241329 0.17991,-0.696155 -0.16148,-0.855553 -0.57878,-0.818038 -0.16848,0.01684 -0.35576,0.07657 -0.53123,0.175183 -0.25778,0.144115 -0.20291,0.223546 0.0269,0.100769 0.13818,-0.07428 0.28363,-0.119189 0.41651,-0.127124 0.31986,-0.02151 0.38805,0.261863 0.27234,0.714685 -0.15916,0.628421 -0.43077,0.931126 -0.7183,0.963765 -0.34475,0.03979 -0.39126,-0.414504 0.031,-0.791683 0.11533,-0.105391 0.23808,-0.181207 0.3514,-0.240295 0.10244,-0.05302 0.11746,-0.156426 -0.0253,-0.08837 -0.23271,0.108849 -0.51695,0.269893 -0.74931,0.497644 -0.29784,0.290408 -0.27531,0.830868 0.32298,0.761194 0.31074,-0.03704 0.60851,-0.191459 0.83664,-0.459403 0.0997,0.221811 0.27081,0.275865 0.42995,0.26665 0.19314,-0.01196 0.32576,-0.187913 0.39688,-0.350883 0.0632,-0.142973 0.0927,-0.29905 0.11885,-0.453202 0.023,-0.134113 0.0369,-0.268238 0.0382,-0.40411 0.001,-0.120432 -0.0132,-0.239113 -0.0243,-0.359668 0.0894,0.01325 0.22072,-9.28e-4 0.39119,-0.06253 0,0 -0.0327,0.1815 -0.11162,0.660941 -0.11882,0.763166 0.21846,0.836374 0.47698,0.772563 0.14086,-0.03411 0.28458,-0.151924 0.40411,-0.368453 0.091,0.166135 0.25137,0.186415 0.40462,0.149345 0.0975,-0.02373 0.19664,-0.0892 0.28732,-0.201021 0.12414,0.09389 0.33883,0.08834 0.53072,0.04702 0.28575,-0.06089 0.60848,-0.22855 0.79737,-0.449585 l -0.11627,-0.267684 c 0.006,0.05203 -0.008,0.108833 -0.032,0.167949 -0.0963,0.210584 -0.31994,0.353396 -0.59997,0.407727 -0.29557,0.06344 -0.4414,-0.166513 -0.21084,-0.522449 0.14418,-0.211649 0.15526,-0.257764 -0.0398,-0.205672 -0.19043,0.0506 -0.34894,0.166589 -0.41496,0.437699 -0.0355,0.150972 -0.0182,0.256095 0.032,0.327629 -0.0484,0.05356 -0.0982,0.08536 -0.154,0.0987 -0.16402,0.03387 -0.22922,-0.24936 -0.17828,-0.710551 l 0.0171,-0.115755 c 0.0356,-0.31465 0.1221,-0.631741 -0.10025,-0.478007 -0.29705,0.211662 -0.25324,0.425145 -0.2868,0.691947 -0.0255,0.234455 -0.0147,0.404215 0.0227,0.525033 -0.0806,0.186035 -0.17433,0.2843 -0.27647,0.306441 -0.16866,0.03537 -0.24652,-0.208314 -0.17829,-0.700216 0.12916,-0.871153 0.25893,-1.020802 -0.0956,-0.925525 -0.46602,0.1235 -0.55553,0.131534 -0.35605,-0.204638 0.0359,-0.06102 0.008,-0.0871 -0.0439,-0.08888 z m 1.96215,1.983858 c -0.0502,0.0038 -0.10197,0.01135 -0.154,0.02222 -0.44869,0.08816 -0.85534,0.427005 -1.03352,0.795817 -0.2792,0.588615 -0.067,1.132665 0.62011,1.289327 0.45296,0.101815 0.79766,0.412277 0.59221,1.037146 -0.20551,0.631045 -0.72617,1.096939 -1.34772,1.177189 -0.64632,0.08618 -0.95818,-0.387906 -0.79788,-0.976167 0.12166,-0.4296 0.44912,-0.713477 0.7121,-0.914673 0.238,-0.175195 0.25719,-0.241399 0.046,-0.272852 -0.18653,-0.0312 -0.37836,0.0026 -0.58032,0.278536 -0.15037,0.213131 -0.40405,0.696932 -0.45837,1.033012 -0.11162,0.661323 0.24959,1.121944 1.02732,1.020093 0.71592,-0.09784 1.43524,-0.674545 1.71618,-1.436088 0.27443,-0.72918 0.0866,-1.268136 -0.63769,-1.408183 -0.60716,-0.123434 -0.79037,-0.446627 -0.64234,-0.888318 0.0893,-0.278597 0.35199,-0.484566 0.71417,-0.568957 0.39153,-0.08564 0.48869,0.253523 0.17983,0.719852 -0.16619,0.250033 -0.18521,0.297612 0.0517,0.235128 0.2183,-0.05804 0.42506,-0.218097 0.5085,-0.532267 0.11831,-0.481171 -0.16472,-0.637444 -0.51625,-0.610816 z m 1.5043,0.320911 c -0.46431,0.146209 -0.85114,0.587734 -0.92966,1.278992 -0.0813,0.715671 0.26622,0.828727 0.65629,0.733805 0.30632,-0.07814 0.65524,-0.319739 0.85421,-0.673861 l -0.0465,-0.108003 c -0.15609,0.323604 -0.46747,0.567746 -0.74259,0.623734 -0.30176,0.06492 -0.40393,-0.208052 -0.3514,-0.673861 0.0698,-0.644755 0.28923,-0.98226 0.55863,-1.053682 0.0186,-0.005 0.0359,-0.0078 0.0522,-0.0093 z m -3.55327,0.235128 c -0.0193,0.0022 -0.0403,0.0073 -0.0625,0.01499 -0.0821,0.02852 -0.15976,0.09994 -0.23358,0.224276 -0.0581,0.09979 -0.0168,0.136063 0.0351,0.04547 0.0488,-0.09371 0.0878,-0.158298 0.14831,-0.177767 0.0992,-0.03607 0.0831,0.152212 0.0558,0.414445 l -0.0129,0.09405 c -0.0459,0.418007 0.11856,0.475353 0.26561,0.439767 0.13002,-0.03113 0.2627,-0.187518 0.33538,-0.50643 0.0224,-0.08316 -0.0376,-0.07139 -0.0537,-5.16e-4 -0.0598,0.264994 -0.13661,0.396881 -0.23254,0.415995 -0.0959,0.02066 -0.13173,-0.141915 -0.10129,-0.40566 l 0.015,-0.09508 c 0.0374,-0.353624 -0.0235,-0.478968 -0.15865,-0.463537 z m -0.37982,0.0677 c -0.0111,0.0023 -0.0246,0.0091 -0.0413,0.02067 -0.16951,0.120291 -0.15301,0.299583 -0.19689,0.672828 l -0.0258,0.240812 c -0.0958,0.156547 -0.254,0.270766 -0.39481,0.30024 -0.17177,0.03688 -0.23046,-0.118141 -0.20154,-0.38499 0.0392,-0.367115 0.16456,-0.560337 0.31937,-0.60048 0.18424,-0.04911 0.16601,0.203511 -0.0357,0.450102 -0.0547,0.06894 -0.11504,0.121155 -0.1726,0.163814 -0.0513,0.03809 -0.0523,0.09829 0.0207,0.04806 0.11815,-0.07911 0.26148,-0.191856 0.37104,-0.338997 0.14085,-0.186977 0.16391,-0.491001 -0.15503,-0.406177 -0.27715,0.07443 -0.5113,0.33128 -0.55863,0.740007 -0.0458,0.408741 0.15126,0.47244 0.37569,0.419096 0.14242,-0.03563 0.30234,-0.134035 0.41806,-0.27957 -0.0214,0.132582 -0.037,0.167568 0.0465,0.152962 0.0882,-0.01456 0.16017,-0.132644 0.19069,-0.404109 l 0.0393,-0.346749 c 0.0297,-0.261823 0.0788,-0.463481 0.001,-0.447518 z m 4.13049,0.151929 c -0.0399,0.136836 -0.12699,0.30053 -0.25889,0.462504 -0.0954,0.119488 -0.20274,0.211119 -0.30386,0.28577 -0.0902,0.06549 -0.0913,0.172008 0.0362,0.08527 0.20238,-0.137018 0.44639,-0.330663 0.63717,-0.578776 z m -7.5923,2.408638 c -0.0209,0.0024 -0.0422,0.0092 -0.062,0.02015 -0.0792,0.04399 -0.10647,0.144049 -0.0625,0.223242 0,0 0.029,0.04998 0.0806,0.144694 0.0531,0.09318 0.13648,0.229491 0.24908,0.395842 0.11414,0.166367 0.26073,0.364323 0.447,0.576192 0.0916,0.105919 0.19536,0.214815 0.30696,0.327112 0.0275,0.02807 0.0568,0.05459 0.0858,0.08268 0.0291,0.02809 0.0594,0.05615 0.0884,0.08423 0.0306,0.0281 0.0629,0.05458 0.0935,0.08423 0.0153,0.01405 0.0323,0.02832 0.0475,0.04237 0.0168,0.01407 0.0337,0.0283 0.0506,0.04082 0.0337,0.02813 0.0671,0.05609 0.10077,0.08423 0.0337,0.02813 0.0707,0.05453 0.10593,0.08268 0.0705,0.05629 -0.0369,-0.04757 0.0382,0.0088 0.0383,0.02663 0.0779,0.05347 0.11628,0.0801 0.0199,0.01255 0.04,0.02672 0.0599,0.03928 0.02,0.01255 0.04,0.02515 0.0615,0.03927 0.0414,0.02512 0.0815,0.05188 0.12299,0.077 0.043,0.02514 0.0841,0.04979 0.12713,0.07493 0.17195,0.099 0.35351,0.193755 0.54415,0.277503 0.0477,0.0221 0.0949,0.04247 0.14418,0.0615 0.0492,0.02057 0.097,0.04142 0.14779,0.06046 0.0492,0.01902 0.10014,0.03782 0.14935,0.05684 0.0508,0.01749 0.10115,0.03522 0.15193,0.05271 0.20625,0.06692 0.41886,0.124607 0.63613,0.170016 0.21727,0.04541 0.44089,0.07999 0.66611,0.102319 0.0571,0.0052 0.11293,0.0087 0.17002,0.01395 0.0278,0.0034 0.057,0.0039 0.0863,0.0057 l 0.0863,0.0036 c 0.0293,0.0018 0.0585,0.0038 0.0863,0.0041 l 0.0837,0.001 0.0832,5.17e-4 0.045,5.17e-4 0.0429,-10e-4 c 0.0571,-9.72e-4 0.11441,-0.0021 0.17157,-0.0047 l 0.0434,-0.001 c 0.0139,1.54e-4 0.0279,-0.0012 0.0434,-0.0026 l 0.0863,-0.0052 0.0863,-0.0052 c 0.0278,-0.0013 0.0575,-0.0044 0.0868,-0.0072 l 0.17157,-0.01809 c 0.0572,-0.0056 0.11434,-0.01455 0.17001,-0.02325 0.0572,-0.0087 0.11433,-0.01559 0.17002,-0.02584 0.11295,-0.02203 0.22597,-0.04102 0.33589,-0.06925 0.22286,-0.05027 0.44144,-0.117659 0.65371,-0.189652 0.42461,-0.15171 0.82598,-0.343559 1.18959,-0.571542 0.0451,-0.02889 0.0903,-0.05638 0.13539,-0.08527 0.0435,-0.03045 0.0872,-0.05947 0.13075,-0.08992 0.0218,-0.01522 0.0433,-0.02869 0.0651,-0.04393 0.0218,-0.01523 0.0423,-0.03075 0.0625,-0.04754 0.042,-0.03046 0.0836,-0.06254 0.12402,-0.09302 0.0405,-0.03202 0.0809,-0.06408 0.11989,-0.09612 0.0389,-0.03204 0.0794,-0.06253 0.11679,-0.09612 0.0712,-0.06396 0.14298,-0.124206 0.21032,-0.189136 l -0.0698,-0.16123 c -0.0109,0.0096 -0.0211,0.01934 -0.032,0.02894 -0.0701,0.06415 -0.14646,0.12348 -0.22273,0.184484 -0.0374,0.03205 -0.0779,0.05942 -0.11679,0.08992 -0.0389,0.02895 -0.0779,0.05945 -0.11989,0.08837 -0.0404,0.02893 -0.0826,0.05635 -0.12454,0.08527 -0.0202,0.01369 -0.0418,0.0292 -0.062,0.04289 -0.0217,0.01368 -0.0434,0.02712 -0.0636,0.04082 -0.0435,0.02736 -0.0857,0.05481 -0.12919,0.08217 -0.0435,0.02581 -0.0883,0.0517 -0.13333,0.07751 -0.35725,0.209517 -0.75112,0.37984 -1.16168,0.516248 -0.20757,0.06432 -0.41695,0.124281 -0.632,0.165364 -0.10679,0.02364 -0.21469,0.03941 -0.32298,0.0584 -0.0541,0.0087 -0.10867,0.01454 -0.16433,0.0217 -0.0541,0.0072 -0.10819,0.01402 -0.16382,0.01809 l -0.16381,0.01395 c -0.0278,0.0028 -0.0538,0.0039 -0.0816,0.0036 l -0.0822,0.0041 -0.0816,0.0036 c -0.0139,-1.55e-4 -0.028,0.0012 -0.0419,0.001 l -0.0413,-5.17e-4 c -0.054,-5.4e-4 -0.10978,6.02e-4 -0.16382,0 l -0.0419,-5.17e-4 -0.0387,-0.0015 -0.0832,-0.0041 -0.0832,-0.0041 c -0.0278,-0.0018 -0.0539,-0.0034 -0.0801,-0.0052 l -0.0801,-0.0052 c -0.0262,-0.0018 -0.0544,-0.0038 -0.0806,-0.0072 -0.054,-0.0052 -0.10775,-0.01189 -0.1602,-0.01705 -0.21437,-0.02685 -0.42398,-0.0658 -0.63045,-0.111104 -0.2049,-0.04683 -0.40504,-0.106321 -0.59893,-0.173116 -0.38781,-0.132046 -0.74732,-0.300829 -1.07126,-0.487826 -0.0399,-0.02356 -0.0799,-0.04723 -0.11988,-0.0708 -0.0383,-0.02509 -0.0785,-0.04829 -0.11679,-0.07338 -0.0184,-0.01254 -0.0384,-0.02364 -0.0568,-0.03617 -0.0184,-0.01254 -0.0364,-0.02519 -0.0548,-0.03772 -0.0368,-0.02508 -0.0738,-0.04985 -0.11059,-0.07493 -0.0705,-0.05166 -0.14291,-0.101868 -0.20877,-0.155029 -0.0337,-0.02659 0.11531,0.103568 0.0832,0.077 -0.0322,-0.02657 -0.0645,-0.05303 -0.0951,-0.07958 -0.25113,-0.210975 -0.46366,-0.423291 -0.63924,-0.622701 -0.0443,-0.04986 -0.0869,-0.09799 -0.12505,-0.146244 -0.0397,-0.04826 -0.0776,-0.09337 -0.11266,-0.140044 -0.0351,-0.04513 -0.0703,-0.08875 -0.10077,-0.130741 -0.0305,-0.042 -0.0609,-0.08411 -0.0884,-0.12144 -0.0274,-0.03888 -0.0516,-0.07586 -0.076,-0.111621 -0.0243,-0.03576 -0.0474,-0.06867 -0.0656,-0.09973 -0.0198,-0.03108 -0.0381,-0.0604 -0.0548,-0.08682 -0.009,-0.01245 -0.0167,-0.02633 -0.0243,-0.03721 -0.008,-0.01243 -0.0136,-0.02374 -0.0212,-0.03462 -0.0516,-0.08853 -0.0806,-0.134875 -0.0806,-0.134875 l -0.003,-0.0047 c -0.0342,-0.05709 -0.0969,-0.08692 -0.15968,-0.07958 z" /></g></g><g
   id="biker-01-inbound"
   transform="matrix(0.635,0,0,0.635,-2782.3566,-369.28321)">
        <g
   id="g31">
            <g
   transform="matrix(2.00022,0,0,2.00022,-4382.66,-863.694)"
   id="g1">
                <path
   d="m 4401.35,751.789 12.83,-0.74 -6,9.788 z"
   style="fill:#543e36;fill-rule:nonzero"
   id="path1" />
            </g>
            <g
   transform="matrix(2.00022,0,0,2.00022,-4382.66,-863.694)"
   id="g2">
                <path
   d="m 4401.89,830.589 -11.93,1.602 1.05,-4.925 11.8,-0.94 z"
   style="fill:#373837;fill-rule:nonzero"
   id="path2" />
            </g>
            <g
   transform="matrix(2.00022,0,0,2.00022,-4382.66,-863.694)"
   id="g3">
                <path
   d="m 4405.39,788.567 7.24,0.058 -1.71,-5.292 -5.07,-0.629 z"
   style="fill:#c19f3e;fill-rule:nonzero"
   id="path3" />
            </g>
            <g
   transform="matrix(2.00022,0,0,2.00022,-4382.66,-863.694)"
   id="g4">
                <path
   d="m 4408.72,783.848 -11.31,15.479 -0.51,24.173 -4.5,1.491 -1.57,-27.31 8.64,-21.095 9.7,0.532 7.11,-0.607 4.54,11.655 4.03,35.411 -3.95,0.986 -10.08,-40.593 z"
   style="fill:#5b5d5e;fill-rule:nonzero"
   id="path4" />
            </g>
            <g
   transform="matrix(2.00022,0,0,2.00022,-4382.66,-863.694)"
   id="g5">
                <path
   d="m 4392.34,823.688 -0.44,9.5 2.28,4.873 2.5,-0.156 1.33,-4.534 -1.11,-10.37 z"
   style="fill:#dbdad7;fill-rule:nonzero"
   id="path5" />
            </g>
            <g
   transform="matrix(2.00022,0,0,2.00022,-4382.66,-863.694)"
   id="g6">
                <path
   d="m 4407.02,822.692 -2.21,15.597 2.09,15.106 z"
   style="fill:#c2bfbc;fill-rule:nonzero"
   id="path6" />
            </g>
            <g
   transform="matrix(2.00022,0,0,2.00022,-4382.66,-863.694)"
   id="g7">
                <path
   d="m 4411.75,822.692 2.21,15.597 -2.09,15.106 z"
   style="fill:#c2bfbc;fill-rule:nonzero"
   id="path7" />
            </g>
            <g
   transform="matrix(2.00022,0,0,2.00022,-4382.66,-863.694)"
   id="g8">
                <path
   d="m 4407.29,815.626 -0.34,-24.596 3.94,0.009 0.27,24.411 z"
   style="fill:#ecdbb2;fill-rule:nonzero"
   id="path8" />
            </g>
            <g
   transform="matrix(2.00022,0,0,2.00022,-4382.66,-863.694)"
   id="g9">
                <path
   d="m 4408.12,814.367 -1.24,1.288 0.05,46.009 1.38,1.836 h 2.25 l 1.33,-2.07 -0.18,-46.009 -1.38,-1.054 z"
   style="fill:#292b29;fill-rule:nonzero"
   id="path9" />
            </g>
            <g
   transform="matrix(2.00022,0,0,2.00022,-4382.66,-863.694)"
   id="g10">
                <path
   d="m 4399.46,776.624 -0.91,-18.287 -8.8,8.825 -0.21,15.607 -3.89,-0.908 -0.06,-16.966 12.39,-12.782 3.37,-0.324 6.83,9.048 6,-9.788 3.05,0.159 13.6,14.081 0.6,17.964 -3.41,0.051 -0.68,-16.291 -10.54,-10.471 -0.52,19.916 -4.71,1.811 z"
   style="fill:#e5e2dc;fill-rule:nonzero"
   id="path10" />
            </g>
            <g
   transform="matrix(2.00022,0,0,2.00022,-4382.66,-863.694)"
   id="g12">
                <g
   opacity="0.5"
   id="g11">
                    <path
   d="m 4415.81,803.834 4.4,-18.333 -8.73,-7.232 -12.02,-1.73 -3.81,9.211 1.81,13.625 6.59,-9.125 2.96,0.875 4,11.459 v -11.626 l 1.5,-0.375 z"
   style="fill:#171817;fill-rule:nonzero"
   id="path11" />
                </g>
            </g>
            <g
   transform="matrix(2.00022,0,0,2.00022,-4382.66,-863.694)"
   id="g13">
                <path
   d="m 4407.11,791.108 3.54,0.039 8.51,-2.892 -0.51,-2.034 -8.09,2.307 -3.5,0.039 -7.97,-2.149 -0.51,2.247 z"
   style="fill:#ecdbb2;fill-rule:nonzero"
   id="path12" />
            </g>
            <g
   transform="matrix(2.00022,0,0,2.00022,-4382.66,-863.694)"
   id="g14">
                <path
   d="m 4417.7,785.53 0.28,4.377 17.91,-1.459 -0.74,-5.252 z"
   style="fill:#cead80;fill-rule:nonzero"
   id="path13" />
            </g>
            <g
   transform="matrix(2.00022,0,0,2.00022,-4382.66,-863.694)"
   id="g15">
                <path
   d="m 4399.87,785.969 -0.29,4.377 -17.9,-1.459 0.74,-5.251 z"
   style="fill:#cead80;fill-rule:nonzero"
   id="path14" />
            </g>
            <g
   transform="matrix(2.00022,0,0,2.00022,-4382.66,-863.694)"
   id="g16">
                <path
   d="m 4405.69,753.093 h 3.96 l 4.41,-4.499 -0.91,-12.695 -12.33,0.607 0.11,11.682 z"
   style="fill:#72594b;fill-rule:nonzero"
   id="path15" />
            </g>
            <g
   transform="matrix(2.00022,0,0,2.00022,-4382.66,-863.694)"
   id="g17">
                <path
   d="m 4385.29,783.603 1.18,3.677 5.94,1.483 -0.71,-3.752 2.04,0.157 -0.08,-1.408 -8.05,-1.8 z"
   style="fill:#72594b;fill-rule:nonzero"
   id="path16" />
            </g>
            <g
   transform="matrix(2.00022,0,0,2.00022,-4382.66,-863.694)"
   id="g18">
                <path
   d="m 4431.65,785.792 -0.7,1.252 -5.94,1.484 0.7,-3.753 -2.03,0.159 0.08,-1.408 8.2,-0.939 z"
   style="fill:#72594b;fill-rule:nonzero"
   id="path17" />
            </g>
            <g
   transform="matrix(2.00022,0,0,2.00022,-4382.66,-863.694)"
   id="g19">
                <path
   d="m 4415.49,829.884 13.89,0.156 -0.62,-4.064 -13.51,-0.625 z"
   style="fill:#373837;fill-rule:nonzero"
   id="path18" />
            </g>
            <g
   transform="matrix(2.00022,0,0,2.00022,-4382.66,-863.694)"
   id="g20">
                <path
   d="m 4424.9,823.5 2.88,8.875 -2.17,3.599 -2.93,0.235 -2.15,-3.146 0.12,-9.188"
   style="fill:#dbdad7;fill-rule:nonzero"
   id="path19" />
            </g>
            <g
   transform="matrix(2.00022,0,0,2.00022,-4382.66,-863.694)"
   id="g21">
                <path
   d="m 4397.52,740.751 -2.06,6.703 5.52,-0.891 -0.05,-4.438 6.35,-1.625 -0.32,-1.687 z"
   style="fill:#292b29;fill-rule:nonzero"
   id="path20" />
            </g>
            <g
   transform="matrix(2.00022,0,0,2.00022,-4382.66,-863.694)"
   id="g22">
                <path
   d="m 4406.55,739.091 1.3,3.352 5.78,1.413 0.19,2.461 5.87,-0.646 -2.74,-6.55 -8.83,-0.331 z"
   style="fill:#292b29;fill-rule:nonzero"
   id="path21" />
            </g>
            <g
   transform="matrix(2.00022,0,0,2.00022,-4382.66,-863.694)"
   id="g23">
                <path
   d="m 4413.43,741.335 1.71,-0.185 0.2,3.482 -1.76,0.09 z"
   style="fill:#72594b;fill-rule:nonzero"
   id="path22" />
            </g>
            <g
   transform="matrix(2.00022,0,0,2.00022,-4382.66,-863.694)"
   id="g24">
                <path
   d="m 4401.04,742.228 -1.91,-0.155 0.21,3.804 1.73,0.091 z"
   style="fill:#72594b;fill-rule:nonzero"
   id="path23" />
            </g>
            <g
   transform="matrix(2.00022,0,0,2.00022,-4382.66,-863.694)"
   id="g25">
                <path
   d="m 4398.88,740.585 9.48,-1.814 6.66,0.2 2.36,-4.172 -7.12,-7.049 -5.3,0.042 -9.64,9.699 z"
   style="fill:#36823f;fill-rule:nonzero"
   id="path24" />
            </g>
            <g
   transform="matrix(2.00022,0,0,2.00022,-4382.66,-863.694)"
   id="g26">
                <path
   d="m 4398.88,740.585 9.48,-1.814 7.06,0.276 1.96,-4.232 -10.58,-0.243 -11.41,2.994 z"
   style="fill:#669c46;fill-rule:nonzero"
   id="path25" />
            </g>
            <g
   transform="matrix(2.00022,0,0,2.00022,-4382.66,-863.694)"
   id="g27">
                <path
   d="m 4415.08,837.086 3.05,0.415 -1.83,-32.513 -5.29,-1.704 -3.9,0.03 -5.77,1.811 -1.19,32.75 3.37,-0.672 1.52,-29.726 2.17,-1.026 3.94,0.03 1.72,0.908 z"
   style="fill:#ecdbb2;fill-rule:nonzero"
   id="path26" />
            </g>
            <g
   transform="matrix(2.00022,0,0,2.00022,-4382.66,-863.694)"
   id="g28">
                <path
   d="m 4413.79,836.919 4.59,0.633 v 1.215 l -4.55,0.99 z"
   style="fill:#5b5d5e;fill-rule:nonzero"
   id="path27" />
            </g>
            <g
   transform="matrix(2.00022,0,0,2.00022,-4382.66,-863.694)"
   id="g29">
                <path
   d="m 4405.08,836.919 -4.95,0.902 v 1.182 l 4.91,0.754 z"
   style="fill:#5b5d5e;fill-rule:nonzero"
   id="path28" />
            </g>
            <g
   transform="matrix(2.00022,0,0,2.00022,-4382.66,-863.694)"
   id="g30">
                <rect
   x="4426.46"
   y="778.49902"
   width="0.25"
   height="0.125"
   style="fill:#c19f3e;fill-rule:nonzero"
   id="rect29" />
            </g>
        </g>
    </g></svg>
