<?xml version="1.0" encoding="UTF-8" standalone="no"?>
<svg
   width="125.09619"
   height="179.03673"
   viewBox="0 0 125.09619 179.03673"
   version="1.1"
   xml:space="preserve"
   style="clip-rule:evenodd;fill-rule:evenodd;stroke-linejoin:round;stroke-miterlimit:2"
   id="svg31"
   sodipodi:docname="biker-pes-inbound.svg"
   inkscape:version="1.3.2 (091e20ef0f, 2023-11-25, custom)"
   xmlns:inkscape="http://www.inkscape.org/namespaces/inkscape"
   xmlns:sodipodi="http://sodipodi.sourceforge.net/DTD/sodipodi-0.dtd"
   xmlns="http://www.w3.org/2000/svg"
   xmlns:svg="http://www.w3.org/2000/svg"><defs
   id="defs31" /><sodipodi:namedview
   id="namedview31"
   pagecolor="#ffffff"
   bordercolor="#666666"
   borderopacity="1.0"
   inkscape:showpageshadow="2"
   inkscape:pageopacity="0.0"
   inkscape:pagecheckerboard="0"
   inkscape:deskcolor="#d1d1d1"
   inkscape:zoom="2.95"
   inkscape:cx="35.084746"
   inkscape:cy="88.983051"
   inkscape:window-width="952"
   inkscape:window-height="1015"
   inkscape:window-x="960"
   inkscape:window-y="0"
   inkscape:window-maximized="1"
   inkscape:current-layer="svg31" />
    
<g
   id="g39"
   style="clip-rule:evenodd;fill-rule:evenodd;stroke-linejoin:round;stroke-miterlimit:2"
   transform="translate(10.801529,-52.64022)"><g
     id="g38"
     transform="matrix(-1,0,0,1,32.582948,45.399516)"><g
       id="g32"
       transform="translate(-81.711715,7.2407041)"><g
         id="g37"><path
           style="fill:#03adb0;fill-opacity:1;stroke:none;stroke-width:1.4115px;stroke-linecap:butt;stroke-linejoin:miter;stroke-opacity:1"
           d="M 79.136134,0 91.22407,65.723623 20.56353,81.56499 2.9008614,32.71986 0,19.656587 10.82517,16.967728 Z"
           id="path25-7"
           sodipodi:nodetypes="ccccccc" /><g
           id="g36"><path
             style="fill:#03adb0;fill-opacity:1;stroke:#cead80;stroke-width:4.7811;stroke-linecap:butt;stroke-linejoin:miter;stroke-dasharray:none;stroke-opacity:1"
             d="M 102.89083,141.80697 78.099574,8.0448022"
             id="path28-65" /><path
             style="fill:#039597;fill-opacity:1;stroke:none;stroke-width:1.4115px;stroke-linecap:butt;stroke-linejoin:miter;stroke-opacity:1"
             d="M 79.136134,0 91.22407,65.723623 20.278519,81.088926 53.011921,7.3096292 Z"
             id="path36"
             sodipodi:nodetypes="ccccc" /></g></g><g
         id="Calque_1"
         transform="matrix(0.05835875,0,0,0.05835875,-53.746423,-38.95157)">
	<g
   id="g35"
   transform="matrix(-1,0,0,1,3476.5137,0)">
		<path
   class="st22"
   d="m 2109.8783,1498.2422 c -0.5979,-0.206 -1.2009,0.088 -1.4069,0.6859 0,0 -1.235,3.4878 -3.3989,9.8665 -0.516,1.5949 -1.134,3.3888 -1.854,5.3817 -0.7189,1.8929 -1.6409,4.0838 -2.4639,6.3757 -0.923,2.2909 -1.848,4.7817 -2.8739,7.3716 -1.026,2.5898 -2.354,5.3767 -3.5829,8.2645 -5.0169,11.6504 -11.8547,25.3827 -20.6084,40.6958 -8.8527,15.2122 -19.8193,31.8032 -33.3888,48.6683 -13.5694,16.865 -29.6408,33.905 -48.204,50.12 -4.5418,4.1548 -9.4806,8.0055 -14.4204,11.9563 -2.4209,2.0758 -5.0388,3.8497 -7.5587,5.8246 -2.5189,1.8749 -5.0388,3.8498 -7.7576,5.7227 -2.6189,1.8738 -5.3368,3.6467 -8.0557,5.5196 -1.3089,0.8869 -2.7189,1.8729 -4.0278,2.7598 -1.409,0.886 -2.8179,1.7719 -4.1268,2.6589 -2.8179,1.7718 -5.5358,3.5447 -8.3537,5.3166 -2.8168,1.6719 -5.7337,3.3428 -8.6506,5.0137 -23.137,13.5691 -48.6488,24.6143 -75.2385,33.4486 -13.4424,4.1657 -26.9818,8.0304 -40.9091,10.6911 -6.9157,1.5309 -13.9263,2.5607 -20.939,3.7906 -3.5058,0.5649 -7.0096,0.9299 -10.6145,1.3938 -3.5048,0.465 -7.0096,0.9299 -10.6124,1.1939 l -10.6095,0.8938 c -1.8019,0.182 -3.5028,0.265 -5.3028,0.247 l -5.3027,0.2469 -5.3027,0.247 c -0.9,-0.01 -1.8009,0.082 -2.7009,0.073 l -2.6999,-0.027 c -3.4998,-0.035 -7.1006,0.029 -10.6004,-0.01 l -2.6999,-0.027 -2.4989,-0.125 -5.3977,-0.2541 -5.3977,-0.254 c -1.7989,-0.118 -3.4979,-0.235 -5.1968,-0.352 l -5.1967,-0.3521 c -1.6989,-0.117 -3.4978,-0.235 -5.1957,-0.452 -3.4969,-0.335 -6.9927,-0.77 -10.3895,-1.104 -13.8833,-1.7391 -27.4586,-4.2751 -40.8299,-7.2091 -13.2703,-3.0329 -26.2326,-6.8629 -38.79,-11.1888 -25.1156,-8.5518 -48.4074,-19.4854 -69.3872,-31.596 -2.5848,-1.526 -5.1697,-3.0519 -7.7546,-4.5779 -2.4838,-1.6249 -5.0687,-3.1509 -7.5525,-4.7758 -1.192,-0.812 -2.4849,-1.525 -3.6768,-2.3369 -1.192,-0.812 -2.3839,-1.624 -3.5758,-2.4359 -2.3839,-1.624 -4.7678,-3.2479 -7.1516,-4.8719 -4.5668,-3.3458 -9.2345,-6.5927 -13.5003,-10.0356 -2.1828,-1.7219 -4.3667,-3.3439 -6.4496,-5.0648 -2.0829,-1.7209 -4.1657,-3.4419 -6.1486,-5.1618 -16.2641,-13.6635 -30.0273,-27.4019 -41.3986,-40.3164 -2.8678,-3.2288 -5.6366,-6.3567 -8.1055,-9.4816 -2.5688,-3.1258 -5.0397,-6.0507 -7.3095,-9.0736 -2.2709,-2.9229 -4.5428,-5.7457 -6.5156,-8.4656 -1.9729,-2.7199 -3.9458,-5.4398 -5.7217,-7.8577 -1.7749,-2.5179 -3.3508,-4.9338 -4.9277,-7.2497 -1.5769,-2.3159 -3.0558,-4.4308 -4.2357,-6.4427 -1.2799,-2.0129 -2.4608,-3.9248 -3.5438,-5.6357 -0.5919,-0.806 -1.0829,-1.711 -1.5759,-2.4159 -0.4919,-0.805 -0.8849,-1.509 -1.3779,-2.2139 -3.3428,-5.7338 -5.2126,-8.7526 -5.2126,-8.7526 l -0.197,-0.302 c -2.9508,-4.9298 -9.2335,-6.6928 -14.3623,-3.844 -5.1287,2.8488 -6.8937,9.3315 -4.0449,14.4603 0,0 1.8679,3.2188 5.2067,9.3526 3.4397,6.0347 8.8514,14.8893 16.1439,25.6628 7.3925,10.7746 16.8649,23.57 28.9282,37.2914 5.9317,6.8597 12.6613,13.9274 19.8888,21.2002 1.7819,1.8179 3.6648,3.5368 5.5467,5.3557 1.8819,1.819 3.8638,3.6389 5.7457,5.4578 1.9818,1.8199 4.0647,3.5409 6.0456,5.4608 0.9909,0.91 2.0819,1.8209 3.0728,2.7309 1.091,0.911 2.1819,1.8219 3.2738,2.6329 2.1819,1.8219 4.3638,3.6439 6.5457,5.4658 2.1818,1.8219 4.5647,3.5458 6.8466,5.3688 4.5637,3.6458 9.4304,6.9947 14.2942,10.6436 2.4828,1.7249 5.0657,3.4509 7.5485,5.1758 1.292,0.813 2.5829,1.7259 3.8748,2.5389 1.2919,0.813 2.5839,1.6259 3.9748,2.5399 2.6838,1.627 5.2667,3.3529 7.9505,4.9798 2.7839,1.628 5.4677,3.2549 8.2516,4.8829 11.1364,6.4117 22.8757,12.5296 35.2221,17.9534 3.0858,1.431 6.1726,2.7619 9.3604,3.9939 3.1869,1.3319 6.2737,2.6629 9.5615,3.8959 3.1879,1.2319 6.4757,2.4649 9.6635,3.6969 3.2888,1.133 6.5777,2.2659 9.8665,3.3989 13.3573,4.3339 27.1206,8.0719 41.1918,11.0128 14.0713,2.941 28.5496,5.186 43.1358,6.6321 3.6968,0.337 7.2946,0.573 10.9915,0.9101 1.7979,0.218 3.6978,0.237 5.5967,0.356 l 5.5977,0.256 c 1.8989,0.1191 3.7978,0.2381 5.5977,0.2561 l 5.3997,0.054 5.3998,0.054 2.8998,0.029 2.8009,-0.072 c 3.7008,-0.063 7.4016,-0.1259 11.1034,-0.2889 l 2.8009,-0.072 c 0.8999,0.01 1.8009,-0.082 2.8019,-0.172 l 5.6037,-0.3439 5.6037,-0.3439 c 1.8009,-0.082 3.7028,-0.263 5.6047,-0.444 l 11.1125,-1.1888 c 3.7038,-0.363 7.4096,-0.9259 11.0154,-1.4898 3.7059,-0.563 7.4107,-1.0259 11.0175,-1.6898 7.3147,-1.4269 14.6273,-2.6538 21.746,-4.4826 14.4333,-3.2557 28.5776,-7.6144 42.325,-12.277 27.4997,-9.8253 53.5255,-22.2654 77.0744,-37.0304 2.9189,-1.8709 5.8368,-3.6418 8.7557,-5.5127 2.8198,-1.9719 5.6387,-3.8437 8.4586,-5.8156 1.4099,-0.986 2.8189,-1.8719 4.2288,-2.8578 1.4099,-0.986 2.7199,-1.9729 4.0308,-3.0598 2.7199,-1.9729 5.4408,-4.0458 8.0607,-6.0197 2.6209,-2.0738 5.2418,-4.1477 7.7627,-6.2226 2.5209,-2.0749 5.1407,-4.0487 7.5626,-6.2246 4.8438,-4.3517 9.7846,-8.4025 14.3294,-12.8572 18.4753,-17.416 34.2567,-35.4589 47.4342,-53.1279 13.1775,-17.669 23.7511,-34.9641 32.1088,-50.6812 8.3588,-15.8171 14.7006,-29.9544 19.2215,-42.0097 1.1299,-2.9889 2.2579,-5.7777 3.2849,-8.4676 0.927,-2.6908 1.7519,-5.1827 2.5759,-7.5746 0.824,-2.3918 1.545,-4.4847 2.265,-6.4776 0.62,-1.9939 1.1389,-3.8888 1.6549,-5.4837 1.966,-6.5807 3.001,-10.0705 3.001,-10.0705 -0.193,-0.702 -0.587,-1.3059 -1.085,-1.5109 z"
   id="path27-5"
   style="fill:#ffffff" />
		<path
   class="st22"
   d="m 1458.4597,1097.2022 c 2.1189,-1.8789 4.6408,-4.0538 7.5686,-6.8246 3.1249,-2.4689 6.6548,-5.4337 10.6866,-8.5935 3.9328,-3.2608 8.5666,-6.6146 13.6034,-10.2644 1.209,-0.8879 2.5189,-1.8748 3.8278,-2.7618 1.31,-0.9869 2.6199,-1.9739 4.0289,-2.8598 2.8188,-1.8719 5.6377,-3.7438 8.6576,-5.7136 1.5099,-0.985 3.0199,-1.9699 4.5308,-3.0548 1.5099,-0.985 3.2188,-1.8679 4.8288,-2.8519 3.2198,-1.9678 6.6397,-3.9337 10.0605,-5.9996 0.805,-0.4919 1.7099,-0.9829 2.6159,-1.5739 0.905,-0.4909 1.8099,-0.9819 2.7149,-1.4729 1.8099,-0.9819 3.6198,-1.9638 5.5297,-2.9448 1.81,-0.9819 3.7199,-1.9628 5.6298,-2.9438 0.9049,-0.4909 1.9099,-0.9809 2.8149,-1.4719 1.0049,-0.4899 2.0089,-0.8799 2.9138,-1.3709 3.9188,-1.8608 8.0377,-3.7197 12.1575,-5.6786 2.0099,-0.9799 4.2188,-1.8578 6.3277,-2.7368 2.1089,-0.8789 4.3178,-1.7569 6.5267,-2.6348 2.2089,-0.8779 4.4178,-1.7559 6.6277,-2.7338 2.2079,-0.7779 4.5168,-1.6549 6.8247,-2.4318 2.3078,-0.7769 4.6167,-1.6539 6.9246,-2.4308 2.3079,-0.777 4.6178,-1.7539 7.0237,-2.3298 4.8148,-1.4519 9.6295,-2.9038 14.5443,-4.3547 4.9138,-1.3509 10.0255,-2.4998 15.1383,-3.7487 5.1137,-1.3488 10.3235,-2.2967 15.5342,-3.3446 2.6049,-0.474 5.2118,-1.1479 7.9167,-1.6209 2.7038,-0.3729 5.4107,-1.0459 8.0146,-1.4198 21.5329,-3.1847 43.9498,-4.76041 66.6487,-4.53321 l 4.2998,0.043 4.1928,0.742 c 2.8988,0.12902 5.7917,0.85801 8.7905,0.98803 1.4999,0.015 2.8979,0.22902 4.2968,0.34302 l 4.1968,0.34203 c 2.7978,0.22801 5.5957,0.45603 8.4925,0.78504 2.8969,0.32899 5.6938,0.65699 8.5906,0.98599 l 4.2948,0.5431 4.2938,0.643 8.4865,1.385 c 2.7949,0.528 5.6897,1.057 8.4846,1.585 5.6897,1.057 11.2764,2.413 16.8641,3.669 2.7939,0.628 5.5857,1.456 8.2786,2.183 2.7928,0.728 5.5857,1.4559 8.2775,2.2829 2.6919,0.827 5.4838,1.655 8.1746,2.582 l 4.0878,1.241 3.9858,1.4399 c 2.6908,0.927 5.3817,1.854 7.9726,2.78 2.6898,1.0269 5.2797,2.0529 7.8695,3.0789 5.2808,1.9529 10.3575,4.3039 15.5362,6.4558 2.5899,1.026 5.0767,2.3509 7.5656,3.4759 2.4878,1.225 5.0777,2.2509 7.5656,3.4759 9.8504,4.9988 19.6019,9.8967 28.7474,15.3885 9.3485,5.1938 18.191,10.9826 26.8345,16.6694 2.1859,1.422 4.2708,2.9429 6.3566,4.3638 2.0859,1.421 4.1708,2.9419 6.2567,4.3629 1.9849,1.5199 4.0698,3.0409 6.0556,4.4608 1.9849,1.52 4.0708,2.9409 5.9557,4.4599 15.5801,12.0565 29.5563,24.497 41.8346,36.7205 12.1782,12.2225 22.8596,24.13 31.7501,35.1195 2.2728,2.7229 4.3457,5.4438 6.4196,8.0647 0.9869,1.3099 2.0748,2.5209 3.0618,3.8308 0.9869,1.31 1.8748,2.5189 2.7618,3.8279 1.8759,2.4189 3.6518,4.8368 5.3287,7.1537 1.5769,2.3159 3.1548,4.5318 4.6337,6.6467 2.9588,4.1298 5.4196,8.0546 7.6865,11.3775 1.0829,1.7109 2.1678,3.2218 3.0538,4.6308 0.8859,1.4089 1.7729,2.7179 2.4608,3.9248 2.9538,4.6298 4.5287,7.1457 4.5287,7.1457 l 2.0099,-0.9799 c 0,0 -0.9719,-2.8099 -3.0197,-8.0307 -0.487,-1.3049 -1.072,-2.8108 -1.6559,-4.4168 -0.684,-1.6069 -1.3669,-3.3138 -2.2479,-5.2227 -1.6628,-3.7169 -3.3197,-8.0337 -5.7725,-12.7584 -1.176,-2.4119 -2.3519,-4.8238 -3.6258,-7.4367 -1.3739,-2.6139 -2.7478,-5.2278 -4.2197,-8.0426 -0.786,-1.408 -1.5719,-2.8159 -2.3579,-4.2238 -0.7859,-1.408 -1.6708,-2.9169 -2.5568,-4.3259 -1.7709,-2.9178 -3.5398,-6.0357 -5.5086,-9.1555 -7.7755,-12.4785 -17.3409,-25.9749 -29.0022,-39.8923 -1.4829,-1.715 -2.8648,-3.5289 -4.4477,-5.2448 -1.5829,-1.7159 -3.0658,-3.4309 -4.6477,-5.2468 -3.0649,-3.5308 -6.4307,-6.9647 -9.8955,-10.4996 -3.3648,-3.5338 -7.0305,-6.9707 -10.6953,-10.5075 -0.891,-0.909 -1.8829,-1.719 -2.7739,-2.6279 -0.9919,-0.81 -1.8828,-1.719 -2.8748,-2.5289 -1.8829,-1.719 -3.8658,-3.4389 -5.8487,-5.1588 -15.763,-13.7585 -33.634,-26.738 -53.3189,-38.3356 -2.4859,-1.425 -4.9718,-2.8499 -7.4576,-4.2749 -2.5869,-1.3259 -5.0727,-2.7509 -7.6596,-4.0768 -1.2929,-0.713 -2.5869,-1.326 -3.8798,-2.039 -1.2939,-0.6129 -2.5878,-1.2259 -3.9808,-1.9399 -2.5878,-1.226 -5.2747,-2.5529 -7.9625,-3.7799 -2.6879,-1.2269 -5.3767,-2.3539 -8.0646,-3.5809 -2.6888,-1.1269 -5.3767,-2.3539 -8.1666,-3.3819 -5.5797,-2.0559 -11.0574,-4.3109 -16.7391,-6.1679 -2.7908,-0.928 -5.6807,-1.95695 -8.4715,-2.88493 -2.8919,-0.82898 -5.7827,-1.75796 -8.5746,-2.58595 l -4.2867,-1.34297 -4.3888,-1.14399 c -2.8928,-0.72899 -5.8847,-1.55897 -8.7775,-2.28796 -2.8929,-0.72899 -5.8867,-1.35899 -8.8796,-2.08898 -2.9938,-0.63 -5.8867,-1.35899 -8.8815,-1.88899 -5.9887,-1.16 -11.8774,-2.31899 -17.8691,-3.17901 -2.9958,-0.43 -5.9907,-0.96001 -8.9865,-1.39001 l -8.9896,-1.09003 -4.4947,-0.54502 -4.4968,-0.34502 c -2.9979,-0.23002 -5.9957,-0.46003 -8.9926,-0.79004 -2.9978,-0.23002 -6.0976,-0.26105 -9.0955,-0.49106 l -4.5978,-0.24604 c -1.4989,-0.115 -2.9988,-0.13002 -4.4987,-0.14503 -2.8999,-0.029 -5.7997,-0.058 -8.8006,0.0119 l -4.4998,-0.045 -4.5017,0.15495 c -3.0009,0.07 -5.9028,0.24093 -8.9036,0.3109 l -4.4018,0.15595 c -1.5009,0.085 -2.9008,0.071 -4.4028,0.25595 -5.9057,0.54091 -11.7114,1.08283 -17.4171,1.62575 -11.5155,1.48482 -22.9319,3.07064 -33.8564,5.46141 -2.7058,0.57295 -5.5107,1.0449 -8.2166,1.61785 -2.7068,0.67294 -5.4137,1.34588 -8.1206,2.01882 -5.3137,1.34688 -10.7255,2.49277 -15.8432,4.24164 -5.2158,1.54787 -10.3305,2.99675 -15.3473,4.64662 -5.0178,1.74989 -9.9355,3.50079 -14.7533,5.25269 -2.4079,0.7759 -4.8188,1.8518 -7.1277,2.7288 -2.3099,0.9769 -4.7198,1.9528 -7.0287,2.8297 -2.3099,0.977 -4.6188,1.8539 -6.8287,2.8318 -2.2109,1.078 -4.4208,2.0559 -6.6316,3.1338 -2.2099,0.978 -4.3209,2.0569 -6.5308,3.0348 -2.1099,0.9789 -4.3198,1.9569 -6.3317,3.1368 -4.1218,2.1588 -8.1436,4.3187 -12.0644,6.3796 -1.005,0.4899 -2.0109,1.0799 -2.9159,1.5709 -1.0059,0.5899 -1.9109,1.0809 -2.8169,1.6718 -1.9109,1.081 -3.7228,2.2629 -5.5337,3.3448 -1.8109,1.082 -3.6219,2.1639 -5.4328,3.2458 -0.9049,0.491 -1.8109,1.0819 -2.7159,1.5729 -0.9059,0.591 -1.7109,1.0829 -2.5168,1.6749 -3.4229,2.2659 -6.7448,4.4327 -9.9666,6.6006 -1.6109,1.0839 -3.2209,2.0678 -4.7318,3.1528 -1.5109,1.0849 -3.0219,2.1698 -4.4328,3.2558 -2.9219,2.1708 -5.7428,4.2427 -8.4626,6.2156 -1.41,0.9859 -2.7199,1.9729 -3.9309,3.0608 -1.3099,0.9869 -2.5199,1.9749 -3.7298,2.9628 -4.8398,3.9518 -9.3756,7.5065 -13.2115,11.0683 -3.8348,3.4618 -7.3657,6.5266 -10.3925,9.1965 -2.8279,2.7718 -5.2528,5.2477 -7.2717,7.1276 -3.9389,3.8607 -6.0598,5.9396 -6.0598,5.9396 l 1.5839,1.6159 c -0.104,0.399 2.1159,-1.5789 6.2528,-5.2376 z"
   id="path28-6"
   style="fill:#ffffff" />
		<path
   class="st22"
   d="m 1729.3596,1258.4216 c 9.2256,-2.5078 17.5122,-11.1253 19.0153,-21.4107 1.102,-10.1895 -5.9526,-14.7604 -15.2782,-12.2536 -8.9245,2.4108 -17.5122,11.1253 -18.6142,21.3148 -1.5021,10.1855 5.9535,14.6603 14.8771,12.3495 z"
   id="path29"
   style="fill:#ffffff" />
		<path
   class="st22"
   d="m 1839.6601,1258.9256 c 12.6414,-4.0737 19.1931,-9.2083 22.4661,-26.4764 4.002,-20.161 -19.8748,-22.6001 -39.1269,-17.4925 -22.5619,6.0745 -41.4911,18.8856 -47.8889,38.6226 -5.9939,19.341 4.0364,36.3422 31.716,38.5194 31.0754,2.6111 31.6673,13.4176 26.7485,25.2689 -6.2369,13.6383 -20.7302,22.8937 -38.8664,26.4124 -19.142,4.1086 -28.5934,-10.7868 -13.662,-33.8385 9.3377,-13.7072 10.0677,-16.7 -2.5667,-13.3263 -12.3334,3.2767 -22.609,10.7742 -26.8849,28.3323 -2.298,9.7775 -1.1661,16.5892 2.0877,21.222 -3.1349,3.4688 -6.3558,5.5366 -9.9646,6.4005 -10.6225,2.1938 -14.8391,-16.1493 -11.54,-46.0178 l 1.075,-7.4896 c 2.3041,-20.3779 7.91,-40.9229 -6.4903,-30.9665 -19.2382,13.7081 -16.3765,27.5375 -18.5495,44.8166 -1.6521,15.1842 -0.9622,26.1917 1.4596,34.0163 -5.2209,12.0484 -11.2846,18.388 -17.8993,19.8219 -10.9235,2.2907 -15.9661,-13.4605 -11.547,-45.3179 8.3651,-56.4191 16.7628,-66.1355 -6.2002,-59.965 -30.1815,7.9983 -35.9872,8.5402 -23.0687,-13.2316 6.2058,-10.5384 -16.6501,-5.0669 -21.9389,3.7806 -6.9208,12.0313 -9.1768,27.6095 1.0616,33.8123 0.398,0.204 0.469,3.1049 0.564,3.6058 0.1879,1.202 0.3759,2.4039 0.4629,3.7049 0.276,2.4028 0.5509,4.9057 0.7259,7.4076 0.3479,5.2037 0.4949,10.5055 0.2428,15.7032 -0.5401,13.9953 -2.0851,28.4806 -6.12,41.9409 -2.278,7.7776 -5.9789,17.841 -13.9176,21.6618 -1.6079,0.7839 -3.3118,1.1669 -5.1127,1.2488 -9.2026,0.2079 -14.3572,-14.3444 -14.7259,-37.4492 1.9489,-4.8808 3.7009,-10.0635 5.1569,-15.6492 11.6518,-45.0856 -10.446,-55.4073 -37.4717,-52.9777 -10.9114,1.0909 -23.0509,4.9695 -34.4154,11.3561 -16.6942,9.3334 -13.1454,14.4692 1.7349,6.5177 8.9486,-4.8107 18.3781,-7.7164 26.9837,-8.2303 20.715,-1.3928 25.1316,16.9524 17.6377,46.2788 -10.3079,40.6989 -27.9052,60.3237 -46.5272,62.4375 -22.327,2.5766 -25.3325,-26.8549 2.0133,-51.2824 7.4687,-6.8256 15.4184,-11.7463 22.757,-15.5731 6.6347,-3.4337 7.6018,-10.1244 -1.6428,-5.7167 -15.0713,7.0495 -33.4765,17.4658 -48.5249,32.2159 -19.2892,18.8079 -17.8396,53.8242 20.9075,49.3118 20.125,-2.3987 39.4261,-12.406 54.2006,-29.759 6.4565,14.3653 17.5219,17.8762 27.8284,17.2794 12.5084,-0.7749 21.1231,-12.1892 25.7289,-22.7437 4.0929,-9.2595 5.9939,-19.3409 7.6939,-29.3244 1.487,-8.6856 2.3741,-17.3771 2.4621,-26.1767 0.078,-7.7996 -0.8448,-15.5092 -1.5667,-23.3168 5.7917,0.858 14.3013,-0.057 25.3418,-4.0466 0,0 -2.118,11.7794 -7.229,42.8298 -7.6951,49.4255 14.1588,54.1444 30.901,50.0118 9.1225,-2.2088 18.3991,-9.8164 26.1399,-23.8396 5.8926,10.7595 16.2801,12.0636 26.2046,9.6628 6.3157,-1.5369 12.7584,-5.7726 18.6312,-13.0142 8.0395,6.0808 21.9438,5.7199 34.3712,3.0442 24.6538,-5.2535 53.5306,-22.7654 60.5474,-44.3962 5.9899,-18.941 4.8021,-40.154 -33.0789,-42.2332 -20.491,-1.0052 -30.6234,-7.8069 -29.2204,-18.0934 1.506,-10.5855 14.1955,-19.4589 30.6437,-24.1945 20.559,-5.7945 24.2227,7.8428 15.476,22.456 -8.5407,14.0152 -8.8697,16.9121 3.7757,12.4384 z"
   id="path30"
   style="fill:#ffffff" />
		<path
   class="st22"
   d="m 1775.6946,1444.9947 c 14.1383,-3.7587 27.5427,-14.125 32.9466,-34.4719 8.7569,-35.6142 -16.4627,-43.767 -43.4204,-38.1365 -29.0586,5.7094 -55.3795,27.6471 -66.9192,51.5328 -18.0824,38.1209 -4.3344,73.3602 40.1662,83.5062 29.3355,6.5939 51.6352,26.7181 38.3295,67.187 -13.3097,40.8688 -47.0133,71.033 -87.2674,76.2303 -41.8579,5.5814 -62.0516,-25.1223 -51.6698,-63.2203 7.8789,-27.8225 29.064,-46.2114 46.0953,-59.2416 15.4143,-11.3463 16.6573,-15.6341 2.977,-17.6711 -12.0804,-2.021 -24.5028,0.1548 -37.5823,18.0248 -9.7387,13.8032 -26.1531,45.1405 -29.6712,66.9063 -7.229,42.8298 16.1736,72.6656 66.5421,66.0694 46.3657,-6.3363 92.9418,-43.672 111.1363,-92.9924 17.7736,-47.2244 5.6225,-82.1478 -41.2891,-91.2178 -39.3219,-7.994 -51.2131,-28.914 -41.6264,-57.5195 5.7809,-18.043 22.8152,-31.3732 46.2711,-36.8387 25.3568,-5.5465 31.6372,16.4175 11.634,46.6188 -10.7626,16.193 -11.9936,19.2809 3.3477,15.2342 z"
   id="path31"
   style="fill:#ffffff" />
		<path
   class="st22"
   d="m 2170.0573,1390.7391 c -6.3769,27.6376 -31.5988,49.6862 -53.1438,54.0708 -19.5431,4.2046 -26.1666,-13.4626 -22.7645,-43.63 4.5182,-41.7569 18.7377,-63.6157 36.1849,-68.2413 20.857,-5.5915 18.8688,23.1901 -3.9123,51.1634 -6.1778,7.7386 -13.1375,13.6692 -19.6862,18.5039 -5.8427,4.2418 -5.9118,11.1414 2.3448,5.5238 13.3914,-9.0664 29.6208,-21.9047 42.0873,-38.4807 15.9134,-21.2418 18.6586,-55.716 -17.6397,-46.0789 -31.4855,8.3853 -58.0795,37.6206 -63.3436,83.9702 -0.661,6.0937 -0.9151,11.4915 -0.6631,16.2942 -8.7858,18.513 -20.4183,31.6972 -31.1618,35.9899 -17.2732,7.2275 -23.9996,-20.1412 -22.2253,-67.5258 2.2555,-65.4807 14.0033,-100.1649 29.3836,-108.1113 18.3951,-9.4164 17.8437,35.6804 -1.3017,80.091 -5.2249,12.4483 -11.1197,21.8898 -16.7985,29.7333 -5.0698,6.9496 -4.7759,17.5531 2.3148,8.5236 11.5466,-14.5851 25.4541,-35.247 35.9188,-61.6436 13.3397,-33.8681 14.2801,-87.8614 -17.7854,-71.4816 -27.7438,14.2231 -50.3131,60.9995 -52.9406,133.6769 -0.2731,7.2976 -0.3401,13.9973 -0.1012,20.1 -8.7938,29.3134 -24.7132,51.1552 -39.2726,57.0097 -17.2732,7.2275 -23.9996,-20.1412 -22.2262,-67.4258 2.2545,-65.3807 14.0022,-100.0649 29.3815,-107.9113 18.3952,-9.4164 17.8438,35.6804 -1.3007,79.991 -5.2248,12.4483 -11.1196,21.8898 -16.7974,29.6333 -5.0698,6.9496 -4.7759,17.5531 2.3148,8.5236 11.5466,-14.5851 25.4541,-35.247 35.9188,-61.6436 13.3386,-33.7682 14.2791,-87.7614 -17.7865,-71.3816 -27.7437,14.2231 -50.312,60.8995 -52.9396,133.5769 -0.4281,12.7963 -0.2362,23.5988 0.5717,32.8073 -0.104,0.399 -0.209,0.898 -0.414,1.396 -6.3769,27.6375 -31.5989,49.6862 -53.1438,54.0708 -19.5431,4.2046 -26.1666,-13.4626 -22.7645,-43.6301 4.5182,-41.7568 18.7377,-63.6156 36.1848,-68.2412 20.857,-5.5915 18.8689,23.19 -3.9123,51.1634 -6.1777,7.7385 -13.1374,13.6692 -19.6861,18.5039 -5.8428,4.2417 -5.9118,11.1414 2.3448,5.5237 13.3914,-9.0664 29.6207,-21.9046 42.0872,-38.4807 15.9134,-21.2418 18.6586,-55.716 -17.6396,-46.0788 -31.4855,8.3853 -58.0795,37.6206 -63.3437,83.9702 -5.2641,46.3496 17.2637,53.6755 42.5265,47.528 22.2579,-5.6775 48.0488,-24.6203 59.6265,-52.3058 5.9934,30.6615 21.2586,34.2145 37.6348,26.678 15.4763,-7.5455 32.5827,-28.0753 43.5814,-57.8667 4.3934,40.646 21.1415,45.9139 39.2267,37.4945 12.2604,-5.9776 25.6039,-20.2448 36.0096,-40.7416 5.2875,21.2539 22.6586,24.228 41.7047,19.7184 25.3658,-6.4465 55.3035,-30.048 63.4464,-64.2682 2.194,-9.3785 -4.3167,-8.3437 -6.0997,-0.061 z"
   id="path32"
   style="fill:#ffffff" />
		<path
   class="st22"
   d="m 1602.9458,1488.9679 c 5.7097,-0.9429 10.3865,-8.5965 12.3626,-26.1776 l 2.5251,-22.4758 c 2.1941,-19.379 6.037,-33.6413 -2.6236,-27.6277 -10.9785,7.7905 -9.8947,19.402 -12.7368,43.5747 l -1.6561,15.5842 c -6.2017,10.1385 -16.4763,17.536 -25.5959,19.4448 -11.1244,2.3888 -14.9241,-7.6497 -13.0511,-24.9318 2.5381,-23.7758 10.6638,-36.2951 20.6904,-38.8949 11.9324,-3.1807 10.7683,13.2084 -2.2922,29.1785 -3.5449,4.4648 -7.4787,7.8256 -11.2065,10.5884 -3.3249,2.4668 -3.3639,6.3666 1.3689,3.1138 7.6516,-5.1236 16.9252,-12.4312 24.021,-21.9606 9.1216,-12.1093 10.6187,-31.7953 -10.0373,-26.3018 -17.9491,4.8206 -33.1165,21.4696 -36.1816,47.9403 -2.9651,26.4716 9.7942,30.5995 24.3295,27.1448 9.2236,-2.3078 19.5881,-8.7044 27.0828,-18.1298 -1.386,8.5865 -2.409,10.8764 3.0008,9.9305 z"
   id="path33"
   style="fill:#ffffff" />
		<path
   class="st22"
   d="m 1652.7688,1436.964 c 2.7621,-26.1737 -2.7696,-33.0294 -14.31,-29.0447 -5.3188,1.8469 -10.3656,6.4966 -15.1464,14.5491 -3.7649,6.4627 -1.088,8.7896 2.2708,2.9229 3.1609,-6.0687 5.7029,-10.2434 9.6157,-11.5043 6.4237,-2.3359 5.4016,9.8545 3.6315,26.8377 l -0.861,6.0916 c -2.9711,27.0717 7.6924,30.7786 17.2159,28.4738 8.4206,-2.0158 17.0223,-12.1303 21.7292,-32.7842 1.454,-5.3857 -2.4538,-4.6248 -3.4998,-0.035 -3.872,17.1621 -8.8578,25.7126 -15.0705,26.9505 -6.2137,1.3379 -8.5085,-9.1856 -6.5374,-26.2667 z"
   id="path34"
   style="fill:#ffffff" />
		<path
   class="st22"
   d="m 1441.4706,1405.7476 8.4455,-94.4202 c 15.5693,-6.8445 35.8874,-18.5418 54.8556,-35.2528 20.2801,-17.8979 45.4781,-47.5472 50.3753,-87.2001 1.977,-17.6811 -1.6806,-31.9184 -10.8781,-42.211 -9.9874,-11.3005 -26.5285,-17.2664 -47.7274,-17.4786 -15.8992,-0.1591 -34.2304,2.8575 -54.4934,9.055 -75.7344,23.0432 -110.9191,71.2934 -125.0877,98.053 -15.3905,28.9474 -20.9015,59.9938 -14.313,81.1608 3.7797,12.0384 10.9183,18.2102 21.3178,18.3143 5.8997,0.059 12.9183,-1.7708 20.757,-5.5926 10.1505,-4.9986 14.2833,-8.2574 14.5114,-11.0553 0.229,-2.8978 -3.8358,-6.4387 -10.3884,-11.2045 -17.673,-12.7775 -25.0915,-30.9527 -21.3755,-52.5166 7.3221,-42.1288 55.9911,-88.744 108.3466,-104.0208 12.5374,-3.6747 24.0558,-5.4595 34.2553,-5.3574 16.3992,0.1642 28.8505,5.089 37.155,14.6726 9.4905,10.9956 12.9261,27.4308 10.0111,48.9027 -5.2091,40.8499 -37.0939,79.1327 -66.6446,94.0377 l 1.7961,-19.583 c 4.5533,-55.2572 9.3392,-73.8103 -7.0831,-61.674 -19.4521,15.106 -18.9573,35.612 -21.4646,76.289 l -10.5076,120.6008 c -4.8983,59.754 -19.5379,93.6092 -45.4866,98.3497 -17.3342,3.3267 -24.2876,-21.3442 -1.7504,-54.9203 10.6606,-15.9941 12.1855,-18.4789 -1.9388,-16.1202 -13.9213,2.0608 -24.6499,14.854 -30.2308,32.8991 -9.8338,33.3032 4.8563,54.3513 30.913,48.8118 38.5872,-8.5142 71.2279,-52.3897 76.6303,-122.5391 z"
   id="path35"
   style="fill:#ffffff" />
	</g>
</g></g></g></g><g
   id="biker-01-inbound"
   transform="matrix(0.635,0,0,0.635,-2782.3566,-369.28321)">
        <g
   id="g31">
            <g
   transform="matrix(2.00022,0,0,2.00022,-4382.66,-863.694)"
   id="g1">
                <path
   d="m 4401.35,751.789 12.83,-0.74 -6,9.788 z"
   style="fill:#543e36;fill-rule:nonzero"
   id="path1" />
            </g>
            <g
   transform="matrix(2.00022,0,0,2.00022,-4382.66,-863.694)"
   id="g2">
                <path
   d="m 4401.89,830.589 -11.93,1.602 1.05,-4.925 11.8,-0.94 z"
   style="fill:#373837;fill-rule:nonzero"
   id="path2" />
            </g>
            <g
   transform="matrix(2.00022,0,0,2.00022,-4382.66,-863.694)"
   id="g3">
                <path
   d="m 4405.39,788.567 7.24,0.058 -1.71,-5.292 -5.07,-0.629 z"
   style="fill:#c19f3e;fill-rule:nonzero"
   id="path3" />
            </g>
            <g
   transform="matrix(2.00022,0,0,2.00022,-4382.66,-863.694)"
   id="g4">
                <path
   d="m 4408.72,783.848 -11.31,15.479 -0.51,24.173 -4.5,1.491 -1.57,-27.31 8.64,-21.095 9.7,0.532 7.11,-0.607 4.54,11.655 4.03,35.411 -3.95,0.986 -10.08,-40.593 z"
   style="fill:#5b5d5e;fill-rule:nonzero"
   id="path4" />
            </g>
            <g
   transform="matrix(2.00022,0,0,2.00022,-4382.66,-863.694)"
   id="g5">
                <path
   d="m 4392.34,823.688 -0.44,9.5 2.28,4.873 2.5,-0.156 1.33,-4.534 -1.11,-10.37 z"
   style="fill:#dbdad7;fill-rule:nonzero"
   id="path5" />
            </g>
            <g
   transform="matrix(2.00022,0,0,2.00022,-4382.66,-863.694)"
   id="g6">
                <path
   d="m 4407.02,822.692 -2.21,15.597 2.09,15.106 z"
   style="fill:#c2bfbc;fill-rule:nonzero"
   id="path6" />
            </g>
            <g
   transform="matrix(2.00022,0,0,2.00022,-4382.66,-863.694)"
   id="g7">
                <path
   d="m 4411.75,822.692 2.21,15.597 -2.09,15.106 z"
   style="fill:#c2bfbc;fill-rule:nonzero"
   id="path7" />
            </g>
            <g
   transform="matrix(2.00022,0,0,2.00022,-4382.66,-863.694)"
   id="g8">
                <path
   d="m 4407.29,815.626 -0.34,-24.596 3.94,0.009 0.27,24.411 z"
   style="fill:#ecdbb2;fill-rule:nonzero"
   id="path8" />
            </g>
            <g
   transform="matrix(2.00022,0,0,2.00022,-4382.66,-863.694)"
   id="g9">
                <path
   d="m 4408.12,814.367 -1.24,1.288 0.05,46.009 1.38,1.836 h 2.25 l 1.33,-2.07 -0.18,-46.009 -1.38,-1.054 z"
   style="fill:#292b29;fill-rule:nonzero"
   id="path9" />
            </g>
            <g
   transform="matrix(2.00022,0,0,2.00022,-4382.66,-863.694)"
   id="g10">
                <path
   d="m 4399.46,776.624 -0.91,-18.287 -8.8,8.825 -0.21,15.607 -3.89,-0.908 -0.06,-16.966 12.39,-12.782 3.37,-0.324 6.83,9.048 6,-9.788 3.05,0.159 13.6,14.081 0.6,17.964 -3.41,0.051 -0.68,-16.291 -10.54,-10.471 -0.52,19.916 -4.71,1.811 z"
   style="fill:#e5e2dc;fill-rule:nonzero"
   id="path10" />
            </g>
            <g
   transform="matrix(2.00022,0,0,2.00022,-4382.66,-863.694)"
   id="g12">
                <g
   opacity="0.5"
   id="g11">
                    <path
   d="m 4415.81,803.834 4.4,-18.333 -8.73,-7.232 -12.02,-1.73 -3.81,9.211 1.81,13.625 6.59,-9.125 2.96,0.875 4,11.459 v -11.626 l 1.5,-0.375 z"
   style="fill:#171817;fill-rule:nonzero"
   id="path11" />
                </g>
            </g>
            <g
   transform="matrix(2.00022,0,0,2.00022,-4382.66,-863.694)"
   id="g13">
                <path
   d="m 4407.11,791.108 3.54,0.039 8.51,-2.892 -0.51,-2.034 -8.09,2.307 -3.5,0.039 -7.97,-2.149 -0.51,2.247 z"
   style="fill:#ecdbb2;fill-rule:nonzero"
   id="path12" />
            </g>
            <g
   transform="matrix(2.00022,0,0,2.00022,-4382.66,-863.694)"
   id="g14">
                <path
   d="m 4417.7,785.53 0.28,4.377 17.91,-1.459 -0.74,-5.252 z"
   style="fill:#cead80;fill-rule:nonzero"
   id="path13" />
            </g>
            <g
   transform="matrix(2.00022,0,0,2.00022,-4382.66,-863.694)"
   id="g15">
                <path
   d="m 4399.87,785.969 -0.29,4.377 -17.9,-1.459 0.74,-5.251 z"
   style="fill:#cead80;fill-rule:nonzero"
   id="path14" />
            </g>
            <g
   transform="matrix(2.00022,0,0,2.00022,-4382.66,-863.694)"
   id="g16">
                <path
   d="m 4405.69,753.093 h 3.96 l 4.41,-4.499 -0.91,-12.695 -12.33,0.607 0.11,11.682 z"
   style="fill:#72594b;fill-rule:nonzero"
   id="path15" />
            </g>
            <g
   transform="matrix(2.00022,0,0,2.00022,-4382.66,-863.694)"
   id="g17">
                <path
   d="m 4385.29,783.603 1.18,3.677 5.94,1.483 -0.71,-3.752 2.04,0.157 -0.08,-1.408 -8.05,-1.8 z"
   style="fill:#72594b;fill-rule:nonzero"
   id="path16" />
            </g>
            <g
   transform="matrix(2.00022,0,0,2.00022,-4382.66,-863.694)"
   id="g18">
                <path
   d="m 4431.65,785.792 -0.7,1.252 -5.94,1.484 0.7,-3.753 -2.03,0.159 0.08,-1.408 8.2,-0.939 z"
   style="fill:#72594b;fill-rule:nonzero"
   id="path17" />
            </g>
            <g
   transform="matrix(2.00022,0,0,2.00022,-4382.66,-863.694)"
   id="g19">
                <path
   d="m 4415.49,829.884 13.89,0.156 -0.62,-4.064 -13.51,-0.625 z"
   style="fill:#373837;fill-rule:nonzero"
   id="path18" />
            </g>
            <g
   transform="matrix(2.00022,0,0,2.00022,-4382.66,-863.694)"
   id="g20">
                <path
   d="m 4424.9,823.5 2.88,8.875 -2.17,3.599 -2.93,0.235 -2.15,-3.146 0.12,-9.188"
   style="fill:#dbdad7;fill-rule:nonzero"
   id="path19" />
            </g>
            <g
   transform="matrix(2.00022,0,0,2.00022,-4382.66,-863.694)"
   id="g21">
                <path
   d="m 4397.52,740.751 -2.06,6.703 5.52,-0.891 -0.05,-4.438 6.35,-1.625 -0.32,-1.687 z"
   style="fill:#292b29;fill-rule:nonzero"
   id="path20" />
            </g>
            <g
   transform="matrix(2.00022,0,0,2.00022,-4382.66,-863.694)"
   id="g22">
                <path
   d="m 4406.55,739.091 1.3,3.352 5.78,1.413 0.19,2.461 5.87,-0.646 -2.74,-6.55 -8.83,-0.331 z"
   style="fill:#292b29;fill-rule:nonzero"
   id="path21" />
            </g>
            <g
   transform="matrix(2.00022,0,0,2.00022,-4382.66,-863.694)"
   id="g23">
                <path
   d="m 4413.43,741.335 1.71,-0.185 0.2,3.482 -1.76,0.09 z"
   style="fill:#72594b;fill-rule:nonzero"
   id="path22" />
            </g>
            <g
   transform="matrix(2.00022,0,0,2.00022,-4382.66,-863.694)"
   id="g24">
                <path
   d="m 4401.04,742.228 -1.91,-0.155 0.21,3.804 1.73,0.091 z"
   style="fill:#72594b;fill-rule:nonzero"
   id="path23" />
            </g>
            <g
   transform="matrix(2.00022,0,0,2.00022,-4382.66,-863.694)"
   id="g25">
                <path
   d="m 4398.88,740.585 9.48,-1.814 6.66,0.2 2.36,-4.172 -7.12,-7.049 -5.3,0.042 -9.64,9.699 z"
   style="fill:#36823f;fill-rule:nonzero"
   id="path24" />
            </g>
            <g
   transform="matrix(2.00022,0,0,2.00022,-4382.66,-863.694)"
   id="g26">
                <path
   d="m 4398.88,740.585 9.48,-1.814 7.06,0.276 1.96,-4.232 -10.58,-0.243 -11.41,2.994 z"
   style="fill:#669c46;fill-rule:nonzero"
   id="path25" />
            </g>
            <g
   transform="matrix(2.00022,0,0,2.00022,-4382.66,-863.694)"
   id="g27">
                <path
   d="m 4415.08,837.086 3.05,0.415 -1.83,-32.513 -5.29,-1.704 -3.9,0.03 -5.77,1.811 -1.19,32.75 3.37,-0.672 1.52,-29.726 2.17,-1.026 3.94,0.03 1.72,0.908 z"
   style="fill:#ecdbb2;fill-rule:nonzero"
   id="path26" />
            </g>
            <g
   transform="matrix(2.00022,0,0,2.00022,-4382.66,-863.694)"
   id="g28">
                <path
   d="m 4413.79,836.919 4.59,0.633 v 1.215 l -4.55,0.99 z"
   style="fill:#5b5d5e;fill-rule:nonzero"
   id="path27" />
            </g>
            <g
   transform="matrix(2.00022,0,0,2.00022,-4382.66,-863.694)"
   id="g29">
                <path
   d="m 4405.08,836.919 -4.95,0.902 v 1.182 l 4.91,0.754 z"
   style="fill:#5b5d5e;fill-rule:nonzero"
   id="path28" />
            </g>
            <g
   transform="matrix(2.00022,0,0,2.00022,-4382.66,-863.694)"
   id="g30">
                <rect
   x="4426.46"
   y="778.49902"
   width="0.25"
   height="0.125"
   style="fill:#c19f3e;fill-rule:nonzero"
   id="rect29" />
            </g>
        </g>
    </g></svg>
