<?xml version="1.0" encoding="UTF-8" standalone="no"?>
<svg width="100%" height="100%" viewBox="0 0 120 260" version="1.1" xml:space="preserve"
    style="fill-rule:evenodd;clip-rule:evenodd;stroke-linejoin:round;stroke-miterlimit:2;" id="svg29"
    sodipodi:docname="paris-wayfinding-pylon-large.svg" inkscape:version="1.3 (0e150ed6c4, 2023-07-21)"
    xmlns:inkscape="http://www.inkscape.org/namespaces/inkscape"
    xmlns:sodipodi="http://sodipodi.sourceforge.net/DTD/sodipodi-0.dtd" xmlns:xlink="http://www.w3.org/1999/xlink"
    xmlns="http://www.w3.org/2000/svg" xmlns:svg="http://www.w3.org/2000/svg">
    <defs id="defs29">
        <pattern inkscape:collect="always" xlink:href="#Strips1_5" preserveAspectRatio="xMidYMid" id="pattern141"
            patternTransform="matrix(1.1872673,0.74188704,-0.74188704,1.1872673,-0.6460228,1.3479195)" x="0" y="0" />
        <pattern inkscape:collect="always" patternUnits="userSpaceOnUse" width="6" height="1"
            patternTransform="translate(0,0) scale(2,2)" preserveAspectRatio="xMidYMid" id="Strips1_5"
            style="fill:#6db0dd" inkscape:stockid="Stripes 06 (1:5)" inkscape:isstock="true"
            inkscape:label="Rayures 1:5">&#10;
            <rect style="stroke:none" x="0" y="-0.5" width="1" height="2" id="rect164" />&#10;
        </pattern>
        <linearGradient id="swatch137" inkscape:swatch="solid">
            <stop style="stop-color:#000000;stop-opacity:1;" offset="0" id="stop137" />
        </linearGradient>
    </defs>
    <sodipodi:namedview id="namedview29" pagecolor="#ffffff" bordercolor="#000000" borderopacity="0.25"
        inkscape:showpageshadow="2" inkscape:pageopacity="0.0" inkscape:pagecheckerboard="0"
        inkscape:deskcolor="#d1d1d1" inkscape:zoom="1.894779" inkscape:cx="-119.01124" inkscape:cy="155.95487"
        inkscape:window-width="1920" inkscape:window-height="1009" inkscape:window-x="-8" inkscape:window-y="-8"
        inkscape:window-maximized="1" inkscape:current-layer="svg29" />&#10; &#10;
    <g id="paris-wayfinding-pylon-large">
        <path style="fill:none;stroke-width:1.03051;fill-opacity:1"
            d="m 4.7389897,245.89239 c 0,-11.96171 -0.0529,-13.76019 -0.40898,-13.89683 -0.35615,-0.13666 -0.40898,-1.95445 -0.40898,-14.07087 v -13.91393 h -0.62097 c -2.01578,0 -2.99886997,-3.00282 -1.67032,-5.10194 0.32442,-0.51258 0.39205,-11.97565 0.45038,-76.34324 l 0.0687,-75.740107 7.7706508,-0.136323 7.7706495,-0.136331 0.13633,-3.817163 0.13633,-3.817162 41.9598,-0.06906 c 30.7852,-0.05063 42.05832,0.01268 42.32966,0.237875 0.27752,0.230332 0.36978,1.215894 0.36978,3.950116 v 3.643201 l 7.70254,0.07244 7.70253,0.07244 0.0687,75.756524 c 0.0682,75.24132 0.0724,75.76173 0.61348,76.52166 0.61467,0.86322 0.69773,2.12794 0.22553,3.43379 -0.32249,0.89185 -1.17001,1.47331 -2.14744,1.47331 -0.52124,0 -0.53248,0.29351 -0.53248,13.91393 0,12.11643 -0.0528,13.93421 -0.40899,14.07088 -0.35605,0.13663 -0.40898,1.93511 -0.40898,13.89682 v 13.73988 h -9.54299 -9.542958 V 245.86325 232.09419 H 60.08789 23.82484 v 13.76906 13.76905 H 14.28193 4.7390297 Z M 22.73418,245.59057 V 232.09416 H 14.41822 6.1022597 v 13.49641 13.49638 h 8.3159603 8.31596 z m 91.61201,0 v -13.49641 h -8.45234 -8.452318 v 13.49641 13.49638 h 8.452318 8.45234 z M 5.5569497,217.50715 c 0,-8.81583 -0.0946,-13.49639 -0.27265,-13.49639 -0.17805,0 -0.27266,4.61998 -0.27266,13.31462 0,11.75827 0.0638,13.67817 0.45443,13.67817 0.05,0 0.0909,-6.07338 0.0909,-13.4964 z m 1.8429901,-0.0681 0.0707,-13.42823 h -0.82053 -0.8205301 v 13.31462 c 0,7.32305 0.087,13.4016 0.19327,13.5079 0.1063,0.10629 0.4437101,0.15742 0.7498001,0.1136 0.55055,-0.0788 0.55729,-0.22379 0.62726,-13.50789 z m 1.1562102,-0.0843 c 0,-11.67954 -0.051,-13.34397 -0.4089802,-13.34397 -0.35796,0 -0.40898,1.66117 -0.40898,13.31462 0,7.32304 0.0785,13.39309 0.17436,13.48899 0.0959,0.0959 0.27993,0.10909 0.40898,0.0294 0.1290402,-0.0798 0.2346202,-6.1498 0.2346202,-13.48898 z m 2.11564,0.0843 0.0707,-13.42823 H 9.78563 8.82877 v 13.31462 c 0,7.32305 0.0874,13.40206 0.19429,13.50892 0.10686,0.10686 0.50561,0.15797 0.8861305,0.1136 l 0.6918395,-0.0807 z m 0.88356,0.0681 c 0,-8.81583 -0.0946,-13.49639 -0.27265,-13.49639 -0.1781,0 -0.27266,4.68056 -0.27266,13.49639 0,8.81583 0.0946,13.4964 0.27266,13.4964 0.17809,0 0.27265,-4.68057 0.27265,-13.4964 z m 2.45389,0 v -13.49639 h -1.09062 -1.09061 v 13.31462 c 0,7.32304 0.0818,13.39643 0.18176,13.4964 0.1,0.1 0.59076,0.18177 1.09062,0.18177 h 0.90885 z m 1.09062,-0.15241 c 0,-11.67955 -0.051,-13.34398 -0.40898,-13.34398 -0.35796,0 -0.40899,1.66117 -0.40899,13.31462 0,7.32304 0.0785,13.39309 0.17436,13.48899 0.0959,0.0959 0.27994,0.1091 0.40898,0.0294 0.12905,-0.0798 0.23463,-6.1498 0.23463,-13.48898 z m 2.11564,0.0843 0.0707,-13.42823 h -0.95686 -0.95686 v 13.31462 c 0,7.32305 0.0874,13.40206 0.19428,13.50892 0.10686,0.10686 0.50562,0.15798 0.88613,0.11361 l 0.69184,-0.0807 z m 1.15621,-0.0843 c 0,-11.67955 -0.051,-13.34398 -0.40898,-13.34398 -0.35796,0 -0.40898,1.66117 -0.40898,13.31462 0,7.32304 0.0785,13.39309 0.17436,13.48899 0.0959,0.0959 0.27993,0.1091 0.40898,0.0294 0.12904,-0.0798 0.23462,-6.1498 0.23462,-13.48898 z m 1.84299,0.0843 0.0707,-13.42823 h -0.82054 -0.82053 v 13.51451 13.5145 l 0.7498,-0.0863 0.7498,-0.0863 z m 1.15621,-0.0843 c 0,-11.67955 -0.051,-13.34398 -0.40898,-13.34398 -0.35796,0 -0.40898,1.66117 -0.40898,13.31462 0,7.32304 0.0785,13.39309 0.17436,13.48899 0.0959,0.0959 0.27993,0.1091 0.40898,0.0294 0.12904,-0.0798 0.23462,-6.1498 0.23462,-13.48898 z m 2.11564,0.0843 0.0707,-13.42823 h -0.95686 -0.95685 v 13.31462 c 0,7.32305 0.0874,13.40206 0.19428,13.50892 0.10686,0.10686 0.50562,0.15798 0.88613,0.11361 l 0.69184,-0.0807 z m 0.88356,0.0681 c 0,-8.81584 -0.0946,-13.4964 -0.27265,-13.4964 -0.1781,0 -0.27266,4.68056 -0.27266,13.4964 0,8.81582 0.0946,13.49639 0.27266,13.49639 0.17809,0 0.27265,-4.68057 0.27265,-13.49639 z m 2.18124,0 v -13.4964 h -0.95429 -0.9543 v 13.31462 c 0,7.32304 0.0818,13.39643 0.18177,13.4964 0.1,0.1 0.52941,0.18177 0.9543,0.18177 h 0.77252 z m 1.09061,0 c 0,-11.81503 -0.0509,-13.4964 -0.40898,-13.4964 -0.35803,0 -0.40898,1.68137 -0.40898,13.4964 0,11.81502 0.0509,13.49639 0.40898,13.49639 0.35803,0 0.40898,-1.68137 0.40898,-13.49639 z m 2.18124,0 v -13.4964 h -0.95429 -0.95429 v 13.4964 13.49639 h 0.95429 0.95429 z m 0.81797,0 c 0,-8.81584 -0.0946,-13.4964 -0.27266,-13.4964 -0.1781,0 -0.27266,4.68056 -0.27266,13.4964 0,8.81582 0.0946,13.49639 0.27266,13.49639 0.1781,0 0.27266,-4.68057 0.27266,-13.49639 z m 2.18123,0 v -13.4964 h -0.95429 -0.95429 v 13.31462 c 0,7.32304 0.0818,13.39643 0.18177,13.4964 0.1,0.1 0.5294,0.18177 0.95429,0.18177 h 0.77252 z m 1.09062,0 c 0,-11.81503 -0.051,-13.4964 -0.40899,-13.4964 -0.35803,0 -0.40897,1.68137 -0.40897,13.4964 0,11.81502 0.0509,13.49639 0.40897,13.49639 0.35803,0 0.40899,-1.68137 0.40899,-13.49639 z m 2.11564,-0.0681 0.0707,-13.42823 H 35.1425 34.18564 v 13.51368 13.51366 l 0.88613,-0.0854 0.88612,-0.0854 z m 0.88355,0.0681 c 0,-8.81584 -0.0946,-13.4964 -0.27265,-13.4964 -0.17809,0 -0.27265,4.68056 -0.27265,13.4964 0,8.81582 0.0946,13.49639 0.27265,13.49639 0.1781,0 0.27265,-4.68057 0.27265,-13.49639 z m 2.18124,0 v -13.4964 h -0.95429 -0.95429 v 13.4964 13.49639 h 0.95429 0.95429 z m 1.09062,0 c 0,-11.81503 -0.0509,-13.4964 -0.40898,-13.4964 -0.35803,0 -0.40899,1.68137 -0.40899,13.4964 0,11.81502 0.051,13.49639 0.40899,13.49639 0.35803,0 0.40898,-1.68137 0.40898,-13.49639 z m 1.90858,0 v -13.4964 h -0.81796 -0.81796 v 13.4964 13.49639 h 0.81796 0.81796 z m 1.09062,0 c 0,-11.81503 -0.0509,-13.4964 -0.40898,-13.4964 -0.35795,0 -0.40899,1.66117 -0.40899,13.31462 0,7.32304 0.0818,13.39643 0.18178,13.4964 0.1,0.1 0.28401,0.18177 0.40897,0.18177 0.12497,0 0.22722,-6.07338 0.22722,-13.49639 z m 2.18124,0 v -13.4964 h -0.95429 -0.9543 v 13.4964 13.49639 h 0.9543 0.95429 z m 1.02502,-0.0909 c 0.0623,-11.80272 0.0215,-13.40556 -0.34082,-13.40556 -0.36143,0 -0.41155,1.64638 -0.41155,13.51911 0,10.6941 0.0712,13.4954 0.34082,13.40555 0.2652,-0.0883 0.35651,-3.08782 0.41155,-13.5191 z m 2.24683,0.0909 v -13.4964 h -0.95429 -0.9543 v 13.4964 13.49639 h 0.9543 0.95429 z m 0.81796,0 c 0,-8.81584 -0.0946,-13.4964 -0.27266,-13.4964 -0.17809,0 -0.27265,4.68056 -0.27265,13.4964 0,8.81582 0.0946,13.49639 0.27265,13.49639 0.1781,0 0.27266,-4.68057 0.27266,-13.49639 z m 2.18123,8.78365 c 0,-3.93373 -0.0859,-4.95905 -0.52002,-6.20289 -0.80699,-2.31245 -0.82498,-2.85758 -0.0935,-2.83177 l 0.61347,0.0217 v -6.63353 -6.63352 h -0.95429 -0.95429 v 13.31462 c 0,7.32305 0.0818,13.39644 0.18177,13.49641 0.1,0.1 0.52941,0.18176 0.95429,0.18176 h 0.77252 z m 1.08195,0.69109 c -0.006,-3.10362 -0.10006,-4.14248 -0.40898,-4.55091 -0.35713,-0.47217 -0.40031,-0.0383 -0.40031,4.02164 0,3.86349 0.0618,4.55092 0.40898,4.55092 0.34545,0 0.40764,-0.62476 0.40031,-4.02165 z m 3.00787,1.09093 c 0,-2.42939 -0.0649,-2.8361 -0.47715,-2.98818 -0.26242,-0.0969 -0.53955,-0.24634 -0.61582,-0.33227 -0.0763,-0.0859 -0.47505,-0.45365 -0.88614,-0.8172 l -0.74743,-0.66101 v 3.86471 3.86471 l 1.36327,-0.0594 1.36327,-0.0594 z m 2.18124,0.5035 v -2.42722 l -0.85865,-0.29932 c -0.47226,-0.16463 -0.90169,-0.29933 -0.95429,-0.29933 -0.17943,0 -0.0962,5.08891 0.0862,5.27132 0.1,0.1 0.5294,0.18177 0.95429,0.18177 h 0.77252 z m 1.03307,0.0635 c -0.053,-1.58975 -0.19037,-2.40069 -0.4196,-2.47661 -0.25593,-0.0848 -0.34082,0.50399 -0.34082,2.36372 0,2.04751 0.0726,2.47661 0.4196,2.47661 0.35148,0 0.40681,-0.38369 0.34082,-2.36372 z m 1.96613,0.0461 v -2.31757 h -0.81796 -0.81797 v 2.31757 2.31756 h 0.81797 0.81796 z m 1.09062,-0.15905 c 0,-1.85973 -0.0849,-2.44849 -0.34082,-2.36372 -0.22922,0.076 -0.36662,0.88686 -0.41959,2.47661 -0.066,1.98003 -0.0106,2.36372 0.34081,2.36372 0.3469,0 0.4196,-0.4291 0.4196,-2.47661 z m 2.18124,-0.2309 v -2.70751 l -0.88433,0.25362 c -0.48638,0.13949 -0.91581,0.25362 -0.95429,0.25362 -0.0384,0 -0.07,1.10425 -0.07,2.45389 v 2.45389 h 0.95429 0.95429 z m 1.09061,-0.17808 c 0,-2.18699 -0.0825,-2.85822 -0.34082,-2.77257 -0.23577,0.0782 -0.36476,0.96758 -0.41852,2.8856 -0.0658,2.34457 -0.0131,2.77256 0.34082,2.77256 0.3499,0 0.41852,-0.47316 0.41852,-2.88559 z m 1.90859,-0.66708 v -3.55267 l -0.81796,0.60474 -0.81797,0.60475 v 2.94793 2.94792 h 0.81797 0.81796 z m 1.09062,-0.57053 c 0,-3.63415 -0.0485,-4.08295 -0.40899,-3.78378 -0.32578,0.27037 -0.40898,1.07227 -0.40898,3.94144 0,1.9811 0.0818,3.68381 0.18177,3.78378 0.5236,0.5236 0.6362,-0.17396 0.6362,-3.94144 z m 2.18124,-9.3732 v -13.49636 h -0.9543 -0.95429 l 0.0185,7.97514 c 0.0137,5.94019 0.094,7.81861 0.31431,7.36167 0.16273,-0.3374 0.44824,-0.61347 0.63447,-0.61347 0.39726,0 0.18171,1.17268 -0.51982,2.82801 -0.34962,0.825 -0.44742,1.97218 -0.44742,5.2486 v 4.19285 h 0.95429 0.9543 z m 1.02502,-0.0909 c 0.0622,-11.80272 0.0215,-13.40555 -0.34082,-13.40555 -0.36144,0 -0.41155,1.64638 -0.41155,13.51911 0,10.6941 0.0712,13.49539 0.34082,13.40556 0.2652,-0.0883 0.35651,-3.08783 0.41155,-13.51912 z m 1.97417,0.0909 v -13.49636 h -0.81797 -0.81796 v 13.4964 13.4964 h 0.81796 0.81797 z m 1.09062,0 c 0,-11.81502 -0.051,-13.49639 -0.40898,-13.49639 -0.35796,0 -0.40898,1.66118 -0.40898,13.31462 0,7.32305 0.0818,13.39644 0.18176,13.49641 0.1,0.0999 0.28402,0.18176 0.40899,0.18176 0.12497,0 0.22721,-6.07338 0.22721,-13.4964 z m 2.18123,0 V 204.01071 H 75.76549 74.8112 v 13.31462 c 0,7.32304 0.0818,13.39643 0.18177,13.4964 0.1,0.1 0.5294,0.18178 0.95429,0.18178 h 0.77251 z m 1.09063,0 c 0,-11.81502 -0.051,-13.49639 -0.40899,-13.49639 -0.35802,0 -0.40897,1.68137 -0.40897,13.49639 0,11.81503 0.0509,13.4964 0.40897,13.4964 0.35803,0 0.40899,-1.68137 0.40899,-13.4964 z m 2.99919,-0.0592 v -13.43712 h -1.36326 -1.36328 v 13.49642 13.49641 l 1.36328,-0.0594 1.36326,-0.0594 z m 2.18125,0.0592 v -13.49633 h -0.95429 -0.95429 v 13.31462 c 0,7.32304 0.0818,13.39643 0.18176,13.4964 0.1,0.1 0.52941,0.18177 0.95429,0.18177 h 0.77253 z m 1.09061,0 c 0,-11.81502 -0.0509,-13.49639 -0.40897,-13.49639 -0.35804,0 -0.409,1.68137 -0.409,13.49639 0,11.81503 0.0509,13.4964 0.409,13.4964 0.35802,0 0.40897,-1.68137 0.40897,-13.4964 z m 1.90859,0 v -13.49636 h -0.81796 -0.81796 v 13.4964 13.4964 h 0.81796 0.81796 z m 1.09061,0 c 0,-11.81502 -0.0509,-13.49639 -0.40898,-13.49639 -0.35803,0 -0.40898,1.68137 -0.40898,13.49639 0,11.81503 0.0509,13.4964 0.40898,13.4964 0.35804,0 0.40898,-1.68137 0.40898,-13.4964 z m 2.18125,0 V 204.01071 H 88.30759 87.3533 v 13.4964 13.4964 h 0.95429 0.95431 z m 0.81796,0 c 0,-8.81582 -0.0946,-13.49639 -0.27267,-13.49639 -0.17809,0 -0.27265,4.68057 -0.27265,13.49639 0,8.81582 0.0946,13.4964 0.27265,13.4964 0.17811,0 0.27267,-4.68058 0.27267,-13.4964 z m 2.18122,0 v -13.49636 h -0.95429 -0.95428 v 13.31462 c 0,7.32304 0.0818,13.39643 0.18177,13.4964 0.1,0.1 0.52939,0.18178 0.95429,0.18178 h 0.77251 z m 1.09063,0 c 0,-11.81502 -0.051,-13.49639 -0.40899,-13.49639 -0.35803,0 -0.40897,1.68137 -0.40897,13.49639 0,11.81503 0.0509,13.4964 0.40897,13.4964 0.35803,0 0.40899,-1.68137 0.40899,-13.4964 z m 2.11564,-0.0681 0.0707,-13.42823 h -0.95687 -0.95685 v 13.51366 13.51368 l 0.88613,-0.0854 0.88612,-0.0854 z m 1.090612,-0.0227 c 0.0622,-11.80271 0.0216,-13.40555 -0.34082,-13.40555 -0.361432,0 -0.411542,1.64639 -0.411542,13.51911 0,10.6941 0.0712,13.49539 0.34082,13.40556 0.265202,-0.0883 0.356502,-3.08783 0.411542,-13.51912 z m 1.908594,0.0227 0.0707,-13.42823 h -0.820544 -0.82053 v 13.5145 13.51451 l 0.7498,-0.0863 0.7498,-0.0863 z m 1.15621,-0.0843 c 0,-11.67955 -0.051,-13.34398 -0.40897,-13.34398 -0.35796,0 -0.40899,1.66118 -0.40899,13.31462 0,7.32305 0.0784,13.39309 0.17437,13.489 0.0959,0.0959 0.27993,0.10909 0.40897,0.0294 0.12905,-0.0798 0.23462,-6.1498 0.23462,-13.48898 z m 2.115654,0.0843 0.0707,-13.42823 h -0.95688 -0.956847 v 13.31461 c 0,7.32305 0.0874,13.40206 0.194287,13.50892 0.10686,0.10686 0.50561,0.15798 0.88614,0.1136 l 0.69184,-0.0807 z m 0.88356,0.0681 c 0,-8.81582 -0.0946,-13.49639 -0.27265,-13.49639 -0.1781,0 -0.27266,4.68057 -0.27266,13.49639 0,8.81582 0.0946,13.4964 0.27266,13.4964 0.17809,0 0.27265,-4.68058 0.27265,-13.4964 z m 2.11566,-0.0681 0.0707,-13.42823 h -0.95687 -0.95686 v 13.31461 c 0,7.32305 0.0874,13.40206 0.19429,13.50892 0.10685,0.10686 0.50561,0.15798 0.88613,0.1136 l 0.69183,-0.0807 z m 1.15621,-0.0843 c 0,-11.67955 -0.051,-13.34398 -0.40897,-13.34398 -0.35797,0 -0.40899,1.66118 -0.40899,13.31462 0,7.32305 0.0784,13.39309 0.17436,13.489 0.0959,0.0959 0.27993,0.10909 0.40897,0.0294 0.12904,-0.0798 0.23463,-6.1498 0.23463,-13.48898 z m 2.38832,0.0843 0.0707,-13.42823 h -1.0932 -1.0932 v 13.31461 c 0,7.32305 0.0876,13.40225 0.19469,13.50933 0.10709,0.10707 0.5672,0.1582 1.02247,0.11359 l 0.82777,-0.0811 z m 1.15621,-0.0843 c 0,-11.67955 -0.051,-13.34398 -0.40898,-13.34398 -0.35795,0 -0.40899,1.66118 -0.40899,13.31462 0,7.32305 0.0784,13.39309 0.17437,13.489 0.0959,0.0959 0.27994,0.10909 0.40898,0.0294 0.12904,-0.0798 0.23462,-6.1498 0.23462,-13.48898 z m 1.843,0.0843 0.0707,-13.42823 h -0.82054 -0.82053 v 13.5145 13.51451 l 0.74979,-0.0863 0.74983,-0.0863 z m 1.15622,-0.0843 c 0,-11.67955 -0.051,-13.34398 -0.40898,-13.34398 -0.35796,0 -0.409,1.66118 -0.409,13.31462 0,7.32305 0.0784,13.39309 0.17436,13.489 0.096,0.0959 0.27996,0.10909 0.409,0.0294 0.12904,-0.0798 0.23462,-6.1498 0.23462,-13.48898 z m 1.843,0.0843 0.0707,-13.42823 h -0.82054 -0.82055 v 13.31461 c 0,7.32305 0.087,13.40161 0.19328,13.5079 0.1063,0.1063 0.44371,0.15743 0.74981,0.11361 0.55056,-0.0788 0.55729,-0.2238 0.62726,-13.50789 z m 0.88356,-0.0843 c 0,-8.71422 -0.0946,-13.34398 -0.27266,-13.34398 -0.1781,0 -0.27265,4.68594 -0.27265,13.51249 0,8.93889 0.0923,13.45545 0.27265,13.34398 0.17576,-0.10863 0.27266,-4.91062 0.27266,-13.51249 z m -52.64714,8.0484 c 1.73035,-0.40788 3.84189,-1.39559 3.84189,-1.79714 0,-0.11447 -0.7988,0.16567 -1.77509,0.62254 -1.63426,0.76475 -1.96413,0.82286 -4.15799,0.73226 -2.84221,-0.11735 -4.42068,-0.79495 -6.10272,-2.61974 -1.05078,-1.13997 -2.04701,-2.97512 -1.76704,-3.25508 0.074,-0.074 0.9855,0.009 2.02563,0.18448 1.56732,0.26437 1.94199,0.4306 2.18815,0.97085 0.41039,0.9007 2.24318,2.05473 3.53936,2.22859 2.28661,0.3067 4.66816,-1.25573 5.80172,-3.80624 1.26014,-2.83537 0.59216,-6.60317 -1.53644,-8.66628 l -0.9302,-0.90159 -2.93701,1.3114 c -1.61534,0.72127 -3.47613,1.58211 -4.13507,1.91294 l -1.19807,0.60154 1.26032,0.61011 c 1.32668,0.64223 2.64476,2.07976 3.30852,3.60831 0.33237,0.76542 0.3979,0.81216 0.40685,0.29015 0.0171,-0.99515 -0.66495,-2.30335 -1.72907,-3.31658 -0.54275,-0.51679 -0.9868,-1.03712 -0.9868,-1.1563 0,-0.11918 1.22021,-0.82902 2.71159,-1.57743 l 2.71159,-1.36073 0.84486,0.7109 c 1.76746,1.48721 2.47772,3.97299 1.90559,6.66904 -0.58723,2.76712 -1.98581,4.2876 -4.17034,4.53383 -1.5977,0.18008 -3.48158,-0.6866 -4.27184,-1.96527 -0.57207,-0.92563 -1.08895,-1.11264 -5.37573,-1.94494 l -0.87283,-0.16946 0.29021,1.05386 c 1.16923,4.24596 3.9155,6.3242 9.08976,6.87868 0.14996,0.0161 1.05906,-0.15614 2.0202,-0.3827 z m -1.61121,-1.59398 c 0,-0.51455 -0.17114,-0.67581 -0.81796,-0.77076 -0.74425,-0.10922 -0.81797,-0.0506 -0.81797,0.6507 0,0.67461 0.10202,0.77074 0.81797,0.77074 0.68035,0 0.81796,-0.10946 0.81796,-0.65068 z m 1.09062,-0.031 c 0,-0.42413 -0.15451,-0.68164 -0.40898,-0.68164 -0.25448,0 -0.40899,0.25751 -0.40899,0.68164 0,0.42412 0.15451,0.68163 0.40899,0.68163 0.25447,0 0.40898,-0.25751 0.40898,-0.68163 z m 1.32259,0.38231 c 0.70654,-0.24631 0.85865,-0.44467 0.85865,-1.11979 0,-0.67446 -0.0849,-0.7855 -0.47715,-0.62404 -0.26243,0.10804 -0.69186,0.25818 -0.95429,0.33363 -0.31239,0.0899 -0.47714,0.40867 -0.47714,0.92336 0,0.90536 -0.0647,0.87538 1.04993,0.48684 z m -4.37185,-0.7021 c -0.12566,-1.06148 -0.76791,-1.15508 -0.76791,-0.11191 0,0.58135 0.13175,0.84067 0.42709,0.84067 0.30268,0 0.40197,-0.21228 0.34082,-0.72876 z m -1.04056,-0.30837 c 0,-0.51573 -0.31049,-1.06542 -0.95429,-1.68941 l -0.95429,-0.92493 v 1.27172 c 0,1.10696 0.0972,1.32442 0.7498,1.6785 1.04404,0.5664 1.15878,0.53314 1.15878,-0.33588 z m 7.36167,-0.75573 c 0,-0.7027 -0.0954,-0.87994 -0.40897,-0.75962 -0.25132,0.0965 -0.40899,0.5103 -0.40899,1.0735 0,0.7027 0.0954,0.87995 0.40899,0.75963 0.25129,-0.0965 0.40897,-0.51031 0.40897,-1.07351 z m 1.43144,-0.0632 c 0.37544,-0.32242 0.47715,-0.84483 0.47715,-2.45083 v -2.04107 l -0.81451,1.60619 c -0.47596,0.93857 -0.81595,2.03785 -0.81796,2.64472 -0.004,1.08238 0.14057,1.11245 1.15532,0.24099 z m -11.03661,-2.11433 c -0.052,-0.052 -0.63862,-0.18152 -1.30361,-0.28786 l -1.20908,-0.19335 0.52008,0.79433 c 0.28605,0.43688 0.83474,1.11513 1.21931,1.50721 l 0.69923,0.71288 0.0843,-1.21933 c 0.0464,-0.67063 0.0417,-1.26188 -0.0103,-1.31388 z m 5.22542,0.22132 c -0.0151,-0.88729 -0.0499,-0.94136 -0.26387,-0.40898 -0.35945,0.89426 -0.8045,0.75009 -0.84173,-0.27264 -0.0177,-0.48738 -0.12911,-1.25423 -0.24749,-1.7041 -0.15578,-0.592 -0.20336,-0.29384 -0.17223,1.07926 0.0403,1.77542 0.0868,1.90934 0.72464,2.08589 0.37489,0.10378 0.7123,0.2009 0.74979,0.21585 0.0375,0.015 0.0604,-0.43292 0.0509,-0.99528 z m 1.1079,-4.04438 c 0,-3.93215 -0.0764,-5.04143 -0.34082,-4.95345 -0.25225,0.0839 -0.36013,1.40059 -0.41513,5.06682 -0.0643,4.28648 -0.0185,4.95346 0.34082,4.95346 0.35684,0 0.41513,-0.71139 0.41513,-5.06683 z m 1.46283,4.22909 c 0.71811,-0.56486 0.71841,-0.56678 0.71841,-4.58761 0,-3.9054 -0.0193,-4.04059 -0.66145,-4.64389 -0.3638,-0.34178 -0.79324,-0.53997 -0.9543,-0.44042 -0.35668,0.22043 -0.4124,10.23702 -0.057,10.23702 0.12973,0 0.55916,-0.2543 0.95429,-0.5651 z m 4.64273,0.13381 c 0.091,-0.2372 0.1655,-4.10208 0.1655,-8.58861 0,-7.0692 -0.0545,-8.15734 -0.40899,-8.15734 -0.35488,0 -0.40898,1.13606 -0.40898,8.58862 0,7.7938 0.13661,9.50165 0.65247,8.15733 z m -9.43373,-4.54027 c -0.31439,-0.55067 -0.36136,-0.38558 -0.43277,1.52122 -0.0544,1.45262 0.0331,2.27595 0.27265,2.56598 0.29668,0.35915 0.36548,0.1173 0.43279,-1.52122 0.0506,-1.23285 -0.0495,-2.17509 -0.27267,-2.56598 z m -1.34234,-1.47332 c -1.06525,-1.13391 -1.32789,-0.85787 -1.32789,1.39574 0,1.94039 0.0327,2.04792 0.67187,2.20834 0.36952,0.0927 0.76828,0.4325 0.88612,0.75499 0.14314,0.39173 0.24092,-0.12755 0.29457,-1.56437 0.0713,-1.90844 0.0122,-2.22327 -0.52467,-2.7947 z m 7.86518,1.5805 c 0.10318,-1.5336 0.0294,-2.34158 -0.2779,-3.04245 -0.40424,-0.92198 -0.41887,-0.83433 -0.43235,2.59022 -0.0104,2.64397 0.0602,3.41696 0.27791,3.04246 0.16051,-0.27614 0.35507,-1.44173 0.43234,-2.59023 z m -9.52286,-0.36216 c -0.0743,-2.08917 -0.11728,-2.23027 -0.69253,-2.27199 -0.33734,-0.0244 -0.70109,-0.13223 -0.80832,-0.23947 -0.31219,-0.31219 0.3329,-1.11511 0.97235,-1.21024 0.56904,-0.0846 0.58563,-0.20252 0.58563,-4.15797 v -4.07086 H 54.3621 52.99883 v 6.80031 6.80032 l 1.15878,0.25949 c 0.63733,0.14273 1.25576,0.27265 1.3743,0.28871 0.11853,0.0161 0.17988,-0.97317 0.13633,-2.1983 z m -2.94206,-5.2705 c 0,-5.75604 -0.0566,-6.68003 -0.40899,-6.68003 -0.35241,0 -0.40898,0.92399 -0.40898,6.68003 0,5.75604 0.0566,6.68003 0.40898,6.68003 0.35241,0 0.40899,-0.92399 0.40899,-6.68003 z m 8.09061,1.3197 c -0.0622,-0.0623 -0.43576,0.0338 -0.83004,0.21345 -0.86359,0.39349 -0.94918,1.30762 -0.18701,1.99737 0.29141,0.26374 0.62882,0.86556 0.74979,1.33737 0.17584,0.68581 0.23604,0.4274 0.30018,-1.28859 0.0441,-1.18054 0.0293,-2.19737 -0.0329,-2.2596 z m 6.36008,-3.63727 v -4.36246 h -0.81796 -0.81797 v 3.00461 c 0,2.73522 0.0611,3.10144 0.68163,4.08441 0.37491,0.59386 0.68164,1.20491 0.68164,1.35784 0,0.15295 0.0613,0.27808 0.13633,0.27808 0.075,0 0.13633,-1.96311 0.13633,-4.36248 z m -9.96473,2.95545 c 0.6917,-0.31516 0.69447,-0.33039 0.69447,-3.81717 v -3.50074 h -0.95429 -0.95429 v 3.81716 c 0,2.23736 0.10753,3.81716 0.25982,3.81716 0.14291,0 0.57233,-0.14238 0.95429,-0.31641 z m 1.72531,-4.00017 c 0.0653,-2.83032 0.0152,-3.31774 -0.34082,-3.31774 -0.3526,0 -0.41737,0.53232 -0.41737,3.4309 0,2.6233 0.0802,3.40426 0.34082,3.31774 0.24196,-0.0804 0.36302,-1.0755 0.41737,-3.4309 z m 1.27389,2.63689 c 0.67901,-0.30937 0.69447,-0.37918 0.69447,-3.13553 v -2.8191 h -0.81796 -0.81797 v 3.13552 c 0,1.72454 0.0555,3.13553 0.1235,3.13553 0.0679,0 0.43601,-0.14239 0.81796,-0.31642 z m 1.78509,-3.39359 c 0,-2.09472 -0.0745,-2.56104 -0.40898,-2.56104 -0.33619,0 -0.40899,0.48377 -0.40899,2.71799 0,2.30397 0.0623,2.69408 0.40899,2.56104 0.32337,-0.12408 0.40898,-0.69302 0.40898,-2.71799 z m 3.27185,0.1655 c 0,-2.24182 -0.0727,-2.72654 -0.40897,-2.72654 -0.33459,0 -0.40899,0.46704 -0.40899,2.56749 0,2.38741 0.0684,2.64891 0.7498,2.86407 0.0375,0.0119 0.0681,-1.20542 0.0681,-2.70502 z m -1.56776,1.81074 c 0.4145,-0.0164 0.47715,-0.3156 0.47715,-2.27815 v -2.25913 h -0.95429 -0.95429 v 2.48306 c 0,2.26111 0.0427,2.46474 0.47714,2.27815 0.26243,-0.11271 0.69186,-0.21347 0.95429,-0.22393 z m 54.30444,-6.78667 c 0.16981,-0.48289 0.16981,-1.01675 0,-1.49961 l -0.26369,-0.7498 -57.56493,-0.0688 -57.5648003,-0.0688 -0.28536,0.8186 c -0.19872,0.57003 -0.19872,1.06715 0,1.63719 l 0.28536,0.8186 57.5648003,-0.0688 57.56493,-0.0688 z M 6.1022597,122.89606 V 47.779768 h -1.36327 -1.36327 v 75.116292 75.1163 h 1.36327 1.36327 z m 106.8806503,0 V 47.779768 H 60.08785 7.1928798 v 75.116292 75.1163 H 60.08785 112.98291 Z m -98.24579,67.02835 c -0.10041,-0.10037 -0.18257,-30.20914 -0.18257,-66.9083 0,-60.5936 0.0396,-66.74092 0.43128,-66.891212 0.65013,-0.249481 89.90109,-0.190568 90.2951,0.05961 0.27217,0.17282 0.32744,13.753369 0.27265,67.000662 l -0.0687,66.78391 -45.28262,0.0689 c -24.90541,0.038 -45.36473,-0.0132 -45.46514,-0.1136 z m 89.79345,-7.58968 V 175.6547 H 60.08785 15.64517 v 6.49826 c 0,3.57405 0.0818,6.58006 0.18177,6.68003 0.1,0.1 20.09917,0.18178 44.44268,0.18178 h 44.26095 z m 0,-66.39136 V 57.322674 H 60.08785 15.64517 v 58.620696 58.62071 h 44.44268 44.44272 z m 12.54218,6.95269 V 47.779768 h -1.36327 -1.36329 v 75.116292 75.1163 h 1.36329 1.36327 z M 101.2587,43.280965 V 39.872788 H 60.08785 18.91702 v 3.408177 3.408185 h 41.17083 41.17085 z"
            id="path1-2" />
        <path style="fill:#363636;fill-opacity:1;stroke-width:0.227549"
            d="M 7.281568,122.87646 V 47.78529 H 60.072936 112.8643 v 75.09117 75.09117 H 60.072936 7.281568 Z m 77.652234,67.20307 20.651208,-0.15115 -0.058,-66.84293 c -0.0319,-36.763615 -0.12053,-66.905436 -0.19693,-66.981827 -0.18204,-0.182032 -90.331223,-0.182973 -90.513458,-9.45e-4 -0.250342,0.250058 -0.404304,48.864052 -0.290911,91.856272 l 0.110868,42.03489 4.343607,0.0669 c 9.738497,0.14995 46.599492,0.16046 65.953636,0.0188 z"
            id="path29" />
        <path style="fill:#363636;fill-opacity:1;stroke-width:0.227549"
            d="M 3.413235,122.87646 V 47.78529 H 4.6647545 5.916274 v 75.09117 75.09117 H 4.6647545 3.413235 Z"
            id="path30" />
        <path style="fill:#363636;fill-opacity:1;stroke-width:0.227549"
            d="M 114.45715,122.87646 V 47.78529 h 1.25152 1.25152 v 75.09117 75.09117 h -1.25152 -1.25152 z"
            id="path31" />
        <path style="fill:#4d4d4d;fill-opacity:1;stroke-width:0.227549"
            d="m 19.114116,43.348084 v -3.29946 H 60.18671 101.2593 v 3.29946 3.299461 H 60.18671 19.114116 Z"
            id="path32" />
        <path style="fill:#333333;fill-opacity:1;stroke-width:0.227549"
            d="m 2.4760942,201.89285 c -0.1510779,-0.38868 -0.1704969,-0.9275 -0.051255,-1.42218 l 0.1919745,-0.79642 57.4905963,-0.0573 57.49059,-0.0573 0.25328,0.72653 c 0.18408,0.52808 0.18539,0.93222 0.005,1.47951 l -0.2485,0.75298 H 60.163432 2.7193239 Z"
            id="path33" />
        <path style="fill:#383838;fill-opacity:1;stroke-width:0.227549"
            d="m 6.143823,245.52537 v -13.42539 h 8.191764 8.191764 v 13.42539 13.42539 H 14.335587 6.143823 Z"
            id="path34" />
        <path style="fill:#383838;fill-opacity:1;stroke-width:0.227549"
            d="m 97.618521,245.52537 v -13.42539 h 8.305539 8.30554 v 13.42539 13.42539 h -8.30554 -8.305539 z"
            id="path35" />
        <path style="fill:#383838;fill-opacity:1;stroke-width:0.0548682"
            d="m 6.1925155,230.87871 c -0.1290057,-0.0473 -0.1485802,-0.0901 -0.1797922,-0.39346 -0.088267,-0.85783 -0.1397035,-6.7734 -0.1407172,-16.1836 l -0.0011,-10.24665 h 0.801022 0.801022 l -0.032591,1.82437 c -0.017925,1.00341 -0.046297,5.39218 -0.06305,9.75283 -0.032197,8.38096 -0.09928,13.40339 -0.190545,14.26575 -0.066444,0.62782 -0.1337216,0.85072 -0.2897691,0.96002 -0.1310153,0.0918 -0.4824942,0.10212 -0.7044759,0.0207 z"
            id="path36" />
        <path style="fill:#383838;fill-opacity:1;stroke-width:0.0548682"
            d="m 7.993281,230.80539 c -0.1507245,-0.15073 -0.1745561,-2.00504 -0.1745561,-13.58201 0,-11.60062 0.01332,-12.46751 0.1997784,-13.00239 0.078807,-0.22606 0.1945727,-0.20866 0.264453,0.0398 0.1810354,0.64358 0.194194,1.49604 0.1933173,12.52368 -8.726e-4,10.97574 -0.041656,13.83868 -0.1998521,14.0293 -0.07815,0.0942 -0.1837393,0.091 -0.2831405,-0.008 z"
            id="path37" />
        <path style="fill:#383838;fill-opacity:1;stroke-width:0.0548682"
            d="m 9.228626,230.9049 c -0.069525,-0.0153 -0.1493209,-0.088 -0.1773234,-0.16164 -0.1044313,-0.27468 -0.163451,-4.91399 -0.1990432,-15.64602 L 8.8156385,204.055 h 0.9506684 0.9506681 l -0.0363,6.76251 c -0.01996,3.71939 -0.05258,9.74207 -0.07249,13.38376 l -0.03619,6.62123 -0.114665,0.0307 c -0.169524,0.0454 -1.0823388,0.0838 -1.228704,0.0517 z"
            id="path38" />
        <path style="fill:#383838;fill-opacity:1;stroke-width:0.0548682"
            d="m 12.592262,230.9418 c -0.575624,-0.0673 -0.555525,-0.0469 -0.597852,-0.60759 -0.07887,-1.04479 -0.139867,-8.46105 -0.141337,-17.18479 l -0.0015,-9.09442 h 1.069931 1.069931 v 13.47016 13.47015 l -0.534966,-0.008 c -0.294231,-0.004 -0.68311,-0.0248 -0.864175,-0.046 z"
            id="path39" />
        <path style="fill:#383838;fill-opacity:1;stroke-width:0.0548682"
            d="m 5.3309281,230.76942 c -0.2418711,-0.71357 -0.3000941,-3.94037 -0.266199,-14.75314 0.026421,-8.42846 0.074235,-11.32556 0.1942396,-11.76924 0.039002,-0.14419 0.048981,-0.12038 0.080481,0.19204 0.019777,0.19616 0.066222,1.14675 0.1032111,2.11243 0.080621,2.10479 0.085362,23.77208 0.00529,24.16946 l -0.049752,0.24691 z"
            id="path40" />
        <path style="fill:#383838;fill-opacity:1;stroke-width:0.0548682"
            d="m 11.231,230.63867 c -0.127405,-1.13186 -0.169817,-4.41008 -0.169657,-13.11351 1.59e-4,-8.68435 0.04396,-12.06844 0.170079,-13.14095 0.03207,-0.27275 0.03964,-0.28634 0.07871,-0.14131 0.138405,0.51381 0.182909,3.74244 0.183086,13.28226 1.76e-4,9.5407 -0.04218,12.59852 -0.183538,13.25068 -0.03971,0.18322 -0.04333,0.17693 -0.07868,-0.13717 z"
            id="path41" />
        <path style="fill:#383838;fill-opacity:1;stroke-width:0.0548682"
            d="m 14.543667,230.83408 c -0.156074,-0.0988 -0.185196,-2.15932 -0.190424,-13.47353 -0.0053,-11.4568 0.01062,-12.49365 0.200474,-13.06357 0.151745,-0.45552 0.275198,-0.26832 0.370064,0.56117 0.146128,1.2777 0.203811,11.37576 0.109811,19.22376 -0.05818,4.85738 -0.121048,6.68746 -0.232156,6.75799 -0.09009,0.0572 -0.160722,0.0556 -0.257769,-0.006 z"
            id="path42" />
        <path style="fill:#383838;fill-opacity:1;stroke-width:0.0548682"
            d="m 15.73947,230.88228 c -0.123115,-0.0482 -0.150019,-0.0996 -0.17904,-0.3422 -0.08953,-0.74844 -0.141056,-6.59176 -0.141722,-16.07383 L 15.417977,204.055 h 0.935765 0.935765 l -0.02973,0.72701 c -0.01635,0.39985 -0.04246,4.38123 -0.058,8.8475 -0.04513,12.96399 -0.08714,17.19109 -0.171193,17.22335 -0.158185,0.0607 -1.153288,0.0834 -1.291109,0.0294 z"
            id="path43" />
        <path style="fill:#383838;fill-opacity:1;stroke-width:0.0548682"
            d="m 17.813748,230.81664 c -0.08509,-0.0622 -0.09916,-0.2935 -0.144438,-2.37305 -0.134238,-6.16564 -0.09962,-22.01164 0.0513,-23.48162 0.06431,-0.62635 0.141928,-0.90697 0.250881,-0.90697 0.104435,0 0.179443,0.31306 0.251407,1.04928 0.09342,0.95572 0.130049,17.37004 0.04786,21.4467 -0.07473,3.7069 -0.100319,4.20578 -0.21956,4.28117 -0.106836,0.0675 -0.125538,0.0663 -0.237449,-0.0155 z"
            id="path44" />
        <path style="fill:#383838;fill-opacity:1;stroke-width:0.0548682"
            d="M 18.655203,217.52516 V 204.055 h 0.79559 0.795589 l 0.0012,0.89161 c 0.0027,2.02434 -0.127631,25.85811 -0.141456,25.87487 -0.01688,0.0205 -1.205745,0.17256 -1.354878,0.17334 -0.09119,4.7e-4 -0.09602,-0.67733 -0.09602,-13.46966 z"
            id="path45" />
        <path style="fill:#383838;fill-opacity:1;stroke-width:0.0548682"
            d="m 20.804214,230.83752 c -0.148603,-0.0942 -0.189984,-2.98924 -0.195381,-13.66901 -0.0053,-10.42728 0.01848,-12.07967 0.184052,-12.80472 0.06478,-0.28367 0.151394,-0.36706 0.246922,-0.23773 0.213054,0.28845 0.250107,1.51737 0.284889,9.44858 0.02071,4.72173 0.0093,8.89915 -0.03146,11.52234 -0.07056,4.54099 -0.116059,5.66646 -0.23204,5.73996 -0.09349,0.0592 -0.164183,0.0594 -0.256983,5.8e-4 z"
            id="path46" />
        <path style="fill:#383838;fill-opacity:1;stroke-width:0.0548682"
            d="m 22.02376,230.88444 -0.170446,-0.0528 -0.03668,-0.53544 c -0.08604,-1.25615 -0.141221,-7.70877 -0.142408,-16.65298 l -0.0013,-9.58823 h 0.940158 0.940158 l -0.03468,3.41555 c -0.01908,1.87855 -0.04733,6.8599 -0.06279,11.06967 -0.03569,9.72027 -0.07003,12.27418 -0.165514,12.31082 -0.151689,0.0582 -1.105226,0.0833 -1.26653,0.0334 z"
            id="path47" />
        <path style="fill:#383838;fill-opacity:1;stroke-width:0.0548682"
            d="m 25.431432,230.95928 c -0.397319,-0.0473 -0.566967,-0.12655 -0.600238,-0.28042 -0.08658,-0.40041 -0.138503,-6.35559 -0.139445,-15.99313 l -0.001,-10.63073 h 0.905326 0.905326 v 13.47016 13.47015 l -0.452663,-0.008 c -0.248964,-0.005 -0.526735,-0.017 -0.617267,-0.0278 z"
            id="path48" />
        <path style="fill:#383838;fill-opacity:1;stroke-width:0.0548682"
            d="M 27.927937,217.52516 V 204.055 h 0.93276 0.93276 v 13.47016 13.47015 h -0.93276 -0.93276 z"
            id="path49" />
        <path style="fill:#383838;fill-opacity:1;stroke-width:0.0548682"
            d="m 27.166147,230.92068 c -0.218742,-0.26357 -0.270716,-1.87925 -0.311774,-9.69192 -0.03572,-6.79672 0.03898,-15.39717 0.141766,-16.3233 0.0645,-0.58116 0.143058,-0.85046 0.248085,-0.85046 0.111143,0 0.17767,0.3128 0.256733,1.2071 0.100511,1.13691 0.102176,23.30583 0.0018,24.47124 -0.09074,1.05399 -0.181543,1.37423 -0.336649,1.18734 z"
            id="path50" />
        <path style="fill:#383838;fill-opacity:1;stroke-width:0.0548682"
            d="m 24.073572,230.81495 c -0.02167,-0.0539 -0.0706,-0.73292 -0.108731,-1.50887 -0.09911,-2.01678 -0.09849,-21.62863 7.44e-4,-23.59928 0.03859,-0.76636 0.09039,-1.42953 0.115115,-1.4737 0.167594,-0.29947 0.241663,3.75898 0.242087,13.26462 4.23e-4,9.50155 -0.07891,13.74107 -0.249215,13.31723 z"
            id="path51" />
        <path style="fill:#383838;fill-opacity:1;stroke-width:0.0548682"
            d="m 30.327365,230.70734 c -0.13176,-0.90407 -0.173647,-4.07902 -0.173911,-13.18218 -2.67e-4,-9.20619 0.04516,-12.52125 0.181956,-13.27812 l 0.03967,-0.21947 0.03705,0.30177 c 0.131858,1.07389 0.172533,4.1709 0.172947,13.16838 4.2e-4,9.10983 -0.04382,12.33108 -0.181609,13.22325 l -0.03813,0.24691 z"
            id="path52" />
        <path style="fill:#383838;fill-opacity:1;stroke-width:0.0548682"
            d="m 31.629563,230.94102 c -0.493466,-0.0725 -0.501556,-0.0789 -0.54081,-0.42731 -0.08072,-0.7164 -0.140525,-7.82302 -0.141753,-16.84305 L 30.9457,204.055 h 0.93276 0.932761 v 13.47016 13.47015 l -0.452663,-0.007 c -0.248965,-0.004 -0.577008,-0.0251 -0.728985,-0.0474 z"
            id="path53" />
        <path style="fill:#383838;fill-opacity:1;stroke-width:0.0548682"
            d="M 34.237785,217.52516 V 204.055 h 0.905326 0.905326 l 5.41e-4,2.61996 c 8.03e-4,3.8927 -0.118586,24.12483 -0.142509,24.15018 -0.02067,0.0219 -1.31285,0.16176 -1.545231,0.16725 l -0.123453,0.003 z"
            id="path54" />
        <path style="fill:#383838;fill-opacity:1;stroke-width:0.0548682"
            d="M 37.20067,217.52516 V 204.055 h 0.93276 0.932761 v 13.47016 13.47015 H 38.13343 37.20067 Z"
            id="path55" />
        <path style="fill:#383838;fill-opacity:1;stroke-width:0.0548682"
            d="M 40.492765,217.52516 V 204.055 h 0.795589 0.79559 v 13.47016 13.47015 h -0.79559 -0.795589 z"
            id="path56" />
        <path style="fill:#383838;fill-opacity:1;stroke-width:0.0548682"
            d="M 43.45565,217.52516 V 204.055 h 0.93276 0.93276 v 13.47016 13.47015 h -0.93276 -0.93276 z"
            id="path57" />
        <path style="fill:#383838;fill-opacity:1;stroke-width:0.0548682"
            d="m 33.421133,230.89748 c -0.250482,-0.46803 -0.292822,-2.83391 -0.264494,-14.77931 0.02423,-10.21675 0.04203,-11.24494 0.205121,-11.85063 0.03148,-0.11689 0.0914,-0.21254 0.133163,-0.21254 0.107613,0 0.187512,0.28244 0.249301,0.88127 0.09657,0.93596 0.173678,10.19176 0.138008,16.56684 -0.03454,6.1737 -0.08249,8.36735 -0.197291,9.0266 -0.06845,0.39308 -0.172576,0.53824 -0.263808,0.36777 z"
            id="path58" />
        <path style="fill:#383838;fill-opacity:1;stroke-width:0.0548682"
            d="m 36.579076,230.55308 c -0.01944,-0.19435 -0.06424,-1.20519 -0.09958,-2.24631 -0.08669,-2.55464 -0.08689,-18.99084 -2.59e-4,-21.55734 0.106449,-3.15349 0.177622,-3.38386 0.29432,-0.95266 0.09852,2.05246 0.09905,21.35982 6.46e-4,23.42574 -0.07304,1.53338 -0.133573,1.94616 -0.195131,1.33057 z"
            id="path59" />
        <path style="fill:#383838;fill-opacity:1;stroke-width:0.0548682"
            d="m 39.618763,230.67982 c -0.150217,-0.63223 -0.177091,-2.105 -0.204997,-11.23427 -0.03479,-11.38159 0.02511,-14.84943 0.264215,-15.29621 0.16984,-0.31735 0.298361,0.16321 0.377897,1.413 0.08889,1.39676 0.132474,17.35479 0.05778,21.15325 -0.05885,2.99238 -0.108867,3.89917 -0.227299,4.12046 -0.09663,0.18055 -0.202223,0.11889 -0.267592,-0.15623 z"
            id="path60" />
        <path style="fill:#383838;fill-opacity:1;stroke-width:0.0548682"
            d="m 42.764048,230.91437 c -0.09766,-0.0411 -0.185229,-0.12691 -0.205211,-0.20112 -0.01917,-0.0712 -0.06191,-1.49978 -0.09498,-3.17464 -0.07359,-3.72763 -0.03397,-21.642 0.04971,-22.47445 0.0951,-0.94602 0.246052,-1.26357 0.39136,-0.82329 0.133303,0.40392 0.168244,1.47589 0.219284,6.72753 0.07193,7.40073 -0.03785,19.86639 -0.176159,20.00405 -0.0075,0.007 -0.09031,-0.0187 -0.184009,-0.0581 z"
            id="path61" />
        <path style="fill:#383838;fill-opacity:1;stroke-width:0.0548682"
            d="m 45.902796,230.75082 c -0.10132,-0.40369 -0.150706,-1.57846 -0.197318,-4.69365 -0.06498,-4.34264 -0.06569,-13.7644 -0.0013,-17.66758 0.05734,-3.47786 0.126066,-4.33459 0.347705,-4.33459 0.27066,0 0.309532,1.1224 0.309746,8.94353 2.7e-4,9.91239 -0.100755,16.39126 -0.272431,17.47126 -0.05986,0.37656 -0.13424,0.48872 -0.186368,0.28103 z"
            id="path62" />
        <path style="fill:#383838;fill-opacity:1;stroke-width:0.0548682"
            d="M 46.747745,217.52516 V 204.055 h 0.93276 0.93276 v 13.47016 13.47015 h -0.93276 -0.93276 z"
            id="path63" />
        <path style="fill:#383838;fill-opacity:1;stroke-width:0.0548682"
            d="m 49.146908,230.7484 c -0.135341,-0.77633 -0.174753,-3.75074 -0.175211,-13.22324 -4.65e-4,-9.60823 0.04308,-12.76294 0.183336,-13.28361 0.0385,-0.14292 0.04647,-0.12841 0.07835,0.14266 0.12527,1.06528 0.169421,4.46485 0.169951,13.08608 5.4e-4,8.76798 -0.04576,12.19703 -0.178161,13.19581 l -0.04001,0.30178 z"
            id="path64" />
        <path style="fill:#383838;fill-opacity:1;stroke-width:0.0548682"
            d="m 50.50622,230.95633 c -0.09053,-0.0124 -0.254423,-0.0459 -0.364199,-0.0745 -0.181307,-0.0472 -0.202756,-0.0733 -0.234093,-0.28473 -0.08304,-0.56023 -0.140087,-7.23137 -0.141213,-16.51488 l -0.0012,-10.02718 h 0.93276 0.932761 v 6.58419 6.58419 h -0.44144 c -0.395532,0 -0.455446,0.014 -0.576117,0.13468 -0.257751,0.25775 -0.183326,0.74559 0.377064,2.47156 0.553909,1.70601 0.576626,1.967 0.622071,7.14659 l 0.03526,4.0191 -0.488517,-0.008 c -0.268685,-0.005 -0.56259,-0.0184 -0.653122,-0.0308 z"
            id="path65" />
        <path style="fill:#383838;fill-opacity:1;stroke-width:0.0548682"
            d="m 52.149635,217.14325 c -0.14907,-0.35678 -0.188444,-1.70428 -0.188444,-6.44919 0,-5.70978 0.04978,-6.63906 0.355681,-6.63906 0.305895,0 0.35568,0.92928 0.35568,6.63906 0,4.74491 -0.03937,6.09241 -0.188444,6.44919 -0.101234,0.24228 -0.233239,0.24228 -0.334473,0 z"
            id="path66" />
        <path style="fill:#383838;fill-opacity:1;stroke-width:0.0548682"
            d="m 54.141241,217.8402 -1.138516,-0.25256 v -6.76632 -6.76632 h 1.344272 1.344272 l -9.75e-4,3.41555 c -5.36e-4,1.87855 -0.02424,3.63673 -0.05267,3.90705 -0.06226,0.59194 -0.154349,0.74412 -0.503603,0.83222 -0.366115,0.0924 -0.558604,0.20929 -0.804628,0.48879 -0.406517,0.46182 -0.350907,0.77565 0.164574,0.92873 0.156453,0.0465 0.352442,0.0845 0.435533,0.0845 0.45265,0 0.570771,0.20105 0.651062,1.10812 0.06048,0.68332 0.07435,2.75056 0.02062,3.07559 -0.0435,0.26317 -0.02024,0.26405 -1.459942,-0.0553 z"
            id="path67" />
        <path style="fill:#383838;fill-opacity:1;stroke-width:0.0548682"
            d="m 56.217535,211.53091 c -0.108413,-0.34878 -0.153092,-1.4043 -0.180001,-4.2524 l -0.03046,-3.22351 h 0.944634 0.944634 l -0.02374,3.19608 c -0.02084,2.80474 -0.03506,3.231 -0.116199,3.48131 -0.108866,0.33587 -0.238411,0.44256 -0.810221,0.6673 -0.578338,0.2273 -0.692398,0.24784 -0.728647,0.13122 z"
            id="path68" />
        <path style="fill:#383838;fill-opacity:1;stroke-width:0.0548682"
            d="m 58.376126,210.60206 c -0.111665,-0.2937 -0.158096,-1.23888 -0.158552,-3.22753 -6.29e-4,-2.75117 0.07216,-3.35581 0.398382,-3.30917 0.240699,0.0344 0.282236,0.25254 0.303313,1.59285 0.02099,1.33441 -0.06405,3.61352 -0.160761,4.30887 -0.09613,0.69117 -0.258504,0.96081 -0.382382,0.63498 z"
            id="path69" />
        <path style="fill:#383838;fill-opacity:1;stroke-width:0.0548682"
            d="m 59.383364,210.18486 c -0.02385,-0.0368 -0.05181,-1.43108 -0.06215,-3.09839 l -0.01879,-3.03147 h 0.800664 0.800664 l -0.0031,1.71464 c -0.0017,0.94304 -0.02251,2.12542 -0.04629,2.6275 -0.05286,1.11618 -0.106988,1.25982 -0.559119,1.48378 -0.552149,0.2735 -0.86425,0.37752 -0.911927,0.30394 z"
            id="path70" />
        <path style="fill:#383838;fill-opacity:1;stroke-width:0.0548682"
            d="m 61.956945,206.55151 c 0.0011,-0.0905 0.01342,-0.12093 0.02733,-0.0675 0.01391,0.0534 0.013,0.12745 -0.002,0.1646 -0.01503,0.0371 -0.02641,-0.007 -0.02529,-0.0971 z"
            id="path71" />
        <path style="fill:#383838;fill-opacity:1;stroke-width:0.0548682"
            d="m 61.332663,209.1166 c -0.08336,-0.20227 -0.134913,-2.10954 -0.09506,-3.51717 0.03641,-1.28616 0.09528,-1.54443 0.352005,-1.54443 0.111828,0 0.162974,0.0446 0.23599,0.20576 0.08247,0.18203 0.09322,0.44621 0.09322,2.29075 0,2.15668 -0.01942,2.37324 -0.234914,2.61996 -0.124795,0.14287 -0.279714,0.11867 -0.351238,-0.0549 z"
            id="path72" />
        <path style="fill:#383838;fill-opacity:1;stroke-width:0.0548682"
            d="m 62.383605,208.56792 c -0.03841,-0.12828 -0.07326,-1.01676 -0.09253,-2.35934 l -0.03092,-2.15358 h 0.94041 0.94041 l -3.18e-4,1.79694 c -3.28e-4,1.85113 -0.04044,2.37049 -0.196398,2.54282 -0.04971,0.0549 -0.204517,0.11482 -0.344569,0.1333 -0.139868,0.0185 -0.418628,0.0813 -0.619466,0.13959 -0.496421,0.14413 -0.525026,0.13935 -0.596623,-0.0997 z"
            id="path73" />
        <path style="fill:#383838;fill-opacity:1;stroke-width:0.0548682"
            d="m 64.859378,209.23593 c -0.293472,-0.24694 -0.342212,-0.52882 -0.374025,-2.16317 -0.03092,-1.58862 0.03541,-2.67239 0.176775,-2.88814 0.04671,-0.0713 0.133174,-0.12962 0.192138,-0.12962 0.30701,0 0.38175,0.57379 0.383103,2.94112 0.0011,1.86475 -0.02925,2.3811 -0.139803,2.3811 -0.03865,0 -0.145836,-0.0636 -0.238188,-0.14129 z"
            id="path74" />
        <path style="fill:#383838;fill-opacity:1;stroke-width:0.0548682"
            d="m 66.98041,212.63775 c -0.02263,-0.0229 -0.04115,-0.0862 -0.04115,-0.14062 0,-0.15869 -0.231274,-0.63844 -0.646591,-1.34126 -0.21251,-0.35961 -0.437666,-0.80668 -0.500348,-0.99346 -0.174012,-0.51855 -0.223785,-1.37158 -0.224298,-3.84409 l -4.69e-4,-2.26332 h 0.803547 0.803547 l -0.03637,4.04654 c -0.03446,3.83376 -0.06227,4.63283 -0.157864,4.53621 z"
            id="path75" />
        <path style="fill:#383838;fill-opacity:1;stroke-width:0.0548682"
            d="m 67.713554,220.84941 c -0.174265,-0.81257 -0.198056,-1.85086 -0.198117,-8.64647 -6.2e-5,-6.87173 0.01839,-7.60787 0.200723,-8.00805 0.08817,-0.19352 0.201716,-0.17486 0.295041,0.0485 0.180106,0.43106 0.211827,1.6304 0.207621,7.84981 -0.0045,6.59925 -0.05301,8.53179 -0.221555,8.82038 -0.150628,0.25791 -0.217903,0.2427 -0.283713,-0.0642 z"
            id="path76" />
        <path style="fill:#383838;fill-opacity:1;stroke-width:0.0548682"
            d="m 68.58553,227.66207 c 3.03e-4,-4.53252 0.04711,-5.08123 0.54284,-6.3639 0.613181,-1.58656 0.773311,-2.59335 0.412475,-2.59335 -0.170063,0 -0.398929,0.16825 -0.560333,0.41193 -0.0915,0.13814 -0.180432,0.22841 -0.197622,0.2006 -0.11378,-0.1841 -0.153259,-2.00812 -0.18041,-8.33523 L 68.57275,204.055 h 0.911602 0.911602 v 13.47016 13.47015 h -0.905326 -0.905326 z"
            id="path77" />
        <path style="fill:#383838;fill-opacity:1;stroke-width:0.0548682"
            d="m 70.972072,230.72095 c -0.101934,-0.46409 -0.135778,-1.74738 -0.195352,-7.40719 -0.06726,-6.38964 3e-5,-17.3158 0.113321,-18.40177 0.05942,-0.56959 0.142695,-0.85699 0.248315,-0.85699 0.113383,0 0.186144,0.33068 0.253538,1.15224 0.13204,1.60964 0.03437,21.05923 -0.120266,23.94999 -0.07749,1.44858 -0.192726,2.05012 -0.299556,1.56372 z"
            id="path78" />
        <path style="fill:#383838;fill-opacity:1;stroke-width:0.0548682"
            d="M 71.822533,217.52516 V 204.055 h 0.795589 0.79559 v 13.47016 13.47015 h -0.79559 -0.795589 z"
            id="path79" />
        <path style="fill:#383838;fill-opacity:1;stroke-width:0.0548682"
            d="m 74.092826,230.90674 c -0.162413,-0.0787 -0.172647,-0.10273 -0.202865,-0.47723 -0.08782,-1.08836 -0.157138,-10.25247 -0.1277,-16.8823 0.03443,-7.75456 0.07626,-9.13907 0.284601,-9.42115 0.09546,-0.12923 0.181941,-0.0461 0.247399,0.23773 0.165573,0.71799 0.18926,2.26988 0.187072,12.25604 -0.0021,9.5424 -0.05667,13.93509 -0.177203,14.26091 -0.03776,0.10208 -0.05088,0.1037 -0.211304,0.026 z"
            id="path80" />
        <path style="fill:#383838;fill-opacity:1;stroke-width:0.0548682"
            d="m 75.524159,230.94102 c -0.50417,-0.0741 -0.501295,-0.0715 -0.541476,-0.48217 -0.0796,-0.81349 -0.13975,-8.0554 -0.141037,-16.98023 l -0.0014,-9.42362 h 0.93276 0.932761 v 13.47016 13.47015 l -0.452663,-0.007 c -0.248965,-0.004 -0.577008,-0.0251 -0.728985,-0.0474 z"
            id="path81" />
        <path style="fill:#383838;fill-opacity:1;stroke-width:0.0548682"
            d="M 78.132381,217.52952 V 204.055 h 1.316838 1.316838 v 13.4083 13.4083 l -1.16595,0.0369 c -0.641273,0.0203 -1.23385,0.0501 -1.316838,0.0662 l -0.150888,0.0293 z"
            id="path82" />
        <path style="fill:#383838;fill-opacity:1;stroke-width:0.0548682"
            d="m 81.728787,230.93433 c -0.17967,-0.0262 -0.359641,-0.0806 -0.399934,-0.12086 -0.135142,-0.13514 -0.180405,-3.32913 -0.215333,-15.19498 L 81.079482,204.055 h 0.940652 0.940653 v 13.47016 13.47015 l -0.452663,-0.007 c -0.248965,-0.004 -0.599666,-0.0281 -0.779337,-0.0543 z"
            id="path83" />
        <path style="fill:#383838;fill-opacity:1;stroke-width:0.0548682"
            d="M 84.387361,217.52516 V 204.055 h 0.79559 0.795589 v 13.47016 13.47015 h -0.795589 -0.79559 z"
            id="path84" />
        <path style="fill:#383838;fill-opacity:1;stroke-width:0.0548682"
            d="M 87.405114,217.52516 V 204.055 h 0.905326 0.905327 v 13.47016 13.47015 H 88.31044 87.405114 Z"
            id="path85" />
        <path style="fill:#383838;fill-opacity:1;stroke-width:0.0548682"
            d="m 91.001521,230.93433 c -0.179671,-0.0262 -0.35984,-0.0808 -0.400376,-0.1213 -0.137136,-0.13714 -0.180159,-3.1596 -0.214724,-15.08481 L 90.352586,204.055 h 0.940467 0.940467 v 13.47016 13.47015 l -0.452663,-0.007 c -0.248965,-0.004 -0.599666,-0.0281 -0.779336,-0.0543 z"
            id="path86" />
        <path style="fill:#383838;fill-opacity:1;stroke-width:0.0548682"
            d="M 93.660094,217.52516 V 204.055 h 0.931872 0.931872 l -0.02908,3.7722 c -0.016,2.0747 -0.052,8.09037 -0.08,13.36814 -0.028,5.27778 -0.06345,9.60849 -0.07876,9.62381 -0.02628,0.0263 -1.286954,0.16696 -1.552443,0.17324 l -0.123454,0.003 z"
            id="path87" />
        <path style="fill:#383838;fill-opacity:1;stroke-width:0.0548682"
            d="M 96.897321,217.52516 V 204.055 h 0.795589 0.79559 l 6.91e-4,2.29075 c 10e-4,3.44313 -0.120014,24.45454 -0.141021,24.47738 -0.02144,0.0233 -1.146884,0.16779 -1.327396,0.1704 l -0.123453,0.002 z"
            id="path88" />
        <path style="fill:#383838;fill-opacity:1;stroke-width:0.0548682"
            d="m 100.31685,230.9055 c -0.0657,-0.0146 -0.14598,-0.0585 -0.17839,-0.0975 -0.12524,-0.15091 -0.175456,-3.83067 -0.20615,-15.1072 l -0.0317,-11.64579 h 0.9486 0.94859 l -0.0359,4.59522 c -0.0197,2.52737 -0.049,8.32351 -0.0651,12.88032 -0.0161,4.55681 -0.043,8.51168 -0.0598,8.78861 -0.0209,0.34308 -0.0537,0.51236 -0.10299,0.53128 -0.10841,0.0416 -1.07977,0.0856 -1.21714,0.0551 z"
            id="path89" />
        <path style="fill:#383838;fill-opacity:1;stroke-width:0.0548682"
            d="m 103.25453,230.88235 c -0.13231,-0.0518 -0.14769,-0.0904 -0.17997,-0.45194 -0.0878,-0.98315 -0.13983,-7.00989 -0.14074,-16.29337 l -9.9e-4,-10.08204 h 0.93819 0.9382 l -0.0326,2.12615 c -0.0179,1.16938 -0.0452,5.54581 -0.0605,9.72539 -0.0417,11.37791 -0.0818,14.91222 -0.16974,14.94596 -0.15876,0.0609 -1.15377,0.0839 -1.29184,0.0299 z"
            id="path90" />
        <path style="fill:#383838;fill-opacity:1;stroke-width:0.0548682"
            d="m 106.59244,230.90457 c -0.0975,-0.017 -0.17216,-0.0753 -0.20411,-0.1593 -0.10347,-0.27215 -0.16399,-5.0309 -0.1997,-15.7029 l -0.0368,-10.98737 h 1.08782 1.08783 l -0.0363,6.76251 c -0.02,3.71939 -0.0526,9.74224 -0.0725,13.38411 l -0.0361,6.6216 -0.11777,0.0296 c -0.17357,0.0436 -1.2938,0.083 -1.47239,0.0518 z"
            id="path91" />
        <path style="fill:#383838;fill-opacity:1;stroke-width:0.0548682"
            d="M 109.73649,217.52516 V 204.055 h 0.79559 0.79559 l -0.004,1.16595 c -0.0258,8.02132 -0.14728,25.5596 -0.17728,25.58961 -0.0371,0.0371 -1.02206,0.17652 -1.2867,0.18213 l -0.12345,0.003 z"
            id="path92" />
        <path style="fill:#383838;fill-opacity:1;stroke-width:0.0548682"
            d="m 113.07574,230.87867 c -0.12377,-0.0454 -0.1499,-0.0947 -0.17926,-0.33859 -0.0885,-0.73542 -0.14048,-6.66481 -0.14132,-16.1287 l -9.2e-4,-10.35638 h 0.80036 0.80036 l -0.0318,1.27569 c -0.0175,0.70163 -0.0457,5.01633 -0.0626,9.58823 -0.0329,8.89551 -0.0976,13.98298 -0.19024,14.94359 -0.0627,0.6506 -0.14975,0.92742 -0.32021,1.01865 -0.13383,0.0716 -0.47564,0.0704 -0.67438,-0.002 z"
            id="path93" />
        <path style="fill:#383838;fill-opacity:1;stroke-width:0.0548682"
            d="m 52.253544,230.95033 c -0.249739,-0.16234 -0.291539,-0.81888 -0.29057,-4.56395 7.72e-4,-2.98249 0.03284,-3.94969 0.134315,-4.0509 0.06073,-0.0606 0.294051,0.25161 0.353757,0.47334 0.171506,0.63692 0.193637,1.12557 0.194331,4.29085 5.54e-4,2.52314 -0.0152,3.27166 -0.07363,3.49899 -0.0726,0.28246 -0.20299,0.42657 -0.318204,0.35167 z"
            id="path94" />
        <path style="fill:#383838;fill-opacity:1;stroke-width:0.0548682"
            d="m 53.002725,227.18808 c 0,-2.1007 0.01495,-3.81945 0.03322,-3.81945 0.01827,0 0.416453,0.34773 0.884851,0.77274 0.639085,0.57988 0.932797,0.80794 1.176846,0.91378 0.216666,0.094 0.351312,0.19151 0.4034,0.29224 0.142393,0.27535 0.189322,1.09703 0.189778,3.32275 l 4.5e-4,2.20146 -1.16595,0.0376 c -0.641273,0.0207 -1.246195,0.0513 -1.344272,0.068 l -0.178322,0.0303 z"
            id="path95" />
        <path style="fill:#383838;fill-opacity:1;stroke-width:0.0548682"
            d="m 56.704351,230.94102 c -0.447205,-0.0657 -0.504549,-0.097 -0.541735,-0.29517 -0.110354,-0.58824 -0.187157,-3.97726 -0.107422,-4.74012 l 0.03471,-0.33213 0.280777,0.0833 c 0.154427,0.0458 0.558548,0.18191 0.898045,0.30237 l 0.617268,0.21901 v 2.4085 2.40849 l -0.452663,-0.007 c -0.248965,-0.004 -0.577008,-0.0251 -0.728985,-0.0474 z"
            id="path96" />
        <path style="fill:#383838;fill-opacity:1;stroke-width:0.0548682"
            d="m 58.477992,230.93726 c -0.183829,-0.10717 -0.222434,-0.42851 -0.248365,-2.06733 -0.03155,-1.99416 0.05109,-2.75866 0.288389,-2.6676 0.214209,0.0822 0.343815,0.98823 0.391294,2.73542 0.03899,1.43495 0.01177,1.79063 -0.149375,1.95178 -0.119594,0.1196 -0.149873,0.12472 -0.281943,0.0477 z"
            id="path97" />
        <path style="fill:#383838;fill-opacity:1;stroke-width:0.0548682"
            d="m 59.312573,228.69085 v -2.30447 h 0.79559 0.795589 v 2.30447 2.30446 h -0.795589 -0.79559 z"
            id="path98" />
        <path style="fill:#383838;fill-opacity:1;stroke-width:0.0548682"
            d="m 61.436088,230.92673 c -0.201338,-0.14979 -0.249026,-1.0364 -0.148296,-2.75713 0.06294,-1.07526 0.145935,-1.61369 0.283617,-1.84009 0.08257,-0.13578 0.120777,-0.15921 0.179764,-0.11026 0.142886,0.11859 0.195077,0.74537 0.194758,2.33892 -3.51e-4,1.75099 -0.04257,2.19234 -0.223977,2.34112 -0.139444,0.11437 -0.165635,0.11688 -0.285866,0.0274 z"
            id="path99" />
        <path style="fill:#383838;fill-opacity:1;stroke-width:0.0548682"
            d="m 62.29081,228.60095 c 0.01802,-1.31691 0.05397,-2.41558 0.07989,-2.44149 0.02592,-0.0259 0.434834,-0.15429 0.908703,-0.28528 l 0.861579,-0.23815 v 2.67964 2.67964 H 63.199516 62.25805 Z"
            id="path100" />
        <path style="fill:#383838;fill-opacity:1;stroke-width:0.0548682"
            d="m 64.694173,230.89009 c -0.06576,-0.0658 -0.120242,-0.22524 -0.145266,-0.42523 -0.05238,-0.41863 0.01014,-3.36139 0.08491,-3.99618 0.105762,-0.89798 0.274785,-1.26876 0.438728,-0.96243 0.124585,0.23279 0.177121,1.31592 0.150474,3.10229 -0.02706,1.81409 -0.05904,2.12409 -0.237567,2.30262 -0.110061,0.11006 -0.164049,0.10615 -0.291276,-0.0211 z"
            id="path101" />
        <path style="fill:#383838;fill-opacity:1;stroke-width:0.0548682"
            d="m 65.567553,228.06343 v -2.93188 l 0.727004,-0.54104 c 0.399852,-0.29758 0.757868,-0.55989 0.79559,-0.58293 0.05459,-0.0333 0.06858,0.67532 0.06858,3.47293 v 3.5148 h -0.79559 -0.795589 z"
            id="path102" />
        <path style="fill:#383838;fill-opacity:1;stroke-width:0.0548682"
            d="m 67.737538,230.86689 c -0.164955,-0.12062 -0.192905,-0.50603 -0.229424,-3.16367 -0.04613,-3.35734 0.04094,-4.35469 0.400989,-4.59283 0.108764,-0.0719 0.125202,-0.0681 0.184733,0.0431 0.112808,0.21079 0.175234,2.22145 0.139551,4.49482 -0.03408,2.17118 -0.07958,2.84755 -0.209504,3.11393 -0.08601,0.17634 -0.154183,0.20125 -0.286345,0.10461 z"
            id="path103" />
        <path style="fill:#383838;fill-opacity:1;stroke-width:0.0548682"
            d="m 77.317259,230.90034 c -0.250331,-0.46775 -0.29527,-2.98497 -0.265719,-14.88406 0.02486,-10.00871 0.04472,-11.15418 0.203634,-11.74435 0.03232,-0.12002 0.09234,-0.21693 0.134345,-0.21693 0.104971,0 0.183524,0.26908 0.248281,0.85046 0.103028,0.92498 0.176984,9.42116 0.141611,16.26844 -0.0414,8.01466 -0.09215,9.52189 -0.328526,9.75827 -0.06468,0.0647 -0.0845,0.06 -0.133626,-0.0318 z"
            id="path104" />
        <path style="fill:#383838;fill-opacity:1;stroke-width:0.0548682"
            d="m 83.563409,230.82897 c -0.225873,-0.42205 -0.290363,-4.3417 -0.254093,-15.44367 0.03189,-9.75993 0.06284,-10.96872 0.288314,-11.25924 0.07354,-0.0947 0.07935,-0.0947 0.152887,0 0.223165,0.28754 0.257159,1.58985 0.288885,11.0672 0.02927,8.74267 -0.02256,14.04275 -0.147453,15.08039 -0.07523,0.62505 -0.188638,0.81673 -0.32854,0.55532 z"
            id="path105" />
        <path style="fill:#383838;fill-opacity:1;stroke-width:0.0548682"
            d="m 86.588462,230.89748 c -0.249662,-0.4665 -0.292926,-2.88978 -0.264214,-14.7989 0.02436,-10.10218 0.04383,-11.23309 0.20366,-11.82665 0.03232,-0.12002 0.09233,-0.21693 0.134345,-0.21693 0.107557,0 0.18746,0.28224 0.249494,0.88127 0.09682,0.93493 0.173634,10.13576 0.138086,16.5394 -0.03438,6.19384 -0.08236,8.39249 -0.197563,9.05404 -0.06845,0.39308 -0.172576,0.53824 -0.263808,0.36777 z"
            id="path106" />
        <path style="fill:#383838;fill-opacity:1;stroke-width:0.0548682"
            d="m 89.746217,230.55308 c -0.230686,-2.29469 -0.230727,-23.59496 -4.9e-5,-26.07696 0.06072,-0.65337 0.118912,-0.25873 0.194722,1.32065 0.09864,2.05495 0.09927,21.36144 7.69e-4,23.42574 -0.07321,1.53415 -0.133624,1.94548 -0.195442,1.33057 z"
            id="path107" />
        <path style="fill:#383838;fill-opacity:1;stroke-width:0.0548682"
            d="m 92.786092,230.67982 c -0.149799,-0.63047 -0.176823,-2.10956 -0.204763,-11.20684 -0.03473,-11.3076 0.02637,-14.87965 0.262041,-15.32001 0.171864,-0.32113 0.299944,0.15408 0.37986,1.40937 0.08903,1.39852 0.132722,17.41332 0.05778,21.18068 -0.05904,2.96821 -0.109265,3.87243 -0.227326,4.09303 -0.09663,0.18055 -0.202223,0.11889 -0.267592,-0.15623 z"
            id="path108" />
        <path style="fill:#383838;fill-opacity:1;stroke-width:0.0548682"
            d="m 96.052037,230.70725 c -0.150582,-0.74636 -0.169779,-2.25855 -0.169779,-13.37413 0,-11.51932 0.01357,-12.43444 0.193902,-13.07236 0.07206,-0.25493 0.18963,-0.26475 0.269577,-0.0225 0.205014,0.6212 0.253589,4.67985 0.173469,14.49401 -0.07171,8.78424 -0.138149,11.32091 -0.314956,12.02537 -0.04525,0.1803 -0.109995,0.15888 -0.152213,-0.0504 z"
            id="path109" />
        <path style="fill:#383838;fill-opacity:1;stroke-width:0.0548682"
            d="m 99.071667,230.81521 c -0.08625,-0.0631 -0.101383,-0.24931 -0.145988,-1.79693 -0.08489,-2.94535 -0.125378,-16.49825 -0.06048,-20.24461 0.06744,-3.89271 0.133295,-4.77647 0.35064,-4.70521 0.116867,0.0383 0.197736,0.39027 0.263966,1.1488 0.09632,1.1032 0.134447,16.15785 0.0525,20.73017 -0.07334,4.0917 -0.10643,4.81202 -0.224509,4.88674 -0.103536,0.0655 -0.122702,0.064 -0.236128,-0.019 z"
            id="path110" />
        <path style="fill:#383838;fill-opacity:1;stroke-width:0.0548682"
            d="m 102.31424,230.7484 c -0.13505,-0.77464 -0.17452,-3.75472 -0.17514,-13.22324 -6.3e-4,-9.6099 0.0429,-12.76244 0.18326,-13.28361 0.0385,-0.14292 0.0465,-0.12841 0.0784,0.14266 0.12544,1.06665 0.16958,4.46279 0.17012,13.08608 5.4e-4,8.76979 -0.0458,12.1958 -0.17833,13.19581 l -0.04,0.30178 z"
            id="path111" />
        <path style="fill:#383838;fill-opacity:1;stroke-width:0.0548682"
            d="m 105.32955,230.80539 c -0.15069,-0.15069 -0.17456,-2.00415 -0.17456,-13.55457 0,-11.55226 0.0144,-12.49817 0.19889,-13.02726 0.0751,-0.2154 0.18556,-0.2154 0.26065,0 0.18377,0.52716 0.19889,1.48711 0.19828,12.58831 -6e-4,11.0074 -0.0407,13.8098 -0.20049,14.00231 -0.0778,0.0937 -0.18352,0.0905 -0.28277,-0.009 z"
            id="path112" />
        <path style="fill:#383838;fill-opacity:1;stroke-width:0.0548682"
            d="m 108.89264,230.81489 c -0.0863,-0.0631 -0.10301,-0.25066 -0.1556,-1.74206 -0.0887,-2.51514 -0.0891,-21.9341 -5.1e-4,-23.34434 0.0748,-1.18987 0.15415,-1.64605 0.28643,-1.64605 0.13155,0 0.21006,0.34578 0.27636,1.21719 0.0949,1.24664 0.13413,15.29782 0.0563,20.13221 -0.0707,4.38868 -0.11056,5.32893 -0.22925,5.40411 -0.10048,0.0636 -0.12031,0.0618 -0.2337,-0.0211 z"
            id="path113" />
        <path style="fill:#383838;fill-opacity:1;stroke-width:0.0548682"
            d="m 111.87967,230.83392 c -0.15402,-0.0975 -0.18396,-2.22426 -0.18967,-13.47337 -0.006,-11.38934 0.0111,-12.49646 0.19929,-13.06146 0.15248,-0.4578 0.27588,-0.27162 0.37053,0.55906 0.14989,1.31538 0.20756,11.53111 0.10957,19.41116 -0.0589,4.73751 -0.1212,6.50043 -0.23217,6.57088 -0.0897,0.0569 -0.16037,0.0552 -0.25755,-0.006 z"
            id="path114" />
        <path style="fill:#383838;fill-opacity:1;stroke-width:0.0548682"
            d="m 114.81902,230.32928 c -0.10106,-1.11935 -0.14787,-5.15146 -0.14802,-12.74925 -1.8e-4,-9.36351 0.0717,-13.53379 0.23049,-13.37499 0.0253,0.0253 0.0771,0.60064 0.11519,1.27854 0.0989,1.76252 0.0986,21.91329 -3.8e-4,23.77657 -0.0745,1.4025 -0.13674,1.73972 -0.19728,1.06913 z"
            id="path115" />
        <path style="fill:#383838;fill-opacity:1;stroke-width:0.0720915"
            d="m 54.884094,221.94236 c -0.594844,-0.62913 -1.650376,-2.0456 -1.57816,-2.11782 0.03426,-0.0343 1.682024,0.24089 2.072813,0.34612 l 0.275853,0.0743 -0.0084,0.73616 c -0.0046,0.40489 -0.02897,0.94443 -0.05407,1.19898 l -0.04564,0.46282 z"
            id="path121" />
        <path style="fill:#383838;fill-opacity:1;stroke-width:0.0720915"
            d="m 57.520212,218.94973 c -0.150061,-0.26147 -0.517651,-0.52928 -0.93899,-0.68413 -0.498528,-0.1832 -0.530516,-0.30601 -0.528073,-2.02729 0.0032,-2.28329 0.202711,-2.54841 1.157657,-1.5387 0.59429,0.62838 0.634599,0.80698 0.587715,2.60402 -0.02195,0.84148 -0.06745,1.60157 -0.101112,1.68909 -0.06059,0.15754 -0.06235,0.15712 -0.177197,-0.043 z"
            id="path122" />
        <path style="fill:#383838;fill-opacity:1;stroke-width:0.0720915"
            d="m 58.507303,220.22122 c -0.201547,-0.3076 -0.278513,-1.1724 -0.226907,-2.54955 0.02692,-0.71836 0.07453,-1.39962 0.10581,-1.51392 l 0.05687,-0.20781 0.151169,0.24587 c 0.2488,0.40466 0.328268,1.12675 0.28236,2.5657 -0.0518,1.6235 -0.110344,1.85493 -0.369297,1.45971 z"
            id="path123" />
        <path style="fill:#383838;fill-opacity:1;stroke-width:0.0720915"
            d="m 60.268453,221.2361 c -0.257727,-0.0788 -0.525997,-0.19894 -0.596155,-0.267 -0.185617,-0.18007 -0.268922,-0.83595 -0.262079,-2.06341 0.0059,-1.05208 0.0087,-1.07161 0.105986,-0.72091 0.05498,0.19825 0.146225,0.77811 0.202773,1.28858 0.08457,0.76341 0.129835,0.95515 0.255055,1.08037 0.205258,0.20526 0.339644,0.11465 0.634827,-0.42802 l 0.232271,-0.42701 0.002,0.84707 c 0.0011,0.46589 -0.0223,0.84404 -0.05204,0.84033 -0.02974,-0.004 -0.264936,-0.0712 -0.522663,-0.15 z"
            id="path124" />
        <path style="fill:#383838;fill-opacity:1;stroke-width:0.0720915"
            d="m 60.561504,215.46768 c -0.141209,-0.47264 -0.333882,-0.81142 -0.688659,-1.21088 -0.40851,-0.45996 -0.541581,-0.71851 -0.541581,-1.05227 0,-0.39079 0.235042,-0.71481 0.670577,-0.92444 0.206112,-0.0992 0.46255,-0.20125 0.569863,-0.22678 0.169665,-0.0404 0.201656,-0.0204 0.245265,0.15341 0.06425,0.256 -0.02907,3.33307 -0.105219,3.46913 -0.0404,0.0722 -0.08491,0.0105 -0.150246,-0.20817 z"
            id="path125" />
        <path style="fill:#383838;fill-opacity:1;stroke-width:0.0720915"
            d="m 61.415287,221.27649 c -0.08465,-0.10219 -0.100629,-0.76437 -0.09621,-3.98615 0.0053,-3.88859 0.07377,-5.30137 0.27548,-5.68634 0.273328,-0.52167 0.343236,0.64905 0.313626,5.25218 -0.01597,2.4831 -0.05462,4.15233 -0.09919,4.28435 -0.08531,0.25266 -0.249936,0.30951 -0.393698,0.13596 z"
            id="path126" />
        <path style="fill:#383838;fill-opacity:1;stroke-width:0.0720915"
            d="m 62.474756,221.01427 c -0.121545,-0.43499 -0.200896,-3.23837 -0.158613,-5.60362 0.05072,-2.83726 0.143317,-4.23855 0.289897,-4.38714 0.138192,-0.14008 0.572549,0.0997 0.991024,0.54708 0.516044,0.55169 0.526862,0.64444 0.527627,4.52353 7.8e-4,3.95171 0.0019,3.94415 -0.65482,4.45958 -0.219301,0.17212 -0.522724,0.38263 -0.674274,0.46781 l -0.275544,0.15486 z"
            id="path127" />
        <path style="fill:#383838;fill-opacity:1;stroke-width:0.0720915"
            d="m 64.621939,218.86088 c -0.07821,-0.12135 -0.132117,-4.96041 -0.06254,-5.61423 l 0.04985,-0.46845 0.173002,0.34041 c 0.2984,0.58716 0.388424,1.08881 0.388424,2.16445 0,1.08163 -0.0902,2.08742 -0.263453,2.93776 -0.132447,0.65006 -0.192296,0.78433 -0.28528,0.64006 z"
            id="path128" />
        <path style="fill:#383838;fill-opacity:1;stroke-width:0.0462353"
            d="m 65.656377,222.83362 c -0.08627,-0.10394 -0.114161,-0.72371 -0.05053,-1.12259 0.107774,-0.67556 0.429306,-1.54119 0.983712,-2.64836 l 0.520919,-1.0403 0.01329,1.45642 c 0.0194,2.12634 -0.04674,2.48271 -0.539374,2.90622 -0.574203,0.49364 -0.800044,0.60281 -0.928019,0.44861 z"
            id="path129" />
        <path style="fill:#383838;fill-opacity:1;stroke-width:0.0462353"
            d="m 64.627573,223.45072 c -0.102957,-0.0576 -0.139704,-0.25486 -0.138164,-0.7416 0.002,-0.62032 0.156591,-0.98645 0.454702,-1.07665 0.224203,-0.0678 0.320416,0.2426 0.284901,0.91925 -0.01527,0.29099 -0.04824,0.44025 -0.134069,0.60704 -0.12373,0.24043 -0.329623,0.36905 -0.46737,0.29196 z"
            id="path130" />
        <path style="fill:#383838;fill-opacity:1;stroke-width:0.0462353"
            d="m 62.319217,224.25258 c -0.08008,-0.2042 -0.02062,-0.93418 0.09446,-1.15976 0.116054,-0.22748 0.121218,-0.23044 0.86174,-0.49313 0.650583,-0.23079 0.738277,-0.24476 0.798828,-0.12717 0.13183,0.256 0.08485,1.04151 -0.07521,1.25746 -0.125069,0.16875 -0.379139,0.30123 -0.934227,0.48713 -0.595208,0.19933 -0.679753,0.20336 -0.745593,0.0355 z"
            id="path131" />
        <path style="fill:#383838;fill-opacity:1;stroke-width:0.0462353"
            d="m 61.390416,224.34505 c -0.135846,-0.15574 -0.17493,-0.28524 -0.17493,-0.57963 0,-0.23223 0.02293,-0.33088 0.105505,-0.45383 0.140505,-0.20922 0.336367,-0.23408 0.497009,-0.0631 0.103582,0.11026 0.114132,0.15927 0.114132,0.53015 0,0.36888 -0.01091,0.42029 -0.112088,0.52799 -0.130813,0.13924 -0.326414,0.15672 -0.429628,0.0384 z"
            id="path132" />
        <path style="fill:#383838;fill-opacity:1;stroke-width:0.0462353"
            d="m 59.544114,224.37377 c -0.177913,-0.0652 -0.247631,-0.27636 -0.245253,-0.74283 0.0027,-0.52424 0.05508,-0.59204 0.457666,-0.59204 0.335714,0 0.796102,0.11085 0.920723,0.22169 0.196861,0.17509 0.261284,0.50988 0.164903,0.85697 -0.03789,0.13646 -0.08521,0.19214 -0.206316,0.24274 -0.180051,0.0752 -0.898981,0.0841 -1.091723,0.0135 z"
            id="path133" />
        <path style="fill:#383838;fill-opacity:1;stroke-width:0.0462353"
            d="m 58.377783,224.06245 c -0.243263,-0.26881 -0.223413,-1.17464 0.03035,-1.38508 0.177211,-0.14696 0.406338,0.1763 0.497985,0.70257 0.0592,0.33994 0.03174,0.58916 -0.07687,0.69777 -0.09863,0.0986 -0.356278,0.0899 -0.451468,-0.0153 z"
            id="path134" />
        <path style="fill:#383838;fill-opacity:1;stroke-width:0.0462353"
            d="m 57.069835,223.61966 c -0.549544,-0.27511 -0.778338,-0.44825 -0.904046,-0.68417 -0.09885,-0.18551 -0.105961,-0.25963 -0.120736,-1.25838 l -0.0157,-1.06125 0.477803,0.45423 c 0.66811,0.63515 0.984174,1.01195 1.184045,1.41159 0.161168,0.32225 0.172228,0.37153 0.172228,0.76733 0,0.65776 -0.113847,0.71093 -0.793594,0.37065 z"
            id="path135" />
        <g id="g141" transform="translate(1.0368737,-0.88062771)">
            <rect
                style="clip-rule:evenodd;fill:#5574a6;fill-opacity:1;fill-rule:evenodd;stroke-linejoin:round;stroke-miterlimit:2"
                id="rect135-0" width="86.072121" height="129.51418" x="16" y="59" />
            <rect style="fill:url(#pattern141);fill-opacity:1" id="rect135" width="86.072121" height="129.51418" x="16"
                y="59" />
        </g>
    </g>
</svg>